<svg xmlns="http://www.w3.org/2000/svg" width="386.307" height="164.874" viewBox="0 0 386.307 164.874">
  <g id="Clouds_and_sun" data-name="Clouds and sun" transform="translate(0 -46.139)">
    <g id="Group_121750" data-name="Group 121750" transform="translate(50.014 -54.871)">
      <path id="Path_107672" data-name="Path 107672" d="M226.16,101.01c1.94,10.37,3.78,10.76,9.49,1.92-2.36,10.26-.85,11.29,7.75,5.23-6.06,8.6-5.04,10.11,5.23,7.75-8.84,5.71-8.45,7.56,1.92,9.49-10.37,1.93-10.76,3.78-1.92,9.49-10.26-2.36-11.29-.85-5.23,7.75-8.6-6.06-10.11-5.04-7.75,5.23-5.71-8.84-7.56-8.45-9.49,1.92-1.94-10.37-3.78-10.76-9.49-1.92,2.36-10.26.85-11.29-7.75-5.23,6.06-8.6,5.04-10.11-5.23-7.75,8.84-5.71,8.45-7.56-1.92-9.49,10.37-1.94,10.76-3.78,1.92-9.49,10.26,2.36,11.29.85,5.23-7.75,8.6,6.06,10.11,5.04,7.75-5.23C222.38,111.77,224.23,111.38,226.16,101.01Z" fill="#ffe0a1" fill-rule="evenodd"/>
      <path id="Path_107673" data-name="Path 107673" d="M226.16,138.13a12.74,12.74,0,1,0-12.74-12.74A12.767,12.767,0,0,0,226.16,138.13Z" fill="#fcca65" fill-rule="evenodd"/>
    </g>
    <path id="Path_107674" data-name="Path 107674" d="M224.81,136.97c-6.09,0-14.87,1.87-14.99,6.32-.19,7.54,30.08,7.26,39.6,7.26,8.89,0,38.53-2.31,38.66-7,.11-3.95-16.42-7.5-22.31-2.9a10.639,10.639,0,0,0-9.67-6.94,9.605,9.605,0,0,0-4.29,1.01c-2.01-4.67-6.27-7.9-11.21-7.9-5.71,0-10.53,4.32-11.98,10.2-.59-.06-2.06-.05-3.81-.05Z" transform="translate(50.014 -54.871)" fill="#fff" fill-rule="evenodd"/>
    <path id="Path_107675" data-name="Path 107675" d="M116.12,187.56a13.025,13.025,0,0,1,7.82,2.48c1.54-2.64,4.93-4.47,8.87-4.47a11.909,11.909,0,0,1,3.93.65c1.84-3.01,5.75-5.09,10.28-5.09,6.12,0,11.11,3.8,11.39,8.56,2.64-.52,9.82.86,9.67,4.88-.21,5.34-30.19,7.46-34.95,7.46-4.19,0-35.49,1.12-35.66-5.76-.09-3.54,3.67-5.57,7.01-5.57a8.754,8.754,0,0,1,2.65.4,12.482,12.482,0,0,1,8.99-3.53Z" transform="translate(-77.469 -127.084)" fill="#fff" fill-rule="evenodd"/>
    <path id="Path_109915" data-name="Path 109915" d="M116.12,187.56a13.025,13.025,0,0,1,7.82,2.48c1.54-2.64,4.93-4.47,8.87-4.47a11.909,11.909,0,0,1,3.93.65c1.84-3.01,5.75-5.09,10.28-5.09,6.12,0,11.11,3.8,11.39,8.56,2.64-.52,9.82.86,9.67,4.88-.21,5.34-30.19,7.46-34.95,7.46-4.19,0-35.49,1.12-35.66-5.76-.09-3.54,3.67-5.57,7.01-5.57a8.754,8.754,0,0,1,2.65.4,12.482,12.482,0,0,1,8.99-3.53Z" transform="translate(-97.469 -46.085)" fill="#fff" fill-rule="evenodd"/>
    <path id="Path_109916" data-name="Path 109916" d="M116.12,187.56a13.025,13.025,0,0,1,7.82,2.48c1.54-2.64,4.93-4.47,8.87-4.47a11.909,11.909,0,0,1,3.93.65c1.84-3.01,5.75-5.09,10.28-5.09,6.12,0,11.11,3.8,11.39,8.56,2.64-.52,9.82.86,9.67,4.88-.21,5.34-30.19,7.46-34.95,7.46-4.19,0-35.49,1.12-35.66-5.76-.09-3.54,3.67-5.57,7.01-5.57a8.754,8.754,0,0,1,2.65.4,12.482,12.482,0,0,1,8.99-3.53Z" transform="translate(218.225 8.915)" fill="#fff" fill-rule="evenodd"/>
    <path id="Path_113123" data-name="Path 113123" d="M44.112,46.316c3.664-2.339,4.823-4.473,7.657-6.765,3.2-2.587,6.786-2.819,9.183-3.215a2.631,2.631,0,0,1,3.514-2.061c1.6-1.834,3.622-4.957,7.626-6.441,3.422-1.262,5.854-1.17,9.739-3.123.443-.227.809-.423.809-.423s-.325.268-.716.582a25.066,25.066,0,0,1-3.952,2.5c-1.587.814-3.21,1.422-4.772,2.4a12.709,12.709,0,0,0-3.6,3.354,48.981,48.981,0,0,0-2.886,4.586,2.914,2.914,0,0,1-.062.417,1.074,1.074,0,0,1,.155.067,6.244,6.244,0,0,0,2.649.325c.51.18-.155.979-.392,1.3a11.77,11.77,0,0,1-5.684,3.231c-.392.041-1.422.2-1.309-.325a6.417,6.417,0,0,0,1.067-2.437.64.64,0,0,1,.021-.17c-.119-.041-.232-.088-.345-.139a45.462,45.462,0,0,0-5.22.134,12.825,12.825,0,0,0-4.725,1.376c-1.639.85-2.994,1.927-4.5,2.88A25.011,25.011,0,0,1,44.2,46.486c-.469.175-.866.314-.866.314s.356-.211.773-.484" transform="translate(243.445 106)" fill-rule="evenodd"/>
  </g>
</svg>
