<svg xmlns="http://www.w3.org/2000/svg" width="21.858" height="17.549" viewBox="0 0 21.858 17.549">
  <path id="icons8-graph-report_2_" data-name="icons8-graph-report (2)" d="M33.694,15a2.144,2.144,0,0,0-1.638,3.529L28.9,23.287a2.477,2.477,0,0,0-.663-.1,2.085,2.085,0,0,0-1.443.566L24.256,22.2a2.638,2.638,0,0,0,.078-.566,2.145,2.145,0,1,0-4.29,0,2.2,2.2,0,0,0,.487,1.365l-3.7,5.382a2.008,2.008,0,0,0-.682-.117A2.145,2.145,0,1,0,18.29,30.4a2.2,2.2,0,0,0-.487-1.365l3.7-5.382a2.008,2.008,0,0,0,.682.117,2.085,2.085,0,0,0,1.443-.566l2.535,1.56a2.638,2.638,0,0,0-.078.566,2.145,2.145,0,1,0,3.783-1.384l3.178-4.758a2.478,2.478,0,0,0,.663.1,2.145,2.145,0,1,0-.02-4.29Zm0,1.17a.975.975,0,1,1-.975.975A.965.965,0,0,1,33.694,16.17Zm-11.5,4.485a.975.975,0,1,1-.975.975A.965.965,0,0,1,22.189,20.655Zm6.045,3.7a.975.975,0,1,1-.975.975A.965.965,0,0,1,28.234,24.359Zm-12.089,5.07a.975.975,0,1,1-.975.975A.965.965,0,0,1,16.145,29.429Z" transform="translate(-14 -15)" fill="#ff5757"/>
</svg>
