<svg xmlns="http://www.w3.org/2000/svg" xmlns:xlink="http://www.w3.org/1999/xlink" width="59.425" height="59.592" viewBox="0 0 59.425 59.592">
  <defs>
    <clipPath id="clip-path">
      <rect id="Rectangle_60092" data-name="Rectangle 60092" width="59.425" height="59.592" fill="none"/>
    </clipPath>
    <clipPath id="clip-path-2">
      <rect id="Rectangle_60067" data-name="Rectangle 60067" width="42.471" height="53.224" fill="none"/>
    </clipPath>
    <clipPath id="clip-path-3">
      <rect id="Rectangle_60068" data-name="Rectangle 60068" width="1.568" height="14.075" fill="none"/>
    </clipPath>
    <clipPath id="clip-path-4">
      <rect id="Rectangle_60069" data-name="Rectangle 60069" width="10.275" height="9.326" fill="none"/>
    </clipPath>
    <clipPath id="clip-path-5">
      <rect id="Rectangle_60070" data-name="Rectangle 60070" width="1.931" height="17.336" fill="none"/>
    </clipPath>
    <clipPath id="clip-path-6">
      <rect id="Rectangle_60071" data-name="Rectangle 60071" width="12.657" height="11.487" fill="none"/>
    </clipPath>
    <clipPath id="clip-path-7">
      <rect id="Rectangle_60072" data-name="Rectangle 60072" width="0.954" height="8.565" fill="none"/>
    </clipPath>
    <clipPath id="clip-path-8">
      <rect id="Rectangle_60073" data-name="Rectangle 60073" width="6.253" height="5.675" fill="none"/>
    </clipPath>
    <clipPath id="clip-path-9">
      <rect id="Rectangle_60074" data-name="Rectangle 60074" width="1.126" height="1.307" fill="none"/>
    </clipPath>
    <clipPath id="clip-path-10">
      <rect id="Rectangle_60075" data-name="Rectangle 60075" width="1.13" height="0.978" fill="none"/>
    </clipPath>
    <clipPath id="clip-path-11">
      <rect id="Rectangle_60076" data-name="Rectangle 60076" width="0.709" height="4.379" fill="none"/>
    </clipPath>
    <clipPath id="clip-path-12">
      <rect id="Rectangle_60077" data-name="Rectangle 60077" width="4.65" height="4.22" fill="none"/>
    </clipPath>
    <clipPath id="clip-path-13">
      <rect id="Rectangle_60078" data-name="Rectangle 60078" width="0.837" height="0.972" fill="none"/>
    </clipPath>
    <clipPath id="clip-path-14">
      <rect id="Rectangle_60079" data-name="Rectangle 60079" width="0.84" height="0.727" fill="none"/>
    </clipPath>
    <clipPath id="clip-path-15">
      <rect id="Rectangle_60080" data-name="Rectangle 60080" width="1.163" height="3.438" fill="none"/>
    </clipPath>
    <clipPath id="clip-path-16">
      <rect id="Rectangle_60081" data-name="Rectangle 60081" width="1.543" height="3.853" fill="none"/>
    </clipPath>
    <clipPath id="clip-path-17">
      <rect id="Rectangle_60082" data-name="Rectangle 60082" width="3.954" height="2.097" fill="none"/>
    </clipPath>
    <clipPath id="clip-path-18">
      <rect id="Rectangle_60083" data-name="Rectangle 60083" width="3.954" height="1.045" fill="none"/>
    </clipPath>
    <clipPath id="clip-path-19">
      <rect id="Rectangle_60084" data-name="Rectangle 60084" width="3.192" height="1.693" fill="none"/>
    </clipPath>
    <clipPath id="clip-path-20">
      <rect id="Rectangle_60085" data-name="Rectangle 60085" width="3.192" height="0.843" fill="none"/>
    </clipPath>
    <clipPath id="clip-path-21">
      <rect id="Rectangle_60086" data-name="Rectangle 60086" width="0.898" height="3.195" fill="none"/>
    </clipPath>
    <clipPath id="clip-path-22">
      <rect id="Rectangle_60087" data-name="Rectangle 60087" width="2.486" height="2.104" fill="none"/>
    </clipPath>
    <clipPath id="clip-path-23">
      <rect id="Rectangle_60088" data-name="Rectangle 60088" width="1.69" height="3.416" fill="none"/>
    </clipPath>
    <clipPath id="clip-path-24">
      <rect id="Rectangle_60089" data-name="Rectangle 60089" width="3.263" height="1.305" fill="none"/>
    </clipPath>
    <clipPath id="clip-path-25">
      <rect id="Rectangle_60090" data-name="Rectangle 60090" width="1.129" height="3.328" fill="none"/>
    </clipPath>
    <clipPath id="clip-path-26">
      <rect id="Rectangle_60091" data-name="Rectangle 60091" width="2.179" height="2.716" fill="none"/>
    </clipPath>
  </defs>
  <g id="Group_121090" data-name="Group 121090" clip-path="url(#clip-path)">
    <g id="Group_121017" data-name="Group 121017" transform="translate(8.143 2.827)" opacity="0.5">
      <g id="Group_121016" data-name="Group 121016">
        <g id="Group_121015" data-name="Group 121015" clip-path="url(#clip-path-2)">
          <path id="Path_105466" data-name="Path 105466" d="M110.848,55.769c0-.029,0-.059,0-.089l-.008,0C109.7,44.713,93.816,36.6,89.669,23.695,85.522,36.6,69.638,44.713,68.5,55.682l-.008,0c0,.03,0,.06,0,.089a12.534,12.534,0,0,0,.746,5.559c.012.032.025.062.037.094a21.17,21.17,0,0,0,40.793,0c.012-.032.025-.062.037-.094a12.531,12.531,0,0,0,.746-5.559" transform="translate(-68.434 -23.695)" fill="#fff"/>
        </g>
      </g>
    </g>
    <path id="Path_105467" data-name="Path 105467" d="M313.061,233.927a4.815,4.815,0,0,0-.78.436l-.311-4.849h-.824l-.136,14.071h1.5l-.184-8.538c.352-.364.723-.717.792-.767.131-.095.113-.372-.056-.353" transform="translate(-274.003 -202.128)" fill="#8b5f1e"/>
    <g id="Group_121020" data-name="Group 121020" transform="translate(37.632 27.387)" opacity="0.4" style="mix-blend-mode: multiply;isolation: isolate">
      <g id="Group_121019" data-name="Group 121019">
        <g id="Group_121018" data-name="Group 121018" clip-path="url(#clip-path-3)">
          <path id="Path_105468" data-name="Path 105468" d="M317.741,234.285c-.061.049-.433.4-.793.76l.192,8.545h-.878V229.515h.337l.312,4.843a4.8,4.8,0,0,1,.782-.433c.168-.013.179.263.048.36" transform="translate(-316.263 -229.515)" fill="#4e2b07"/>
        </g>
      </g>
    </g>
    <path id="Path_105469" data-name="Path 105469" d="M276.24,164.434a2.341,2.341,0,0,0-.641-1.611,2.341,2.341,0,0,0-3.237-3.092,2.34,2.34,0,0,0-4.59,0,2.343,2.343,0,0,0-3.236,3.092,2.346,2.346,0,0,0,1.327,3.926,2.336,2.336,0,0,0,4.205,1.086,2.336,2.336,0,0,0,4.205-1.086,2.344,2.344,0,0,0,1.967-2.315" transform="translate(-232.494 -139.013)" fill="#1b9863"/>
    <g id="Group_121023" data-name="Group 121023" transform="translate(33.471 20.456)" opacity="0.4" style="mix-blend-mode: multiply;isolation: isolate">
      <g id="Group_121022" data-name="Group 121022">
        <g id="Group_121021" data-name="Group 121021" clip-path="url(#clip-path-4)">
          <path id="Path_105470" data-name="Path 105470" d="M290.924,174.783a2.343,2.343,0,0,0-1.707-3.355,2.219,2.219,0,0,1,.774,2.847,2.221,2.221,0,0,1-1.256,3.717,2.212,2.212,0,0,1-3.982,1.028,2.206,2.206,0,0,1-3.464.132,2.334,2.334,0,0,0,4.1.642,2.336,2.336,0,0,0,4.205-1.086,2.345,2.345,0,0,0,1.326-3.926" transform="translate(-281.29 -171.428)" fill="#1b9863"/>
        </g>
      </g>
    </g>
    <path id="Path_105471" data-name="Path 105471" d="M320.867,160.361a2.116,2.116,0,0,1,.494-.308,2.321,2.321,0,0,0-1.85-1.84,4.108,4.108,0,0,1,1.355,2.148" transform="translate(-281.493 -139.334)" fill="#539271"/>
    <path id="Path_105472" data-name="Path 105472" d="M266.52,219.905a2.858,2.858,0,0,1-1.692-.926,2.361,2.361,0,0,0,1.856,1.607,2.245,2.245,0,0,1-.164-.681" transform="translate(-233.316 -192.849)" fill="#539271"/>
    <path id="Path_105473" data-name="Path 105473" d="M192.483,200.194a5.963,5.963,0,0,0-.961.538l-.383-5.973h-1.014l-.168,17.332H191.8l-.226-10.517c.433-.448.89-.883.975-.945.162-.116.139-.458-.069-.434" transform="translate(-167.354 -171.52)" fill="#8b5f1e"/>
    <g id="Group_121026" data-name="Group 121026" transform="translate(23.373 23.239)" opacity="0.4" style="mix-blend-mode: multiply;isolation: isolate">
      <g id="Group_121025" data-name="Group 121025">
        <g id="Group_121024" data-name="Group 121024" clip-path="url(#clip-path-5)">
          <path id="Path_105474" data-name="Path 105474" d="M198.249,200.635c-.075.06-.533.49-.976.936l.237,10.524h-1.081V194.759h.415l.384,5.966a5.925,5.925,0,0,1,.963-.534c.206-.015.221.325.059.444" transform="translate(-196.428 -194.759)" fill="#4e2b07"/>
        </g>
      </g>
    </g>
    <path id="Path_105475" data-name="Path 105475" d="M147.128,114.6a2.884,2.884,0,0,0-.79-1.984,2.884,2.884,0,0,0-3.987-3.808,2.883,2.883,0,0,0-5.654,0,2.886,2.886,0,0,0-3.987,3.808,2.889,2.889,0,0,0,1.634,4.836,2.877,2.877,0,0,0,5.18,1.337,2.877,2.877,0,0,0,5.18-1.337,2.887,2.887,0,0,0,2.424-2.852" transform="translate(-116.224 -93.777)" fill="#1b9863"/>
    <g id="Group_121029" data-name="Group 121029" transform="translate(18.247 14.702)" opacity="0.4" style="mix-blend-mode: multiply;isolation: isolate">
      <g id="Group_121028" data-name="Group 121028">
        <g id="Group_121027" data-name="Group 121027" clip-path="url(#clip-path-6)">
          <path id="Path_105476" data-name="Path 105476" d="M165.217,127.342a2.886,2.886,0,0,0-2.1-4.133,2.733,2.733,0,0,1,.953,3.507,2.736,2.736,0,0,1-1.547,4.579,2.724,2.724,0,0,1-4.9,1.266,2.717,2.717,0,0,1-4.267.162,2.875,2.875,0,0,0,5.053.791,2.877,2.877,0,0,0,5.18-1.337,2.889,2.889,0,0,0,1.634-4.836" transform="translate(-153.35 -123.209)" fill="#1b9863"/>
        </g>
      </g>
    </g>
    <path id="Path_105477" data-name="Path 105477" d="M202.1,109.578a2.6,2.6,0,0,1,.609-.379,2.859,2.859,0,0,0-2.278-2.267,5.059,5.059,0,0,1,1.67,2.646" transform="translate(-176.581 -94.172)" fill="#539271"/>
    <path id="Path_105478" data-name="Path 105478" d="M135.156,182.922a3.522,3.522,0,0,1-2.085-1.141,2.909,2.909,0,0,0,2.287,1.979,2.753,2.753,0,0,1-.2-.838" transform="translate(-117.237 -160.09)" fill="#539271"/>
    <path id="Path_105479" data-name="Path 105479" d="M110.243,263.541a2.944,2.944,0,0,0-.475.265l-.189-2.951h-.5l-.083,8.563h.913l-.112-5.2c.214-.221.44-.436.482-.467.08-.057.069-.227-.034-.215" transform="translate(-96.026 -229.73)" fill="#8b5f1e"/>
    <g id="Group_121032" data-name="Group 121032" transform="translate(13.35 31.126)" opacity="0.4" style="mix-blend-mode: multiply;isolation: isolate">
      <g id="Group_121031" data-name="Group 121031">
        <g id="Group_121030" data-name="Group 121030" clip-path="url(#clip-path-7)">
          <path id="Path_105480" data-name="Path 105480" d="M113.09,263.759c-.037.03-.264.242-.482.462l.117,5.2h-.534v-8.565h.205l.19,2.947a2.9,2.9,0,0,1,.476-.264c.1-.007.109.161.029.219" transform="translate(-112.19 -260.856)" fill="#4e2b07"/>
        </g>
      </g>
    </g>
    <path id="Path_105481" data-name="Path 105481" d="M87.836,221.258a1.423,1.423,0,0,1-.241-1.614,1.424,1.424,0,0,0-2.119-1.247,1.424,1.424,0,0,0-2.793,0,2.248,2.248,0,0,0-1.162,4.27,1.421,1.421,0,0,0,2.559.66,1.421,1.421,0,0,0,2.559-.66,1.426,1.426,0,0,0,1.2-1.408" transform="translate(-70.765 -191.327)" fill="#5da552"/>
    <g id="Group_121035" data-name="Group 121035" transform="translate(10.817 26.909)" opacity="0.4" style="mix-blend-mode: multiply;isolation: isolate">
      <g id="Group_121034" data-name="Group 121034">
        <g id="Group_121033" data-name="Group 121033" clip-path="url(#clip-path-8)">
          <path id="Path_105482" data-name="Path 105482" d="M96.772,227.555a1.425,1.425,0,0,0-1.039-2.042,12.357,12.357,0,0,0,.84,2.66,1.351,1.351,0,0,1-1.134,1.334,1.346,1.346,0,0,1-2.423.625,1.342,1.342,0,0,1-2.108.08,1.42,1.42,0,0,0,2.5.391,1.421,1.421,0,0,0,2.559-.66,1.427,1.427,0,0,0,.807-2.388" transform="translate(-90.909 -225.513)" fill="#5da552"/>
        </g>
      </g>
    </g>
    <g id="Group_121038" data-name="Group 121038" transform="translate(13.585 25.95)" opacity="0.4" style="mix-blend-mode: multiply;isolation: isolate">
      <g id="Group_121037" data-name="Group 121037">
        <g id="Group_121036" data-name="Group 121036" clip-path="url(#clip-path-9)">
          <path id="Path_105483" data-name="Path 105483" d="M114.992,218.779a1.276,1.276,0,0,1,.3-.187,1.412,1.412,0,0,0-1.126-1.12,2.5,2.5,0,0,1,.825,1.307" transform="translate(-114.167 -217.472)" fill="#5da552"/>
        </g>
      </g>
    </g>
    <g id="Group_121041" data-name="Group 121041" transform="translate(9.625 30.362)" opacity="0.4" style="mix-blend-mode: multiply;isolation: isolate">
      <g id="Group_121040" data-name="Group 121040">
        <g id="Group_121039" data-name="Group 121039" clip-path="url(#clip-path-10)">
          <path id="Path_105484" data-name="Path 105484" d="M81.923,255.01a1.738,1.738,0,0,1-1.03-.564,1.437,1.437,0,0,0,1.13.978,1.362,1.362,0,0,1-.1-.414" transform="translate(-80.893 -254.446)" fill="#5da552"/>
        </g>
      </g>
    </g>
    <path id="Path_105485" data-name="Path 105485" d="M315.118,78.845l-1.072-2.391,6.075-6.366Z" transform="translate(-276.678 -61.725)" fill="#fff"/>
    <path id="Path_105486" data-name="Path 105486" d="M323.054,78.845l.023-2.266,4.981-6.491Z" transform="translate(-284.613 -61.725)" fill="#e5e5e6"/>
    <path id="Path_105487" data-name="Path 105487" d="M323.114,142.5l2.4-1.042,6.264,6.178Z" transform="translate(-284.667 -124.582)" fill="#fff"/>
    <path id="Path_105488" data-name="Path 105488" d="M323.114,150.194l2.259.053,6.4,5.083Z" transform="translate(-284.667 -132.272)" fill="#e5e5e6"/>
    <path id="Path_105489" data-name="Path 105489" d="M246.062,141.22l-1.767,1.932-8.232-3.08Z" transform="translate(-207.974 -123.358)" fill="#fff"/>
    <path id="Path_105490" data-name="Path 105490" d="M246.062,141.22l-2.084.875-7.914-2.023Z" transform="translate(-207.974 -123.358)" fill="#e5e5e6"/>
    <path id="Path_105491" data-name="Path 105491" d="M316.875,172.536h-1.748L315.7,151.4h.593Z" transform="translate(-277.629 -133.339)" fill="#fff"/>
    <path id="Path_105492" data-name="Path 105492" d="M323.908,172.536h-.651l-.147-21.131h.221Z" transform="translate(-284.662 -133.339)" fill="#cfd1d2"/>
    <path id="Path_105493" data-name="Path 105493" d="M316.216,141.239a.976.976,0,1,1-.975-.979.977.977,0,0,1,.975.979" transform="translate(-276.869 -123.524)" fill="#fff"/>
    <path id="Path_105494" data-name="Path 105494" d="M317.736,142.993a.739.739,0,1,1-.739-.741.739.739,0,0,1,.739.741" transform="translate(-278.625 -125.278)" fill="#acd6d8"/>
    <path id="Path_105495" data-name="Path 105495" d="M319.214,142.7a.73.73,0,0,1,.265.557.741.741,0,0,1-.739.741.728.728,0,0,1-.262-.053.725.725,0,0,0,.475.184.738.738,0,0,0,.26-1.429" transform="translate(-280.583 -125.669)" fill="#91cad0"/>
    <path id="Path_105496" data-name="Path 105496" d="M162.573,130.519l-.82-1.841,4.682-4.886Z" transform="translate(-142.505 -109.021)" fill="#fff"/>
    <path id="Path_105497" data-name="Path 105497" d="M168.645,130.519l.021-1.743,3.841-4.984Z" transform="translate(-148.578 -109.021)" fill="#e5e5e6"/>
    <path id="Path_105498" data-name="Path 105498" d="M168.682,179.445l1.846-.8,4.808,4.762Z" transform="translate(-148.61 -157.33)" fill="#fff"/>
    <path id="Path_105499" data-name="Path 105499" d="M168.682,185.33l1.737.045,4.917,3.919Z" transform="translate(-148.61 -163.216)" fill="#e5e5e6"/>
    <path id="Path_105500" data-name="Path 105500" d="M109.439,178.3l-1.362,1.483-6.326-2.382Z" transform="translate(-89.644 -156.237)" fill="#fff"/>
    <path id="Path_105501" data-name="Path 105501" d="M109.439,178.3l-1.6.67-6.083-1.569Z" transform="translate(-89.644 -156.237)" fill="#e5e5e6"/>
    <path id="Path_105502" data-name="Path 105502" d="M163.594,202.509l-1.344,0,.478-16.25h.456Z" transform="translate(-142.944 -164.032)" fill="#fff"/>
    <path id="Path_105503" data-name="Path 105503" d="M169.256,202.514h-.5l-.079-16.251h.17Z" transform="translate(-148.605 -164.036)" fill="#cfd1d2"/>
    <path id="Path_105504" data-name="Path 105504" d="M163.378,178.445a.751.751,0,1,1-.749-.755.751.751,0,0,1,.749.755" transform="translate(-142.614 -156.487)" fill="#fff"/>
    <path id="Path_105505" data-name="Path 105505" d="M164.546,179.792a.569.569,0,1,1-.567-.571.569.569,0,0,1,.567.571" transform="translate(-143.965 -157.836)" fill="#acd6d8"/>
    <path id="Path_105506" data-name="Path 105506" d="M165.679,179.566a.561.561,0,0,1,.2.428.569.569,0,0,1-.569.569.559.559,0,0,1-.2-.042.558.558,0,0,0,.365.143.568.568,0,0,0,.2-1.1" transform="translate(-145.464 -158.139)" fill="#91cad0"/>
    <path id="Path_105507" data-name="Path 105507" d="M123.938,251.664s-1.655-6.075-2.242-9.249-.358-3.859.216-4.051,1.347.275,1.735,1.777,1.813,6.791,1.813,6.791-1.676-8.014-1.8-9.515.3-2.035,1.188-1.911,1.049,1.065,1.659,3.358,1.845,7.986,1.845,7.986-1.1-8.161-1.13-9.63.372-2.039,1.472-1.776c1.469.352,2.382,10.614,2.382,10.614s-.662-6.9-.751-8.174,1.461-2.1,2.008-.669,2.091,10.433,2.4,11.719.645,4.27,1.224,6.385-8.643,1.853-12.013-3.655" transform="translate(-106.913 -207.295)" fill="#d89288"/>
    <path id="Path_105508" data-name="Path 105508" d="M261.577,251.664s1.655-6.075,2.242-9.249.358-3.859-.216-4.051-1.347.275-1.734,1.777-1.813,6.791-1.813,6.791,1.676-8.014,1.8-9.515-.3-2.035-1.189-1.911-1.049,1.065-1.659,3.358-1.845,7.986-1.845,7.986,1.1-8.161,1.131-9.63-.372-2.039-1.472-1.776c-1.469.352-2.382,10.614-2.382,10.614s.662-6.9.751-8.174-1.461-2.1-2.009-.669-2.091,10.433-2.4,11.719-.645,4.27-1.224,6.385,8.643,1.853,12.013-3.655" transform="translate(-219.845 -207.295)" fill="#d89288"/>
    <path id="Path_105509" data-name="Path 105509" d="M172.453,185.519A10.083,10.083,0,1,0,182.508,195.6a10.068,10.068,0,0,0-10.054-10.082" transform="translate(-143.075 -163.382)" fill="#80be7b"/>
    <path id="Path_105510" data-name="Path 105510" d="M172.453,185.519A10.082,10.082,0,1,0,182.508,195.6a10.068,10.068,0,0,0-10.054-10.082m-6.115,2.688a.271.271,0,0,1,.087.28c-.037.2.147.037.307.135s-.049.1-.258.148a.736.736,0,0,1-.429.012c-.133-.036-.111-.216-.11-.221.131-.122.265-.24.4-.354m6.115,17a9.594,9.594,0,0,1-9.581-9.608,9.734,9.734,0,0,1,.072-1.179.951.951,0,0,0,.2.2c.061.025,0,0,.061.013s.061.111.074.184.086.074.2.16.16.1.172.135.134.086.27-.025.1.025.11.123a3.016,3.016,0,0,1-.11.639,7.321,7.321,0,0,0,.086,1.217c-.024.1.184.32.319.516s.356.271.417.406a5.385,5.385,0,0,1,.257,1.021,5.4,5.4,0,0,0,.38,1.365c.135.2.061.738.061.91a.734.734,0,0,0,.294.5c.172.147.172.1.245.123a.344.344,0,0,1,.221.246.156.156,0,0,0,.27.049c.025-.062.159-.086.2-.246s-.343-.258-.442-.369-.012-.246-.025-.541-.2-.406-.1-.676.319.012.466-.061.037-.123.049-.344.123-.258.208-.529.086-.258.135-.442.208-.111.368-.221a1.04,1.04,0,0,0,.209-.762.986.986,0,0,1,.025-.59c.074-.222.527,0,.625-.135s.123-.172.11-.492-.441-.258-.674-.418,0-.147-.159-.147-.123.086-.208.073-.135.037-.172-.012.012-.086-.1-.246-.11.086-.331.086-.147-.3-.184-.517-.049-.172-.208-.234-.147-.172-.159-.27-.135-.234-.552-.381-.552-.246-.576-.16-.073.123-.233.111-.123.1-.184.172a.259.259,0,0,1-.282.111c-.159-.024-.135-.123-.257-.16s-.233.061-.429,0-.037-.185-.037-.3a.267.267,0,0,0-.123-.258c-.111-.086-.086.025-.147-.037s.024-.172,0-.344a.822.822,0,0,0-.176-.346q.093-.423.221-.831a1.314,1.314,0,0,0,.286.108c.184.049.257.012.319.123s.123.271.208.147.037-.172.147-.357a5.089,5.089,0,0,1,.355-.8,2.552,2.552,0,0,1,.822-.664c.245-.123.233-.16.393-.16s.319-.16.454-.037.073.2.2.123.16-.246.123-.283-.073-.037-.22-.111-.11-.172-.245-.172-.2.074-.2-.062.368-.111.49-.049.135.111.221.147a.856.856,0,0,0,.356.024c.1-.012.355.172.233-.147a5.53,5.53,0,0,0-.294-.627c-.025-.049-.111-.394-.184-.357s-.1.012-.294.049a.66.66,0,0,1-.429-.147s.061-.111-.122-.025-.331.111-.393.184-.135.234-.221.283-.2.049-.209-.037-.159-.225-.161-.227a9.71,9.71,0,0,1,.667-.754.839.839,0,0,0,.34.047c.2-.012.184.061.245.111a.9.9,0,0,0,.429.074c.233.012.1-.061.2-.16s.11-.074.38-.074.2,0,.221-.074-.037-.209-.209-.221-.123-.123-.307-.234a.749.749,0,0,1-.263-.384q.165-.126.335-.245a.557.557,0,0,0,.308.125c.184.012.282-.185.441-.111s.356.307.4.32.012.025-.012.2.024.135-.1.332-.257.2-.208.344.16.221.257.344.061.221.2.221a2.382,2.382,0,0,0,.8-.283,1.849,1.849,0,0,0,.454-.381c.16-.221.122-.246.294-.307a1.442,1.442,0,0,1,.442-.16c.22-.025.417-.111.441-.32s0-.246.135-.32a2.1,2.1,0,0,0,.319-.221.094.094,0,0,0-.073-.172c-.074.037-.307.012-.564.049s-.466.025-.662.049-.417.049-.5.049,0-.148-.527-.16a3.1,3.1,0,0,1-.527-.012c-.144-.024-.475-.1-.488-.1a9.561,9.561,0,0,1,10.444.762c-.009,0-.467.006-.617.156s-.133.152-.359.133-.473.133-.341.19.076.114-.132.095-.189-.285-.53-.152-.379.057-.454.152-.3-.038-.473.019-.208-.038-.4.133-.435.341-.435.095-.057-.342.113-.323.378-.057.284-.152a1.618,1.618,0,0,0-1.116-.228c-.662.038-1.021.057-1.041.228s.114.209-.038.323-.549.076-.492.266.151.171.379.285.095-.019.227.114.057.152.114.266.17,0,.3-.095.321-.019.265-.171-.189-.152-.019-.284.378-.114.3.038-.057.266.057.284.132.3-.095.36-.322.266-.662.247-.435.019-.454-.209-.019-.417-.189-.3-.284.152-.17.265.284.171.133.247-.379-.038-.454.076.17-.038-.075.114a1.122,1.122,0,0,1-.359.171c-.057.019-.246-.019-.114.133s.17.247.019.247-.454-.019-.568.1-.094.209-.038.4.095.266.341.3a.46.46,0,0,0,.53-.247c.114-.209-.038-.474.3-.474a1.54,1.54,0,0,1,.87.133c.208.152.285.235.3.346s-.159.184-.024.246.233.148.282.037a2.429,2.429,0,0,1,.1-.246c.049-.086.16-.172.025-.234s-.539-.185-.331-.234a.593.593,0,0,1,.6.184c.11.172.037.381.208.406s.135-.2.258-.172.147.012.159.1-.135.135.012.271a.483.483,0,0,0,.4.123c.147,0,.306-.2.441-.074s.184.221.1.357-.184.172-.466.184a1.5,1.5,0,0,1-.723-.123c-.282-.111-.38-.246-.405-.086s-.024.2-.233.2-.392.062-.576-.135-.282-.148-.319-.258-.454-.111-.564-.037a1.853,1.853,0,0,1-.527.172c-.061,0-.454-.209-.6-.049a7.329,7.329,0,0,0-.736.947,4.7,4.7,0,0,0-.564,1.414,1,1,0,0,0,.147.59,1.174,1.174,0,0,0,1.079.59c.576-.025.736-.013.969-.025s.4-.111.478.086.1.258.233.307.245.517.307.972-.062.836.085.972-.049.492.209.885a9.069,9.069,0,0,1,.735,1.02c.1.27.135.393.417.479s.5.123.527-.111-.1-.172.221-.713.552-.959.65-1.082a.834.834,0,0,0,.208-.431,1.6,1.6,0,0,0-.049-.442,2.163,2.163,0,0,1,.1-.455c.037-.061.135-.971.4-1.242s.49-.369.38-.578-.172-.258-.294-.258a.436.436,0,0,1-.355-.295c-.024-.148-.331-.529-.307-.6s.086-.185.245,0,.589.627.932.418.478-.357.466-.6-.012-.295-.172-.393a2.044,2.044,0,0,1-.392-.234c-.074-.086-.417-.258-.27-.418s.184-.1.834.147.833.221.944.307.343.1.392.393-.123.221.123.737.307.578.417.652.135.283.282.123.061-.332.135-.59.306-.762.478-.823.27-.184.4.025.1.369.257.492a.9.9,0,0,1,.258.295,3.9,3.9,0,0,0,.086.8c.1.234.294.516.38.381s-.036-.491.062-.639A.4.4,0,0,1,182,194.8c.022.263.033.53.033.8a9.6,9.6,0,0,1-9.581,9.608" transform="translate(-143.075 -163.382)" fill="#b3dbaf"/>
    <path id="Path_105511" data-name="Path 105511" d="M346.494,305.175a2.211,2.211,0,0,0-.353.2L346,303.178h-.373l-.062,4.377h.678l-.083-1.873c.159-.165.327-.324.358-.347.06-.043.051-.168-.025-.16" transform="translate(-304.447 -267.001)" fill="#8b5f1e"/>
    <g id="Group_121044" data-name="Group 121044" transform="translate(41.402 36.176)" opacity="0.4" style="mix-blend-mode: multiply;isolation: isolate">
      <g id="Group_121043" data-name="Group 121043">
        <g id="Group_121042" data-name="Group 121042" clip-path="url(#clip-path-11)">
          <path id="Path_105512" data-name="Path 105512" d="M348.613,305.336c-.027.022-.2.18-.359.344l.087,1.876h-.4v-4.379h.152l.141,2.192a2.209,2.209,0,0,1,.354-.2c.076-.006.081.119.022.163" transform="translate(-347.944 -303.177)" fill="#4e2b07"/>
        </g>
      </g>
    </g>
    <path id="Path_105513" data-name="Path 105513" d="M329.83,277.725a1.059,1.059,0,0,1-.179-1.2,10.236,10.236,0,0,1-2.615-1.78,1.058,1.058,0,0,1-1.555.718,2.445,2.445,0,1,0,3.458,3.311,1.061,1.061,0,0,0,.89-1.048" transform="translate(-285.661 -241.96)" fill="#5da552"/>
    <g id="Group_121047" data-name="Group 121047" transform="translate(39.519 33.517)" opacity="0.4" style="mix-blend-mode: multiply;isolation: isolate">
      <g id="Group_121046" data-name="Group 121046">
        <g id="Group_121045" data-name="Group 121045" clip-path="url(#clip-path-12)">
          <path id="Path_105514" data-name="Path 105514" d="M336.475,282.407a1.06,1.06,0,0,0-.773-1.518,9.193,9.193,0,0,0,.625,1.979,2.794,2.794,0,0,1-4.212,1.517,4.52,4.52,0,0,1,2.71.725,1.73,1.73,0,0,0,1.65-2.7" transform="translate(-332.115 -280.889)" fill="#5da552"/>
        </g>
      </g>
    </g>
    <g id="Group_121050" data-name="Group 121050" transform="translate(41.577 32.803)" opacity="0.4" style="mix-blend-mode: multiply;isolation: isolate">
      <g id="Group_121049" data-name="Group 121049">
        <g id="Group_121048" data-name="Group 121048" clip-path="url(#clip-path-13)">
          <path id="Path_105515" data-name="Path 105515" d="M350.026,275.881a.943.943,0,0,1,.224-.139,1.051,1.051,0,0,0-.837-.833,1.86,1.86,0,0,1,.614.972" transform="translate(-349.412 -274.909)" fill="#5da552"/>
        </g>
      </g>
    </g>
    <g id="Group_121053" data-name="Group 121053" transform="translate(38.632 36.085)" opacity="0.4" style="mix-blend-mode: multiply;isolation: isolate">
      <g id="Group_121052" data-name="Group 121052">
        <g id="Group_121051" data-name="Group 121051" clip-path="url(#clip-path-14)">
          <path id="Path_105516" data-name="Path 105516" d="M325.433,302.827a1.292,1.292,0,0,1-.766-.419,1.069,1.069,0,0,0,.84.727,1.008,1.008,0,0,1-.074-.308" transform="translate(-324.667 -302.408)" fill="#5da552"/>
        </g>
      </g>
    </g>
    <path id="Path_105517" data-name="Path 105517" d="M292.472,263.714s-1.767,1.457.51,3.438c0,0,1.991-1.145-.51-3.438" transform="translate(-257.095 -232.246)" fill="#177a4d"/>
    <g id="Group_121056" data-name="Group 121056" transform="translate(34.724 31.467)" opacity="0.4" style="mix-blend-mode: multiply;isolation: isolate">
      <g id="Group_121055" data-name="Group 121055">
        <g id="Group_121054" data-name="Group 121054" clip-path="url(#clip-path-15)">
          <path id="Path_105518" data-name="Path 105518" d="M292.472,263.714a13.651,13.651,0,0,0,.51,3.438c-2.276-1.981-.51-3.438-.51-3.438" transform="translate(-291.819 -263.714)" fill="#177a4d"/>
        </g>
      </g>
    </g>
    <path id="Path_105519" data-name="Path 105519" d="M297.31,263.714a13.761,13.761,0,0,0,.394,3.334l.116.1.075-.049a18.1,18.1,0,0,1-.585-3.388" transform="translate(-261.933 -232.246)" fill="#78bf43"/>
    <path id="Path_105520" data-name="Path 105520" d="M266.274,291.31s-1.855,1.842.939,3.853c0,0,2.141-1.512-.939-3.853" transform="translate(-234.059 -256.55)" fill="#177a4d"/>
    <g id="Group_121059" data-name="Group 121059" transform="translate(31.612 34.76)" opacity="0.4" style="mix-blend-mode: multiply;isolation: isolate">
      <g id="Group_121058" data-name="Group 121058">
        <g id="Group_121057" data-name="Group 121057" clip-path="url(#clip-path-16)">
          <path id="Path_105521" data-name="Path 105521" d="M266.274,291.31a15.605,15.605,0,0,0,.939,3.853c-2.794-2.011-.939-3.853-.939-3.853" transform="translate(-265.671 -291.31)" fill="#177a4d"/>
        </g>
      </g>
    </g>
    <path id="Path_105522" data-name="Path 105522" d="M270.742,291.31a15.7,15.7,0,0,0,.8,3.747l.142.106.081-.065a20.639,20.639,0,0,1-1.02-3.788" transform="translate(-238.526 -256.55)" fill="#78bf43"/>
    <g id="Group_121062" data-name="Group 121062" transform="translate(34.549 35.787)" style="mix-blend-mode: multiply;isolation: isolate">
      <g id="Group_121061" data-name="Group 121061">
        <g id="Group_121060" data-name="Group 121060" clip-path="url(#clip-path-17)">
          <path id="Path_105523" data-name="Path 105523" d="M294.308,300.869s-1.392-2.214-3.954.087c0,0,1.008,2.424,3.954-.087" transform="translate(-290.354 -299.911)" fill="#177a4d"/>
        </g>
      </g>
    </g>
    <g id="Group_121065" data-name="Group 121065" transform="translate(34.549 35.787)" opacity="0.4" style="mix-blend-mode: multiply;isolation: isolate">
      <g id="Group_121064" data-name="Group 121064">
        <g id="Group_121063" data-name="Group 121063" clip-path="url(#clip-path-18)">
          <path id="Path_105524" data-name="Path 105524" d="M294.308,300.869a15.436,15.436,0,0,0-3.954.087c2.562-2.3,3.954-.087,3.954-.087" transform="translate(-290.354 -299.911)" fill="#177a4d"/>
        </g>
      </g>
    </g>
    <path id="Path_105525" data-name="Path 105525" d="M294.308,306.852a15.55,15.55,0,0,0-3.82-.03l-.134.117.045.092a20.465,20.465,0,0,1,3.909-.179" transform="translate(-255.805 -270.106)" fill="#78bf43"/>
    <g id="Group_121068" data-name="Group 121068" transform="translate(37.248 32.669)" style="mix-blend-mode: multiply;isolation: isolate">
      <g id="Group_121067" data-name="Group 121067">
        <g id="Group_121066" data-name="Group 121066" clip-path="url(#clip-path-19)">
          <path id="Path_105526" data-name="Path 105526" d="M316.228,274.555s-1.123-1.786-3.192.069c0,0,.814,1.957,3.192-.069" transform="translate(-313.036 -273.782)" fill="#177a4d"/>
        </g>
      </g>
    </g>
    <g id="Group_121071" data-name="Group 121071" transform="translate(37.248 32.669)" opacity="0.4" style="mix-blend-mode: multiply;isolation: isolate">
      <g id="Group_121070" data-name="Group 121070">
        <g id="Group_121069" data-name="Group 121069" clip-path="url(#clip-path-20)">
          <path id="Path_105527" data-name="Path 105527" d="M316.228,274.555a12.521,12.521,0,0,0-3.192.069c2.069-1.856,3.192-.069,3.192-.069" transform="translate(-313.036 -273.782)" fill="#177a4d"/>
        </g>
      </g>
    </g>
    <path id="Path_105528" data-name="Path 105528" d="M316.228,279.385a12.62,12.62,0,0,0-3.084-.025l-.108.094.036.075a16.555,16.555,0,0,1,3.156-.145" transform="translate(-275.788 -245.943)" fill="#78bf43"/>
    <path id="Path_105529" data-name="Path 105529" d="M316.14,245.86s-1.873.967-.209,3.195c0,0,2.015-.643.209-3.195" transform="translate(-277.731 -216.523)" fill="#177a4d"/>
    <g id="Group_121074" data-name="Group 121074" transform="translate(37.511 29.337)" opacity="0.4" style="mix-blend-mode: multiply;isolation: isolate">
      <g id="Group_121073" data-name="Group 121073">
        <g id="Group_121072" data-name="Group 121072" clip-path="url(#clip-path-21)">
          <path id="Path_105530" data-name="Path 105530" d="M316.14,245.86a12.6,12.6,0,0,0-.209,3.195c-1.664-2.228.209-3.195.209-3.195" transform="translate(-315.242 -245.86)" fill="#177a4d"/>
        </g>
      </g>
    </g>
    <path id="Path_105531" data-name="Path 105531" d="M320.436,245.86a12.649,12.649,0,0,0-.292,3.079l.083.116.078-.031a16.651,16.651,0,0,1,.131-3.164" transform="translate(-282.027 -216.523)" fill="#78bf43"/>
    <path id="Path_105532" data-name="Path 105532" d="M264.478,263.268a9.182,9.182,0,0,0,1.674-1.7c.6-.874,2.943-4.045,3.595-4.815s2.746-2.3,3.118-2.655a5.831,5.831,0,0,0,.816-.825c.181-.27.181-.011-.332.538s-1.992,1.676-2.383,2.017a22.163,22.163,0,0,0-2.435,2.774c-.656.786-2.225,3.02-2.621,3.5s-1.592,1.542-1.432,1.168" transform="translate(-232.995 -222.955)" fill="#4e2418"/>
    <path id="Path_105533" data-name="Path 105533" d="M337.647,243.752s.349,2.117-2.472,2.1c0,0-.7-2.037,2.472-2.1" transform="translate(-295.235 -214.666)" fill="#177a4d"/>
    <g id="Group_121077" data-name="Group 121077" transform="translate(39.94 29.086)" opacity="0.4" style="mix-blend-mode: multiply;isolation: isolate">
      <g id="Group_121076" data-name="Group 121076">
        <g id="Group_121075" data-name="Group 121075" clip-path="url(#clip-path-22)">
          <path id="Path_105534" data-name="Path 105534" d="M338.13,243.752a12.7,12.7,0,0,1-2.472,2.1c2.821.013,2.472-2.1,2.472-2.1" transform="translate(-335.658 -243.752)" fill="#177a4d"/>
        </g>
      </g>
    </g>
    <path id="Path_105535" data-name="Path 105535" d="M337.97,243.752a12.829,12.829,0,0,1-2.326,2.1H335.5l-.022-.082a16.817,16.817,0,0,0,2.493-2.022" transform="translate(-295.558 -214.666)" fill="#78bf43"/>
    <path id="Path_105536" data-name="Path 105536" d="M220.339,304.626s1.489,1.892-1.291,3.416c0,0-1.789-1.623,1.291-3.416" transform="translate(-192.528 -268.277)" fill="#177a4d"/>
    <g id="Group_121080" data-name="Group 121080" transform="translate(26.52 36.349)" opacity="0.4" style="mix-blend-mode: multiply;isolation: isolate">
      <g id="Group_121079" data-name="Group 121079">
        <g id="Group_121078" data-name="Group 121078" clip-path="url(#clip-path-23)">
          <path id="Path_105537" data-name="Path 105537" d="M224.163,304.626a14.328,14.328,0,0,1-1.291,3.416c2.781-1.524,1.291-3.416,1.291-3.416" transform="translate(-222.872 -304.626)" fill="#177a4d"/>
        </g>
      </g>
    </g>
    <path id="Path_105538" data-name="Path 105538" d="M223.675,304.626a14.456,14.456,0,0,1-1.149,3.336l-.143.081-.066-.068a19,19,0,0,0,1.357-3.348" transform="translate(-195.864 -268.277)" fill="#78bf43"/>
    <path id="Path_105539" data-name="Path 105539" d="M186.317,308.281s1.552-1.583,3.263.788c0,0-1.273,1.827-3.263-.788" transform="translate(-164.147 -271.04)" fill="#177a4d"/>
    <g id="Group_121083" data-name="Group 121083" transform="translate(22.17 36.724)" opacity="0.4" style="mix-blend-mode: multiply;isolation: isolate">
      <g id="Group_121082" data-name="Group 121082">
        <g id="Group_121081" data-name="Group 121081" clip-path="url(#clip-path-24)">
          <path id="Path_105540" data-name="Path 105540" d="M186.317,308.281a13.139,13.139,0,0,1,3.263.788c-1.711-2.371-3.263-.788-3.263-.788" transform="translate(-186.317 -307.763)" fill="#177a4d"/>
        </g>
      </g>
    </g>
    <path id="Path_105541" data-name="Path 105541" d="M186.317,312.1a13.265,13.265,0,0,1,3.173.667l.09.121-.054.069a17.429,17.429,0,0,0-3.209-.857" transform="translate(-164.147 -274.86)" fill="#78bf43"/>
    <path id="Path_105542" data-name="Path 105542" d="M202.492,280.58s1.708,1.414-.5,3.328c0,0-1.926-1.113.5-3.328" transform="translate(-177.319 -247.1)" fill="#177a4d"/>
    <g id="Group_121086" data-name="Group 121086" transform="translate(24.674 33.48)" opacity="0.4" style="mix-blend-mode: multiply;isolation: isolate">
      <g id="Group_121085" data-name="Group 121085">
        <g id="Group_121084" data-name="Group 121084" clip-path="url(#clip-path-25)">
          <path id="Path_105543" data-name="Path 105543" d="M207.863,280.58a13.25,13.25,0,0,1-.5,3.328c2.207-1.914.5-3.328.5-3.328" transform="translate(-207.365 -280.58)" fill="#177a4d"/>
        </g>
      </g>
    </g>
    <path id="Path_105544" data-name="Path 105544" d="M207.316,280.58a13.321,13.321,0,0,1-.387,3.229l-.111.1-.074-.048a17.508,17.508,0,0,0,.572-3.28" transform="translate(-182.143 -247.1)" fill="#78bf43"/>
    <path id="Path_105545" data-name="Path 105545" d="M192.637,288.2c-.521-.925-2.307-2.976-2.61-3.427a6.179,6.179,0,0,1-.653-1.031c-.126-.318-.184-.052.221.627s1.671,2.169,2,2.607a23.364,23.364,0,0,1,1.881,3.395,5.617,5.617,0,0,0-.836-2.17" transform="translate(-166.758 -249.763)" fill="#4e2418"/>
    <path id="Path_105546" data-name="Path 105546" d="M176.66,270.885s-.831,2.1,2.069,2.716c0,0,1.171-1.935-2.069-2.716" transform="translate(-155.541 -238.562)" fill="#177a4d"/>
    <g id="Group_121089" data-name="Group 121089" transform="translate(21.008 32.323)" opacity="0.4" style="mix-blend-mode: multiply;isolation: isolate">
      <g id="Group_121088" data-name="Group 121088">
        <g id="Group_121087" data-name="Group 121087" clip-path="url(#clip-path-26)">
          <path id="Path_105547" data-name="Path 105547" d="M176.66,270.885a13.39,13.39,0,0,0,2.069,2.716c-2.9-.619-2.069-2.716-2.069-2.716" transform="translate(-176.549 -270.885)" fill="#177a4d"/>
        </g>
      </g>
    </g>
    <path id="Path_105548" data-name="Path 105548" d="M177.477,270.885a13.5,13.5,0,0,0,1.919,2.682l.149.034.04-.079a17.719,17.719,0,0,1-2.109-2.637" transform="translate(-156.359 -238.562)" fill="#78bf43"/>
    <path id="Path_105549" data-name="Path 105549" d="M149.49,335.405c.073.037.066.067-.016.067h-5.206c-.082,0-.089-.03-.016-.067l.776-.393a.747.747,0,0,1,.283-.067h3.122a.746.746,0,0,1,.283.067Z" transform="translate(-127.042 -294.978)" fill="#c4c4c6"/>
    <path id="Path_105550" data-name="Path 105550" d="M149.319,308.674a.088.088,0,0,1-.087.136h-5.206a.088.088,0,0,1-.087-.136l.917-1.995a.254.254,0,0,1,.212-.136h3.122a.255.255,0,0,1,.212.136Z" transform="translate(-126.801 -269.965)" fill="#e5e5e6"/>
    <path id="Path_105551" data-name="Path 105551" d="M149.967,325.537h-5.206l.146.215h4.913Z" transform="translate(-127.535 -286.692)" fill="#919395"/>
    <path id="Path_105552" data-name="Path 105552" d="M167.162,312.172h.936l-.105-.5h-.83Z" transform="translate(-147.271 -274.479)" fill="#688fc9"/>
    <path id="Path_105553" data-name="Path 105553" d="M159.314,312.172v-.5H158.5l-.105.5Z" transform="translate(-139.546 -274.479)" fill="#688fc9"/>
    <path id="Path_105554" data-name="Path 105554" d="M167.162,308.032h.8l-.074-.353h-.731Z" transform="translate(-147.271 -270.965)" fill="#688fc9"/>
    <path id="Path_105555" data-name="Path 105555" d="M158.012,317.646v-.72h-.946l-.15.72Z" transform="translate(-138.244 -279.109)" fill="#688fc9"/>
    <path id="Path_105556" data-name="Path 105556" d="M149.989,311.669l-.219.5h.9l.1-.5Z" transform="translate(-131.948 -274.479)" fill="#688fc9"/>
    <path id="Path_105557" data-name="Path 105557" d="M160.285,307.678h-.716l-.074.353h.789Z" transform="translate(-140.517 -270.965)" fill="#688fc9"/>
    <path id="Path_105558" data-name="Path 105558" d="M152.821,308.032l.074-.353h-.679l-.154.353Z" transform="translate(-133.969 -270.965)" fill="#688fc9"/>
    <path id="Path_105559" data-name="Path 105559" d="M168.123,316.926h-.961v.72h1.111Z" transform="translate(-147.272 -279.109)" fill="#688fc9"/>
    <path id="Path_105560" data-name="Path 105560" d="M174.434,308.032h.741l-.154-.353h-.661Z" transform="translate(-153.613 -270.965)" fill="#688fc9"/>
    <path id="Path_105561" data-name="Path 105561" d="M147.931,316.926H147l-.313.72h1.091Z" transform="translate(-129.234 -279.109)" fill="#688fc9"/>
    <path id="Path_105562" data-name="Path 105562" d="M175.3,312.172h.883l-.22-.5H175.2Z" transform="translate(-154.349 -274.479)" fill="#688fc9"/>
    <path id="Path_105563" data-name="Path 105563" d="M177.206,316.926H176.3l.15.72h1.074Z" transform="translate(-155.318 -279.109)" fill="#688fc9"/>
    <path id="Path_105564" data-name="Path 105564" d="M162.823,327.89h-1.152l.2-1.405h.757Z" transform="translate(-142.434 -287.527)" fill="#e5e5e6"/>
    <path id="Path_105565" data-name="Path 105565" d="M302.953,335.405c.073.037.066.067-.016.067H297.73c-.082,0-.089-.03-.016-.067l.776-.393a.748.748,0,0,1,.282-.067h3.122a.748.748,0,0,1,.283.067Z" transform="translate(-262.245 -294.978)" fill="#c4c4c6"/>
    <path id="Path_105566" data-name="Path 105566" d="M302.783,308.674a.089.089,0,0,1-.087.136H297.49a.088.088,0,0,1-.087-.136l.917-1.995a.254.254,0,0,1,.212-.136h3.122a.255.255,0,0,1,.212.136Z" transform="translate(-262.004 -269.965)" fill="#e5e5e6"/>
    <path id="Path_105567" data-name="Path 105567" d="M303.431,325.537h-5.206l.146.215h4.913Z" transform="translate(-262.739 -286.692)" fill="#919395"/>
    <path id="Path_105568" data-name="Path 105568" d="M320.626,312.172h.935l-.105-.5h-.83Z" transform="translate(-282.475 -274.479)" fill="#688fc9"/>
    <path id="Path_105569" data-name="Path 105569" d="M312.777,312.172v-.5h-.815l-.105.5Z" transform="translate(-274.749 -274.479)" fill="#688fc9"/>
    <path id="Path_105570" data-name="Path 105570" d="M320.626,308.032h.8l-.074-.353h-.731Z" transform="translate(-282.475 -270.965)" fill="#688fc9"/>
    <path id="Path_105571" data-name="Path 105571" d="M311.475,317.646v-.72h-.946l-.15.72Z" transform="translate(-273.447 -279.109)" fill="#688fc9"/>
    <path id="Path_105572" data-name="Path 105572" d="M303.452,311.669l-.219.5h.9l.1-.5Z" transform="translate(-267.151 -274.479)" fill="#688fc9"/>
    <path id="Path_105573" data-name="Path 105573" d="M313.748,307.678h-.716l-.074.353h.789Z" transform="translate(-275.72 -270.965)" fill="#688fc9"/>
    <path id="Path_105574" data-name="Path 105574" d="M306.285,308.032l.074-.353h-.679l-.154.353Z" transform="translate(-269.172 -270.965)" fill="#688fc9"/>
    <path id="Path_105575" data-name="Path 105575" d="M321.587,316.926h-.961v.72h1.111Z" transform="translate(-282.475 -279.109)" fill="#688fc9"/>
    <path id="Path_105576" data-name="Path 105576" d="M327.9,308.032h.741l-.154-.353h-.661Z" transform="translate(-288.816 -270.965)" fill="#688fc9"/>
    <path id="Path_105577" data-name="Path 105577" d="M301.394,316.926h-.928l-.313.72h1.091Z" transform="translate(-264.438 -279.109)" fill="#688fc9"/>
    <path id="Path_105578" data-name="Path 105578" d="M328.764,312.172h.883l-.22-.5h-.769Z" transform="translate(-289.552 -274.479)" fill="#688fc9"/>
    <path id="Path_105579" data-name="Path 105579" d="M330.669,316.926h-.911l.15.72h1.074Z" transform="translate(-290.52 -279.109)" fill="#688fc9"/>
    <path id="Path_105580" data-name="Path 105580" d="M316.286,327.89h-1.152l.2-1.405h.757Z" transform="translate(-277.636 -287.527)" fill="#e5e5e6"/>
    <path id="Path_105581" data-name="Path 105581" d="M117.43,325.152s.885-1.825,3.5-.95,2.006.246,4.861.087,3.014,1.431,4.679.716,3.489-2.465,6.027-1.273,5,1.67,6.264,1.273a6.426,6.426,0,0,1,4.124-.318c1.74.365.017,2.533-1.331,3.328s-2.237.33-3.427.728a32.752,32.752,0,0,0-4.916,1.908c-2.062,1.034-1.745,1.193-2.3,1.908s-2.229,3.063-3.1,2.029-.546-2.267-2.37-3.222-.4-1.988-2.934-2.7-4.556.6-5.9-.755-2.379-1.564-3.172-2.756" transform="translate(-103.457 -284.747)" fill="#4e2418"/>
    <path id="Path_105582" data-name="Path 105582" d="M257.951,334.414s-3.355-17.983-3.083-18.892,3.808-2.3,5.78-3.66,2.856-5.251,3.4-7.57.839-3.591.612-4-2.4-.455-3.038,1.773-1.269,3.273-2.085,3.91-5.531-.318-9.067,2.182-3.989,5.455-3.717,8.729.861,17.528.861,17.528Z" transform="translate(-217.334 -264.267)" fill="#e7b0a1"/>
    <path id="Path_105583" data-name="Path 105583" d="M102.2,334.414s3.354-17.983,3.082-18.892-3.808-2.3-5.78-3.66-2.856-5.251-3.4-7.57-.839-3.591-.612-4,2.4-.455,3.038,1.773,1.269,3.273,2.085,3.91,5.531-.318,9.067,2.182,3.989,5.455,3.717,8.729-.861,17.528-.861,17.528Z" transform="translate(-84.06 -264.267)" fill="#e7b0a1"/>
    <path id="Path_105584" data-name="Path 105584" d="M379.517,205.278c-.377,0-1.782.18-1.782-1a1.176,1.176,0,0,1,1.175-1.178,1.143,1.143,0,0,1,.155.016,1.206,1.206,0,0,1-.021-.21,1.177,1.177,0,0,1,1.175-1.178,1.159,1.159,0,0,1,.572.155,2,2,0,0,1,3.918.237c.015,0,.03,0,.045,0a1.609,1.609,0,0,1,1.606,1.61c0,1.524-1.858,1.591-1.978,1.563Z" transform="translate(-332.788 -176.485)" fill="#fff"/>
    <path id="Path_105585" data-name="Path 105585" d="M85.978,91.263c-.329,0-1.554.158-1.554-.876a1.026,1.026,0,0,1,1.025-1.027.988.988,0,0,1,.135.013,1.063,1.063,0,0,1-.018-.183,1.027,1.027,0,0,1,1.025-1.028,1.01,1.01,0,0,1,.5.135,1.748,1.748,0,0,1,3.418.207c.013,0,.026,0,.039,0a1.4,1.4,0,0,1,1.4,1.4c0,1.329-1.621,1.388-1.725,1.363Z" transform="translate(-74.378 -76.623)" fill="#fff"/>
  </g>
</svg>
