<svg xmlns="http://www.w3.org/2000/svg" xmlns:xlink="http://www.w3.org/1999/xlink" width="53.193" height="47.309" viewBox="0 0 53.193 47.309">
  <defs>
    <linearGradient id="linear-gradient" x1="138622.141" y1="2522.535" x2="138623.141" y2="2522.535" gradientUnits="objectBoundingBox">
      <stop offset="0" stop-color="#c3aaff"/>
      <stop offset="1" stop-color="#e1d4ff"/>
    </linearGradient>
  </defs>
  <g id="NTU4MzQ0NDIz_Converted_copy" data-name="NTU4MzQ0NDIz [Converted] copy" transform="translate(-134.01 -132.651)">
    <g id="_ëîé_2" data-name="—ëîé_2" transform="translate(134.01 132.651)">
      <g id="Group_121237" data-name="Group 121237" transform="translate(0 0)">
        <path id="Path_106261" data-name="Path 106261" d="M179.17,718.406c0,.3-10.11.546-22.58.546s-22.58-.244-22.58-.546,10.11-.546,22.58-.546S179.17,718.1,179.17,718.406Z" transform="translate(-134.01 -671.643)" fill="#bed0db"/>
        <g id="Group_121231" data-name="Group 121231" transform="translate(2.333)">
          <path id="Path_106262" data-name="Path 106262" d="M351.795,481.072a1.125,1.125,0,0,1,.964-.926,2.559,2.559,0,0,1,1.4.246,7.8,7.8,0,0,0,1.341.513,1.565,1.565,0,0,0,1.361-.267,2.045,2.045,0,0,0,.525-1.395,2.994,2.994,0,0,1,.359-1.467,1.87,1.87,0,0,1,1.625-.687,7.687,7.687,0,0,1,1.792.4,3.528,3.528,0,0,0,1.815.142,16.854,16.854,0,0,1-5.793,5.987,6.205,6.205,0,0,1-2.494.855,3.134,3.134,0,0,1-2.449-.8c-.629-.624-.515-1.725-.442-2.608Z" transform="translate(-336.875 -449.886)" fill="#c4eab5"/>
          <path id="Path_106263" data-name="Path 106263" d="M493.477,451.209a1.013,1.013,0,0,1,1.514-.284,1.587,1.587,0,0,1,.432,1.63,3.893,3.893,0,0,1-.918,1.511,2.224,2.224,0,0,0-.466.678.693.693,0,0,0,.153.761c.285.232.7.093,1.062.024a1.907,1.907,0,0,1,2.266,1.457,2.053,2.053,0,0,1-.864,1.734,7.333,7.333,0,0,1-1.8.911,4.492,4.492,0,0,0-1.7,1.06c-.28.315-.469.818-.2,1.14a1.465,1.465,0,0,0,.621.328,2.126,2.126,0,0,1,.257,3.83,3.173,3.173,0,0,1-3.044-.254c-.926-.527-1.688-1.3-2.569-1.9a3.732,3.732,0,0,0-3-.738,24.07,24.07,0,0,1,3.36-7.555,18.913,18.913,0,0,1,4.9-4.338Z" transform="translate(-459.816 -425.587)" fill="#acdb9a"/>
          <path id="Path_106264" data-name="Path 106264" d="M525,482.841a16.067,16.067,0,0,1,5.721-12.918c.133-.111-.058-.3-.19-.19a16.321,16.321,0,0,0-5.8,13.108c.007.172.276.173.268,0Z" transform="translate(-496.193 -443.082)" fill="#ccedbc"/>
          <path id="Path_106265" data-name="Path 106265" d="M263.578,431.987a1.279,1.279,0,0,0-.717-1.35c-.487-.179-1.053.051-1.54-.126a1.344,1.344,0,0,1-.7-1.538,4.193,4.193,0,0,1,.873-1.6,3.47,3.47,0,0,0,.794-1.636,1.874,1.874,0,0,0-1.665-1.982,9.292,9.292,0,0,0-1.2.1,1.293,1.293,0,0,1-1.1-.368c-.381-.468-.142-1.157-.193-1.758a2.3,2.3,0,0,0-2.267-1.876,3.052,3.052,0,0,0-2.573,4.844c.344.473.846.9.866,1.487a1.666,1.666,0,0,1-.641,1.205,5.544,5.544,0,0,0-1,.988,1.8,1.8,0,0,0,.444,2.34,5.4,5.4,0,0,0,1.625.6,1.719,1.719,0,0,1,1.265,1.077c.122.517-.171,1.054-.1,1.58A1.8,1.8,0,0,0,257.2,435.3a4.731,4.731,0,0,0,2.97-.332c1.246-.526,3.24-1.465,3.408-2.983Z" transform="translate(-245.261 -397.168)" fill="#acdb9a"/>
          <path id="Path_106266" data-name="Path 106266" d="M179.649,461.028a1.792,1.792,0,0,0-2.093-1.015,4.417,4.417,0,0,1-.931.368c-.827.09-1.31-.985-1.159-1.8a19,19,0,0,0,.694-2.385,2.32,2.32,0,0,0-2.939-2.2c-.641.227-1.252.757-1.91.587-.915-.235-.976-1.471-1.239-2.378a3.33,3.33,0,1,0-4.881,3.8c.787.462,1.921.815,1.939,1.728.022,1.12-1.675,1.428-2.13,2.452a1.715,1.715,0,0,0,.728,2,4.261,4.261,0,0,0,2.207.575,7.741,7.741,0,0,1,2.281.3c.691.253,1.35.925,1.163,1.636-.13.5-.625.814-.877,1.266-.592,1.061.437,2.422,1.623,2.689a7.839,7.839,0,0,0,3.578-.464,4.041,4.041,0,0,1,3.5.334C179.075,466.866,180.006,461.8,179.649,461.028Z" transform="translate(-163.555 -424.76)" fill="#c4eab5"/>
          <g id="Group_121229" data-name="Group 121229" transform="translate(12.846)">
            <g id="Group_121227" data-name="Group 121227">
              <path id="Path_106267" data-name="Path 106267" d="M350.525,270.34a8.247,8.247,0,0,0,.825-5.657c-.858-3.972-4.521-6.264-8.331-6.909a7.956,7.956,0,0,0-5.327.825,5.441,5.441,0,0,0-2.76,4.479c-.028,3.335,3.463,5.921,3.441,9.256a6.677,6.677,0,0,1-2.586,4.787,47.124,47.124,0,0,1-4.66,3.119,12.678,12.678,0,0,0-3.762,3.642,6.785,6.785,0,0,0-1.019,5.037,7.988,7.988,0,0,0,7.793,5.59,7.424,7.424,0,0,0,5.411-3.964,24.083,24.083,0,0,0,2.159-6.6,18.645,18.645,0,0,1,2.432-6.488c1.811-2.635,4.844-4.312,6.384-7.115Z" transform="translate(-326.208 -247.771)" fill="#75a378"/>
              <ellipse id="Ellipse_130797" data-name="Ellipse 130797" cx="3.752" cy="2.809" rx="3.752" ry="2.809" transform="translate(11.873 6.626) rotate(-62)" fill="#75a378"/>
              <ellipse id="Ellipse_130798" data-name="Ellipse 130798" cx="2.646" cy="1.981" rx="2.646" ry="1.981" transform="translate(18.104 8.312) rotate(-62)" fill="#75a378"/>
              <path id="Path_106268" data-name="Path 106268" d="M611.538,231.35c.9.478,2.147-.108,2.785-1.309s.427-2.563-.472-3.041-2.147.108-2.785,1.309S610.639,230.871,611.538,231.35Z" transform="translate(-588.229 -219.395)" fill="#75a378"/>
              <ellipse id="Ellipse_130799" data-name="Ellipse 130799" cx="2.241" cy="1.677" rx="2.241" ry="1.677" transform="translate(24.379 14.605) rotate(-62)" fill="#75a378"/>
              <path id="Path_106269" data-name="Path 106269" d="M665.4,331.18a1.866,1.866,0,1,0-.2,2.227A1.615,1.615,0,0,0,665.4,331.18Z" transform="translate(-636.077 -315.25)" fill="#75a378"/>
            </g>
            <g id="Group_121228" data-name="Group 121228" transform="translate(10.721 13.056)">
              <path id="Path_106270" data-name="Path 106270" d="M465.053,303.125a1.842,1.842,0,0,1-1.953-2.053,1.9,1.9,0,0,1,1.986-2.11,3.247,3.247,0,0,1,.964.2.284.284,0,0,0,.366-.187l.121-.41a.283.283,0,0,0-.177-.347,3.973,3.973,0,0,0-1.3-.241,2.975,2.975,0,0,0-3.1,3.118,2.787,2.787,0,0,0,2.944,3.011,5.382,5.382,0,0,0,1.438-.268.283.283,0,0,0,.19-.342l-.1-.394a.284.284,0,0,0-.358-.2A4.414,4.414,0,0,1,465.053,303.125Z" transform="translate(-461.96 -297.979)" fill="#fff"/>
              <path id="Path_106271" data-name="Path 106271" d="M520.908,297.97a2.833,2.833,0,0,0-2.778,3.118,2.715,2.715,0,0,0,2.7,3.018,2.8,2.8,0,0,0,2.778-3.126A2.713,2.713,0,0,0,520.908,297.97Zm-.041,5.171c-1.092,0-1.59-1.072-1.59-2.069,0-1.063.494-2.135,1.6-2.135s1.59,1.077,1.59,2.078C522.465,302.073,521.971,303.141,520.867,303.141Z" transform="translate(-513.694 -297.97)" fill="#fff"/>
              <path id="Path_106272" data-name="Path 106272" d="M592.437,334.381h-.9a2.432,2.432,0,0,0,.974-1.623,1.014,1.014,0,0,0-1.093-1.048,2.673,2.673,0,0,0-.96.374.137.137,0,0,0-.057.175l.168.373a.138.138,0,0,0,.2.057,1.388,1.388,0,0,1,.563-.269c.171,0,.4.04.4.385,0,.364-.31.714-1.042,1.41l-.326.317a.146.146,0,0,0-.044.105v.306a.146.146,0,0,0,.146.146h1.97a.146.146,0,0,0,.146-.146v-.417a.146.146,0,0,0-.146-.146Z" transform="translate(-580.183 -329.045)" fill="#fff"/>
            </g>
          </g>
          <path id="Path_106273" data-name="Path 106273" d="M442.417,577.275a6.771,6.771,0,0,1-.977,1.573H422.851a4.006,4.006,0,0,1-2.054-1.118,2.4,2.4,0,0,1-.535-2.2,1.733,1.733,0,0,1,1.794-1.227,4.608,4.608,0,0,1,1.283.547,1.438,1.438,0,0,0,1.34.079c.617-.378.511-1.282.42-2a5.448,5.448,0,0,1,.339-2.9,3.248,3.248,0,0,1,2.149-1.88,2.372,2.372,0,0,1,.693-.051,2.33,2.33,0,0,1,.268.033,2.2,2.2,0,0,1,1.581,1.082,10.585,10.585,0,0,1,.434,1.238,1.407,1.407,0,0,0,.862.926c.7.181,1.291-.484,1.733-1.05a9.63,9.63,0,0,1,6.029-3.951c1.1-.142,2.43.14,2.879,1.155a3.015,3.015,0,0,1-.385,2.513,16.891,16.891,0,0,1-2.109,3.177c-.3.359-.636.851-.387,1.249a.875.875,0,0,0,.979.246,6.118,6.118,0,0,1,1.032-.321,1.48,1.48,0,0,1,1.441,1.035,2.426,2.426,0,0,1-.22,1.85Z" transform="translate(-399.909 -532.084)" fill="#90c979"/>
          <path id="Path_106274" data-name="Path 106274" d="M214.4,585.582c-.164.432-.632.649-.991.938H199.874A5.532,5.532,0,0,1,197.535,585a1.583,1.583,0,0,1,.2-2.261c.607-.362,1.43-.1,2.058-.43a1.754,1.754,0,0,0,.693-1.973,8.554,8.554,0,0,0-.99-2.017,2.864,2.864,0,0,1-.415-2.154,2.1,2.1,0,0,1,2.259-1.313,3.411,3.411,0,0,1,2.284,1.54,9.753,9.753,0,0,1,1.129,2.594,10.885,10.885,0,0,0,1.091,2.611,1.453,1.453,0,0,0,.909.736c.692.109,1.2-.634,1.433-1.294.081-.226.163-.468.264-.695.042-.1.087-.19.137-.278a1.356,1.356,0,0,1,.752-.687,1,1,0,0,1,.174-.039.975.975,0,0,1,.267,0,1.772,1.772,0,0,1,1.3,1.238,23.084,23.084,0,0,1,.311,2.323c.158.767.712,1.569,1.494,1.568.373,0,.755-.186,1.1-.058a.91.91,0,0,1,.411,1.175Z" transform="translate(-194.506 -539.912)" fill="#90c979"/>
          <g id="Group_121230" data-name="Group 121230" transform="translate(22.317 36.245)">
            <path id="Path_106275" data-name="Path 106275" d="M446.334,684.431c-.138-.1-.272.13-.135.231a14.6,14.6,0,0,1,2.962,2.932h.333A15.016,15.016,0,0,0,446.334,684.431Z" transform="translate(-446.141 -677.075)" fill="#acdb9a"/>
            <path id="Path_106276" data-name="Path 106276" d="M511.709,610.5c-.12-.263-.25-.521-.386-.776-.081-.152-.313-.017-.231.135a13.678,13.678,0,0,1,.607,1.284c.093.225.179.453.261.682a14.126,14.126,0,0,1,.622,6.924h.271a14.415,14.415,0,0,0-.885-7.655C511.885,610.894,511.8,610.7,511.709,610.5Z" transform="translate(-505.946 -608.23)" fill="#acdb9a"/>
            <path id="Path_106277" data-name="Path 106277" d="M584.735,591.618A22.059,22.059,0,0,0,577.69,602.1h.281a21.819,21.819,0,0,1,6.953-10.3C585.058,591.7,584.867,591.509,584.735,591.618Z" transform="translate(-567.301 -591.585)" fill="#acdb9a"/>
          </g>
        </g>
        <g id="Group_121235" data-name="Group 121235" transform="translate(2.241 1.331)">
          <g id="Group_121232" data-name="Group 121232" transform="translate(7.054 4.892)">
            <path id="Path_106278" data-name="Path 106278" d="M313.991,255.119a3.7,3.7,0,0,0,1.523,1.4,1.15,1.15,0,0,0,.293.087h0a.882.882,0,0,0,.622-.145c.456-.3,1.525-1.014,1.553-1.039l-.017-.4-1.913.8a3.831,3.831,0,0,1-1.2-1.269,1.849,1.849,0,0,1-.866.569Z" transform="translate(-309.071 -251.146)" fill="#ffa59d"/>
            <path id="Path_106279" data-name="Path 106279" d="M319.217,379.7s.48-2.831.582-4.929c0,0-.311-.9-1.549-.2,0,0,.457,3.647.43,5.516,0,0,.08.321.538-.383Z" transform="translate(-312.995 -361.443)" fill="#ffa59d"/>
            <path id="Path_106280" data-name="Path 106280" d="M260.729,376.762A27.154,27.154,0,0,0,262.3,371.4s.4-.723,1.346.3a19.009,19.009,0,0,1-2.33,5.172S260.72,377.273,260.729,376.762Z" transform="translate(-260.016 -358.536)" fill="#ffa59d"/>
            <path id="Path_106281" data-name="Path 106281" d="M283.793,214.413a1.321,1.321,0,0,0,.378.249,2.1,2.1,0,0,0,.968.257.991.991,0,0,0,.848-.464,1.551,1.551,0,0,0,.132-.721q.011-.6.023-1.207a1.615,1.615,0,0,0-.026-.4.55.55,0,0,0-.205-.335.429.429,0,0,0-.322-.085l-.062.009-.051-.065a.686.686,0,0,0-.682-.175.912.912,0,0,0-.539.539,3.152,3.152,0,0,0-.172.766,2.127,2.127,0,0,1-.22.75,1.278,1.278,0,0,0-.234.471.537.537,0,0,0,.163.41Z" transform="translate(-281.107 -211.451)" fill="#8a4632"/>
            <path id="Path_106282" data-name="Path 106282" d="M301.872,226.7a1.539,1.539,0,0,1,.082.437h0a.548.548,0,0,1,.015.133c0,.009,0,.018,0,.028a3.806,3.806,0,0,1,.008.465c0,.035-.006.069-.008.1v0c0,.03,0,.06,0,.091a3.649,3.649,0,0,1-.053.39.747.747,0,0,0,.473.206.872.872,0,0,0,.528-.155,3.411,3.411,0,0,1-.243-.644.007.007,0,0,0,0,0c-.008-.028-.015-.057-.021-.086s-.017-.077-.025-.116l0-.012c-.01-.051-.019-.1-.028-.155l-.007-.043c-.013-.089-.022-.178-.028-.269a1.982,1.982,0,0,0-.689-.371Z" transform="translate(-297.909 -225.496)" fill="#ffa799"/>
            <path id="Path_106283" data-name="Path 106283" d="M301.881,226.7a1.539,1.539,0,0,1,.082.437h0a.548.548,0,0,1,.015.133c0,.009,0,.018,0,.028a3.805,3.805,0,0,1,.011.465,1.343,1.343,0,0,1,.633-.25,3.447,3.447,0,0,1-.055-.441,1.982,1.982,0,0,0-.689-.371Z" transform="translate(-297.918 -225.496)" fill="#f17785"/>
            <path id="Path_106284" data-name="Path 106284" d="M300.351,217.676a.622.622,0,0,1-.595.231.787.787,0,0,1-.483-.261l-.024-.027c-.006-.024-.013-.047-.021-.07-.021-.062-.05-.122-.077-.182a.742.742,0,0,1-.083-.314.545.545,0,0,1,.169-.354,4.33,4.33,0,0,1,.533-.36.029.029,0,0,1,.039.012l.114.229h0a.832.832,0,0,0,.049.1c.092.165.219.31.306.477a.57.57,0,0,1,.073.52Z" transform="translate(-295.328 -215.949)" fill="#ffa59d"/>
            <path id="Path_106285" data-name="Path 106285" d="M297.756,227.806c-.017-.036-.043-.075-.084-.077a.1.1,0,0,0-.088.069.249.249,0,0,0,.334.328c-.048-.106-.114-.213-.163-.318Z" transform="translate(-293.942 -226.443)" fill="#ffa59d"/>
            <path id="Path_106286" data-name="Path 106286" d="M307.453,227.386a.845.845,0,0,0,.343-.133.033.033,0,0,1,.052.015c.111.4-.289.313-.406.17-.017-.021-.016-.047.012-.051Z" transform="translate(-303.03 -225.997)" fill="#fff"/>
            <path id="Path_106287" data-name="Path 106287" d="M309.14,225.006c0,.006.017.007.036,0a.129.129,0,0,0,.066-.06,0,0,0,0,1,0,0,.135.135,0,0,0,.014-.059.094.094,0,0,0-.015-.055c0-.006-.007-.007-.01-.006s0,0,0,0,0,.024-.008.043a.2.2,0,0,1-.015.047.012.012,0,0,1,0,.006.207.207,0,0,1-.043.058c-.012.012-.021.021-.018.026Z" transform="translate(-304.604 -223.767)" fill="#dd6478"/>
            <path id="Path_106288" data-name="Path 106288" d="M323.132,443.953h0a10.7,10.7,0,0,1-1.553-.175l-.052-.014a4.407,4.407,0,0,1,.013-.565,4.9,4.9,0,0,1,.3-1.329.624.624,0,0,0,.395.058,2.091,2.091,0,0,0,.014.7.951.951,0,0,0,.389.588,1.3,1.3,0,0,0,.378.183l.006,0,.007,0a.076.076,0,0,1,.02.012h0a1.78,1.78,0,0,1,.138.116.311.311,0,0,0,.086.061.694.694,0,0,0,.092.021C323.544,443.76,323.638,443.927,323.132,443.953Z" transform="translate(-316.007 -423.673)" fill="#ffa59d"/>
            <path id="Path_106289" data-name="Path 106289" d="M251.741,443.186c.028.182.058.364.088.547a.745.745,0,0,0,.124.36.693.693,0,0,0,.5.194,4.508,4.508,0,0,0,.73,0,.1.1,0,0,0,.032-.2h0c-.083-.032-.173-.043-.257-.072a.612.612,0,0,1-.242-.159.307.307,0,0,1-.026-.03.6.6,0,0,1-.13-.275.982.982,0,0,1,.145-.629,5.383,5.383,0,0,0,.316-.577,1.312,1.312,0,0,1-.587-.108.5.5,0,0,1-.291.276c-.035.016-.177.033-.208.052a.446.446,0,0,0-.145.131.683.683,0,0,0-.044.488Z" transform="translate(-251.718 -424.013)" fill="#ffa59d"/>
            <path id="Path_106290" data-name="Path 106290" d="M285.141,296.7h0a7.5,7.5,0,0,1-1.678.238,6.1,6.1,0,0,1-1.307-.091,3.927,3.927,0,0,1-1.535-.614h0a33.767,33.767,0,0,0,.525-3.337c.013-.129.028-.258.043-.387s.032-.246.052-.368h0a3.75,3.75,0,0,1,.911-2.417l.086-.077.257-.107.378.114.877.021.083.27.311.8v0a22.057,22.057,0,0,1,1,5.957Z" transform="translate(-278.337 -283.373)" fill="#364f8a"/>
            <path id="Path_106291" data-name="Path 106291" d="M316.011,246l.077.4.316,1.62c.036-.017.072-.035.105-.053a1.249,1.249,0,0,0,.655-.74,4.511,4.511,0,0,0-1.061-1.175.794.794,0,0,0-.089-.047h0l0,0Z" transform="translate(-310.932 -243.271)" fill="#fbc96a"/>
            <path id="Path_106292" data-name="Path 106292" d="M291.368,244.224a2.588,2.588,0,0,0,.2.34c.018.026.034.054.051.084a4.116,4.116,0,0,1,.3,1.666,3.794,3.794,0,0,0,.911.242,3.524,3.524,0,0,0,.674.011h0a10,10,0,0,0,.265-1.817v0a.982.982,0,0,0-.094-.959,1.707,1.707,0,0,0-.591-1.043.528.528,0,0,0-.044-.029l-.058-.032h0l0,0h0l-.006,0a1.271,1.271,0,0,0-.2-.046c-.247-.037-.453-.126-.7-.141h-.015a.656.656,0,0,0-.142.009h0l-.028,0a.947.947,0,0,0-.579.3c-.2.237-.3.662.058,1.423Z" transform="translate(-288.018 -240.04)" fill="#fbc96a"/>
            <path id="Path_106293" data-name="Path 106293" d="M251.731,447.008c.028.182.058.364.088.547a.745.745,0,0,0,.124.36.693.693,0,0,0,.5.194,4.509,4.509,0,0,0,.731,0,.1.1,0,0,0,.032-.2h0c-.083-.032-.173-.043-.257-.072a.611.611,0,0,1-.242-.159.307.307,0,0,1-.026-.03,1.193,1.193,0,0,0-.274-.021.336.336,0,0,1-.385-.215l-.006-.019a1.992,1.992,0,0,1-.092-1.006.446.446,0,0,0-.145.131.683.683,0,0,0-.044.488Z" transform="translate(-251.709 -427.836)" fill="#1b1b30"/>
            <path id="Path_106294" data-name="Path 106294" d="M323.132,459.454h0a10.7,10.7,0,0,1-1.553-.175l-.052-.014a4.406,4.406,0,0,1,.013-.565,1.1,1.1,0,0,0,.647.4.983.983,0,0,0,.827-.2l.006,0,.007,0a.075.075,0,0,1,.02.012h0a2.148,2.148,0,0,1,.317.2c.182.144.276.31-.23.337Z" transform="translate(-316.007 -439.173)" fill="#1b1b30"/>
            <path id="Path_106295" data-name="Path 106295" d="M300.72,242.527l.069.077c.095.107.584.646.87.7a.23.23,0,0,0,.221-.066.268.268,0,0,0,.066-.152.919.919,0,0,0-.03-.318l-.007-.028a.845.845,0,0,0-.1-.034h0l-.006,0a1.274,1.274,0,0,0-.2-.046c-.247-.037-.453-.126-.7-.141h-.015a.708.708,0,0,0-.142.009h0l-.027,0Z" transform="translate(-296.849 -240.062)" fill="#fff"/>
            <path id="Path_106296" data-name="Path 106296" d="M303.346,241.924a4.712,4.712,0,0,1-.394-.379l-.072-.078a.438.438,0,0,1,.088-.055c.34-.152.774.227.774.227a1.783,1.783,0,0,1,.047.2c.074.43-.184.3-.444.086Z" transform="translate(-298.839 -239.013)" fill="#ffa59d"/>
            <path id="Path_106297" data-name="Path 106297" d="M295.74,261.17a3.4,3.4,0,0,0,1.456,1.709l2.526.861.168-.3-2.216-1.258a3.836,3.836,0,0,1-.992-1.437,1.865,1.865,0,0,1-.942.43Z" transform="translate(-292.263 -256.847)" fill="#ffa59d"/>
            <path id="Path_106298" data-name="Path 106298" d="M321.853,256.914a.048.048,0,0,1-.034-.03.038.038,0,0,1,.006-.039,1.271,1.271,0,0,0,.018-1.237c-.022-.067-.043-.134-.064-.2a.038.038,0,0,1,.008-.038.05.05,0,0,1,.043-.016.029.029,0,0,1,.023.023c.021.069.043.137.064.205a1.335,1.335,0,0,1-.035,1.319.029.029,0,0,1-.029.013h0Z" transform="translate(-316.243 -251.887)" fill="#eaa83d"/>
            <path id="Path_106299" data-name="Path 106299" d="M306.46,257.574a.037.037,0,0,1-.021-.019,2.8,2.8,0,0,1-.231-.575.028.028,0,0,1,.006-.031.049.049,0,0,1,.047-.009.039.039,0,0,1,.025.028c.013.049.03.1.049.154l.026.076.035-.073a1.343,1.343,0,0,1,.077-.141.031.031,0,0,1,.039-.015.051.051,0,0,1,.03.028.035.035,0,0,1,0,.032,1.163,1.163,0,0,0-.122.259l-.007.017.006.013c.033.076.065.141.1.2a.03.03,0,0,1,0,.037.047.047,0,0,1-.049.015h0Z" transform="translate(-301.902 -253.346)" fill="#eaa83d"/>
            <path id="Path_106300" data-name="Path 106300" d="M293.974,262.864a.034.034,0,0,1-.019-.019,1.173,1.173,0,0,0-.16-.239,1.789,1.789,0,0,1-.108-.145,1.27,1.27,0,0,1-.151-.428.031.031,0,0,1,.009-.033.048.048,0,0,1,.046-.009.035.035,0,0,1,.023.028,1.151,1.151,0,0,0,.192.474l.051.064a1.231,1.231,0,0,1,.17.253.034.034,0,0,1-.006.041.044.044,0,0,1-.046.014h0Z" transform="translate(-290.232 -257.997)" fill="#eaa83d"/>
            <path id="Path_106301" data-name="Path 106301" d="M337.86,380.19Z" transform="translate(-331.056 -366.864)" fill="#e8f7f9"/>
            <path id="Path_106302" data-name="Path 106302" d="M283.738,366.78l-.073-1.15-.694,1.107S283.52,367.151,283.738,366.78Z" transform="translate(-280.501 -353.454)" fill="#ffa59d"/>
            <path id="Path_106303" data-name="Path 106303" d="M340.467,461.3a.076.076,0,0,1,.02.012l-.027-.014Z" transform="translate(-333.451 -441.568)" fill="#ffa59d"/>
            <path id="Path_106304" data-name="Path 106304" d="M344.51,290.9a1.7,1.7,0,0,1-.366.243.363.363,0,0,1-.228.051.408.408,0,0,1-.156-.081c-.075-.055-.285-.176-.36-.231l.13-.334a2.687,2.687,0,0,1,.629-.246.024.024,0,0,1,.03.025c-.011.088-.054.121-.234.218l.551.186a.106.106,0,0,1,.053.029c.035.042-.008.1-.048.139Z" transform="translate(-336.159 -284.071)" fill="#ffa59d"/>
          </g>
          <g id="Group_121233" data-name="Group 121233" transform="translate(0 20.542)">
            <path id="Path_106305" data-name="Path 106305" d="M256.2,489.616l-1.258-3.96c0-.011-.006-.022-.01-.033l-.806-2.534q-1.655-5.209-3.311-10.417l-.765-2.409c-.178-.563-1.069-.322-.888.245l1.81,5.7H244.9l-1.144-3.545-.773-2.4c-.182-.561-1.071-.321-.888.245q1.054,3.268,2.109,6.536,1.681,5.21,3.363,10.421l.773,2.4c.182.561,1.071.321.888-.245l-1.083-3.356h6.027l.379,1.192.765,2.409c.178.563,1.069.322.888-.245Zm-4.935-12.49,1.168,3.676h-6.053q-.594-1.837-1.186-3.676Zm-3.421,8.213-.729-2.259-.438-1.358h6.049q.575,1.809,1.15,3.617h-6.031Z" transform="translate(-235.777 -465.179)" fill="#2d3138"/>
            <path id="Path_106306" data-name="Path 106306" d="M176.537,409.643c-.07,0-.141,0-.212-.006h0c-.275,0-.549,0-.824,0h-.234c-.6,0-2.192-.017-2.794-.021h-.024c-.422,0-.843,0-1.262.021-.787.038-1.113.587-1.322,1.236q-1.884,5.862-3.766,11.722-1.4,4.351-2.8,8.7-.41,1.277-.821,2.553c-.022.067-.044.135-.066.2a.433.433,0,0,0,.449.565.479.479,0,0,0,.239-.062.447.447,0,0,0,.2-.257l.964-3q.454-1.407.905-2.816h6.1q-.454,1.41-.905,2.816l-.824,2.567c-.021.063-.04.126-.061.189a.433.433,0,0,0,.449.565.479.479,0,0,0,.239-.062.447.447,0,0,0,.2-.257l.964-3q1.082-3.367,2.164-6.733,2.021-6.29,4.043-12.582a4.837,4.837,0,0,0,.279-.967,1.273,1.273,0,0,0-1.284-1.378Zm-.915.9h.054c.272,0,.543.009.814.021.584.026.381.505.269.857l-.832,2.587h-6.1l.585-1.823c.137-.426.255-.866.414-1.286.07-.183.115-.292.361-.334a2.884,2.884,0,0,1,.626-.017c.145.007.29.017.426.017l.374,0c.672-.006,2.337-.024,3.01-.02Zm-2.568,12.4h-6.1l1.164-3.623h6.1l-1.159,3.607A.124.124,0,0,0,173.054,422.947Zm-4.642-4.543,1.116-3.474h6.1l-1.116,3.474Zm-2.943,9.162q.4-1.23.791-2.46l.4-1.237h6.1l-1.188,3.7h-6.1Z" transform="translate(-162.391 -409.621)" fill="#3f434c"/>
          </g>
          <g id="Group_121234" data-name="Group 121234" transform="translate(15.789)">
            <rect id="Rectangle_60119" data-name="Rectangle 60119" width="2.915" height="45.545" fill="#e8af52"/>
            <rect id="Rectangle_60120" data-name="Rectangle 60120" width="2.915" height="45.545" transform="translate(0.408)" fill="#fbc96a"/>
            <path id="Path_106307" data-name="Path 106307" d="M396.957,167.64v.387h-.442a.193.193,0,1,1,0-.387Z" transform="translate(-393.634 -166.208)" fill="#3f434c"/>
            <path id="Path_106308" data-name="Path 106308" d="M396.957,181.22v.387h-.442a.193.193,0,1,1,0-.387Z" transform="translate(-393.634 -178.716)" fill="#3f434c"/>
            <path id="Path_106309" data-name="Path 106309" d="M396.957,194.8v.387h-.442a.193.193,0,1,1,0-.387Z" transform="translate(-393.634 -191.223)" fill="#3f434c"/>
            <path id="Path_106310" data-name="Path 106310" d="M396.957,208.38v.387h-.442a.193.193,0,1,1,0-.387h.442Z" transform="translate(-393.634 -203.731)" fill="#3f434c"/>
            <path id="Path_106311" data-name="Path 106311" d="M392.784,221.96v.387h-.8a.193.193,0,1,1,0-.387Z" transform="translate(-389.462 -216.238)" fill="#3f434c"/>
            <path id="Path_106312" data-name="Path 106312" d="M396.957,235.54v.387h-.442a.193.193,0,1,1,0-.387Z" transform="translate(-393.634 -228.746)" fill="#3f434c"/>
            <path id="Path_106313" data-name="Path 106313" d="M396.957,249.12v.387h-.442a.193.193,0,1,1,0-.387Z" transform="translate(-393.634 -241.253)" fill="#3f434c"/>
            <path id="Path_106314" data-name="Path 106314" d="M396.957,262.7v.387h-.442a.193.193,0,1,1,0-.387Z" transform="translate(-393.634 -253.761)" fill="#3f434c"/>
            <path id="Path_106315" data-name="Path 106315" d="M396.957,276.28v.387h-.442a.193.193,0,1,1,0-.387Z" transform="translate(-393.634 -266.268)" fill="#3f434c"/>
            <path id="Path_106316" data-name="Path 106316" d="M392.784,289.85v.387h-.8a.193.193,0,1,1,0-.387Z" transform="translate(-389.462 -278.767)" fill="#3f434c"/>
            <path id="Path_106317" data-name="Path 106317" d="M396.957,303.43v.387h-.442a.193.193,0,1,1,0-.387Z" transform="translate(-393.634 -291.274)" fill="#3f434c"/>
            <path id="Path_106318" data-name="Path 106318" d="M396.957,317.01v.387h-.442a.193.193,0,1,1,0-.387Z" transform="translate(-393.634 -303.782)" fill="#3f434c"/>
            <path id="Path_106319" data-name="Path 106319" d="M396.957,330.59v.387h-.442a.193.193,0,1,1,0-.387Z" transform="translate(-393.634 -316.289)" fill="#3f434c"/>
            <path id="Path_106320" data-name="Path 106320" d="M396.957,344.17v.387h-.442a.193.193,0,1,1,0-.387Z" transform="translate(-393.634 -328.797)" fill="#3f434c"/>
            <path id="Path_106321" data-name="Path 106321" d="M392.784,357.75v.387h-.8a.193.193,0,1,1,0-.387Z" transform="translate(-389.462 -341.304)" fill="#3f434c"/>
            <path id="Path_106322" data-name="Path 106322" d="M396.957,371.33v.387h-.442a.193.193,0,1,1,0-.387Z" transform="translate(-393.634 -353.812)" fill="#3f434c"/>
            <path id="Path_106323" data-name="Path 106323" d="M396.957,384.91v.387h-.442a.193.193,0,1,1,0-.387Z" transform="translate(-393.634 -366.319)" fill="#3f434c"/>
            <path id="Path_106324" data-name="Path 106324" d="M396.957,398.48v.387h-.442a.193.193,0,1,1,0-.387Z" transform="translate(-393.634 -378.818)" fill="#3f434c"/>
            <path id="Path_106325" data-name="Path 106325" d="M396.957,412.06v.387h-.442a.193.193,0,1,1,0-.387Z" transform="translate(-393.634 -391.325)" fill="#3f434c"/>
            <path id="Path_106326" data-name="Path 106326" d="M392.784,425.64v.387h-.8a.193.193,0,1,1,0-.387Z" transform="translate(-389.462 -403.833)" fill="#3f434c"/>
            <path id="Path_106327" data-name="Path 106327" d="M396.957,439.22v.387h-.442a.193.193,0,1,1,0-.387Z" transform="translate(-393.634 -416.34)" fill="#3f434c"/>
            <path id="Path_106328" data-name="Path 106328" d="M396.957,452.8v.387h-.442a.193.193,0,1,1,0-.387Z" transform="translate(-393.634 -428.848)" fill="#3f434c"/>
            <path id="Path_106329" data-name="Path 106329" d="M396.957,466.38v.387h-.442a.193.193,0,1,1,0-.387Z" transform="translate(-393.634 -441.355)" fill="#3f434c"/>
            <path id="Path_106330" data-name="Path 106330" d="M396.957,479.96v.387h-.442a.193.193,0,1,1,0-.387Z" transform="translate(-393.634 -453.863)" fill="#3f434c"/>
            <path id="Path_106331" data-name="Path 106331" d="M392.784,493.54v.387h-.8a.194.194,0,1,1,0-.387Z" transform="translate(-389.462 -466.37)" fill="#3f434c"/>
            <path id="Path_106332" data-name="Path 106332" d="M396.957,507.11v.387h-.442a.193.193,0,1,1,0-.387Z" transform="translate(-393.634 -478.868)" fill="#3f434c"/>
            <path id="Path_106333" data-name="Path 106333" d="M396.957,520.69v.387h-.442a.193.193,0,1,1,0-.387Z" transform="translate(-393.634 -491.376)" fill="#3f434c"/>
            <path id="Path_106334" data-name="Path 106334" d="M396.957,534.27v.387h-.442a.193.193,0,1,1,0-.387Z" transform="translate(-393.634 -503.883)" fill="#3f434c"/>
            <path id="Path_106335" data-name="Path 106335" d="M396.957,547.85v.387h-.442a.193.193,0,1,1,0-.387Z" transform="translate(-393.634 -516.391)" fill="#3f434c"/>
            <path id="Path_106336" data-name="Path 106336" d="M392.784,561.43v.387h-.8a.193.193,0,1,1,0-.387Z" transform="translate(-389.462 -528.898)" fill="#3f434c"/>
            <path id="Path_106337" data-name="Path 106337" d="M396.957,575.01v.387h-.442a.193.193,0,1,1,0-.387Z" transform="translate(-393.634 -541.406)" fill="#3f434c"/>
            <path id="Path_106338" data-name="Path 106338" d="M396.957,588.59v.387h-.442a.194.194,0,1,1,0-.387Z" transform="translate(-393.634 -553.914)" fill="#3f434c"/>
            <path id="Path_106339" data-name="Path 106339" d="M396.957,602.17v.387h-.442a.193.193,0,1,1,0-.387Z" transform="translate(-393.634 -566.421)" fill="#3f434c"/>
            <path id="Path_106340" data-name="Path 106340" d="M396.957,615.75v.387h-.442a.193.193,0,1,1,0-.387Z" transform="translate(-393.634 -578.928)" fill="#3f434c"/>
            <path id="Path_106341" data-name="Path 106341" d="M392.784,629.32v.387h-.8a.193.193,0,1,1,0-.387Z" transform="translate(-389.462 -591.427)" fill="#3f434c"/>
            <path id="Path_106342" data-name="Path 106342" d="M396.957,642.9v.387h-.442a.193.193,0,1,1,0-.387Z" transform="translate(-393.634 -603.934)" fill="#3f434c"/>
            <path id="Path_106343" data-name="Path 106343" d="M396.957,656.48v.387h-.442a.193.193,0,1,1,0-.387Z" transform="translate(-393.634 -616.442)" fill="#3f434c"/>
            <path id="Path_106344" data-name="Path 106344" d="M396.957,670.06v.387h-.442a.193.193,0,1,1,0-.387Z" transform="translate(-393.634 -628.949)" fill="#3f434c"/>
            <path id="Path_106345" data-name="Path 106345" d="M396.957,683.64v.387h-.442a.193.193,0,1,1,0-.387Z" transform="translate(-393.634 -641.457)" fill="#3f434c"/>
            <path id="Path_106346" data-name="Path 106346" d="M392.784,697.22v.387h-.8a.193.193,0,1,1,0-.387Z" transform="translate(-389.462 -653.964)" fill="#3f434c"/>
          </g>
        </g>
        <g id="Group_121236" data-name="Group 121236" transform="translate(44.604 25.484)">
          <path id="Path_106347" data-name="Path 106347" d="M700.52,721.164a22.864,22.864,0,0,0,7.059,0,22.864,22.864,0,0,0-7.059,0Z" transform="translate(-700.384 -699.917)" fill="#bed0db"/>
          <path id="Path_106348" data-name="Path 106348" d="M755.958,703.539a1.48,1.48,0,0,1-.415,1.486.635.635,0,0,0-.132.141.165.165,0,0,0,0,.182.22.22,0,0,0,.129.063,1.747,1.747,0,0,0,.854-.021.552.552,0,0,0,.35-.227.617.617,0,0,0,.056-.286,5.592,5.592,0,0,0-.151-1.426A2.531,2.531,0,0,0,755.958,703.539Z" transform="translate(-750.915 -683.855)" fill="#16162b"/>
          <path id="Path_106349" data-name="Path 106349" d="M713.493,706.7l.08,1.447a8.869,8.869,0,0,1-2.234.018.091.091,0,0,1-.058-.148,1.186,1.186,0,0,1,.56-.271c.229-.081.259-.057.486-.144.309-.12.4-.505.445-.833A2.206,2.206,0,0,1,713.493,706.7Z" transform="translate(-710.276 -686.848)" fill="#16162b"/>
          <path id="Path_106350" data-name="Path 106350" d="M707.7,472.366a1.527,1.527,0,0,1-.306.206c-.055.029-.118.058-.2.094-.066.028-.138.054-.23.083a3.867,3.867,0,0,1-.542.132,5.43,5.43,0,0,1-.633.068,6.174,6.174,0,0,1-.707-.006c-.247-.015-.5-.044-.754-.085l-.028,0a.508.508,0,0,1-.232-.083.487.487,0,0,1-.138-.137.5.5,0,0,1-.06-.128l-.052-.16v0c0-.013-.015-.1-.03-.24a.021.021,0,0,0,0-.009c-.009-.089-.03-.333-.03-.335a12.911,12.911,0,0,1,.214-2.21l.418-.041c0,.091,0,.186.008.287l.007.148.011.158c0,.069.012.137.02.209,0,.037.008.073.011.108.027.214.06.445.109.68.009.05.022.114.038.175l.041.177c.011.038.021.075.03.113.02.074.04.152.064.227.107-.01.216-.021.331-.035q.22-.024.427-.05l.171-.02a.2.2,0,0,0,.029,0c.067-.006.132-.016.2-.023.129-.016.251-.031.368-.041.162-.018.324-.032.5-.041l.22-.007c.068,0,.131,0,.2,0a1.8,1.8,0,0,1,.341.045.776.776,0,0,1,.246.1l.005,0a.334.334,0,0,1,.141.183.318.318,0,0,1-.024.234.7.7,0,0,1-.176.224Z" transform="translate(-703.363 -468.39)" fill="#ffa59d"/>
          <path id="Path_106351" data-name="Path 106351" d="M699.061,459.575l.523.27c-.062-.223-.07-.283-.006-.362a.027.027,0,0,1,.044,0c.034.065.077.147.119.235a.981.981,0,0,1,0,.838h0c-.1-.018-.368-.093-.471-.111a.451.451,0,0,1-.19-.064.348.348,0,0,1-.032-.026l-.013-.009a.455.455,0,0,1-.145-.2c-.028-.075.009-.007-.027-.085a.312.312,0,0,1-.038-.118.81.81,0,0,0,0-.085c-.005-.025-.028-.049-.032-.076a.234.234,0,0,1,.029-.149.089.089,0,0,1,.03-.123c.065-.04.141.018.2.065Z" transform="translate(-698.798 -459.146)" fill="#ffa59d"/>
          <path id="Path_106352" data-name="Path 106352" d="M723.788,565.162a31.42,31.42,0,0,0,.271,3.134,1.911,1.911,0,0,0,.575.088,2.958,2.958,0,0,0,.7-.082c-.382-2.039-.1-5.52.152-8.656,0,.024.005.085.006.1a70.94,70.94,0,0,0,1.124,8.484,1.952,1.952,0,0,0,1.147-.141c-.144-1.169-.249-2.229-.325-3.185a64.745,64.745,0,0,1-.092-8c0-.055.009-.107.014-.158.022-.235.043-.418.062-.55l-1.914.04-1.245.027c-.008.05-.017.1-.026.152,0,.011,0,.023-.005.035-.059.336-.141.907-.141.907s-.133.917-.222,2.033a46.606,46.606,0,0,0-.082,5.767Z" transform="translate(-721.773 -548.234)" fill="#343256"/>
          <path id="Path_106353" data-name="Path 106353" d="M760.518,472.425q-.154.357-.309.714a.839.839,0,0,1-.312.431.423.423,0,0,1-.467-.048,1.625,1.625,0,0,0,.539-.619,1.8,1.8,0,0,1,.185-.347A.379.379,0,0,1,760.518,472.425Z" transform="translate(-754.642 -471.067)" fill="#86472f"/>
          <path id="Path_106354" data-name="Path 106354" d="M730.662,495.269a1.228,1.228,0,0,1-.905.913l-.419-.286c-.043.272-.085.6-.123.945-.054.466-.1.971-.143,1.434-.021.231-.039.453-.055.654-.013.167-.125,1.489-.134,1.622-2.019.039-3.306-.246-3.453-.566.287-1.115.919-4.908.919-4.908l-.905-.028a2.816,2.816,0,0,1,.2-1.361,5.951,5.951,0,0,1,1.486-.122c.088.006.133.013.133.013v0c.131-.05.276-.109.435-.181.181.082.346.1.525.181,0,0,.006,0,.009,0h0l.055.01c.034.007.082.019.143.036h0l0,0a.378.378,0,0,0,.147.007,4.228,4.228,0,0,1,.556.265.072.072,0,0,0,.011.006,4.514,4.514,0,0,1,1.347,1.148c.054.066.109.137.163.211Z" transform="translate(-723.327 -490.393)" fill="#4d7ac0"/>
          <path id="Path_106355" data-name="Path 106355" d="M749.122,481.519a2.63,2.63,0,0,0,.979.2c.03-.024.06-.047.091-.073-.006-.041-.013-.081-.016-.122a1.492,1.492,0,0,1,.013-.4l0-.009a1.609,1.609,0,0,1,.065-.25c.013-.039.028-.077.044-.114s.047-.1.073-.149a1.509,1.509,0,0,1,.116-.173c.017-.024.036-.047.055-.069l-.035-.009c-.056-.012-.113-.021-.171-.027a1.509,1.509,0,0,0-.348,0,.979.979,0,0,0-.6.285,2.225,2.225,0,0,1-.028.25c-.007.037-.014.073-.023.108s-.024.093-.038.139c0,.017-.011.032-.015.049-.013.036-.026.073-.041.11s-.042.1-.066.145-.037.074-.058.111Z" transform="translate(-745.146 -478.338)" fill="#ffa59d"/>
          <path id="Path_106356" data-name="Path 106356" d="M753.49,462.629a.553.553,0,0,1,.069-.859.514.514,0,0,1,.292.083C753.72,462.137,753.621,462.345,753.49,462.629Z" transform="translate(-749.013 -461.261)" fill="#683221"/>
          <path id="Path_106357" data-name="Path 106357" d="M750.7,481.411a1.632,1.632,0,0,0,1.1-.777l-.357-.163a.981.981,0,0,0-.6.285,2.211,2.211,0,0,1-.028.25c-.007.036-.014.073-.022.108s-.024.093-.038.139l-.015.048C750.728,481.337,750.714,481.374,750.7,481.411Z" transform="translate(-746.601 -478.485)" fill="#dd6478"/>
          <path id="Path_106358" data-name="Path 106358" d="M748.131,463.25a.282.282,0,0,0,0,.069.4.4,0,0,0,.018.081.565.565,0,0,0,.51.353,1,1,0,0,0,.711-.349,1.872,1.872,0,0,0,.516-1.359,2.077,2.077,0,0,0-1.143-.355,1.7,1.7,0,0,1-.239.9,1.508,1.508,0,0,1-.084.13,1.092,1.092,0,0,0-.292.535Z" transform="translate(-744.234 -461.187)" fill="#ffa59d"/>
          <path id="Path_106359" data-name="Path 106359" d="M752.735,457.14a.755.755,0,0,1-.018-.9c-.5-.024-1.242-.1-1.377-.535a.731.731,0,0,0,.476-.2.666.666,0,0,1,1.117.441.467.467,0,0,1,.327.139.349.349,0,0,1,.1.3.621.621,0,0,1-.185.3,4.7,4.7,0,0,1-.441.456Z" transform="translate(-747.19 -455.331)" fill="#86472f"/>
          <path id="Path_106360" data-name="Path 106360" d="M765.121,475.206a.111.111,0,0,1,.095-.111.145.145,0,0,1,.137.066.206.206,0,0,1,.027.154.374.374,0,0,1-.066.145.366.366,0,0,1-.18.149.192.192,0,0,1-.214-.061C765.015,475.446,765.131,475.345,765.121,475.206Z" transform="translate(-759.698 -473.533)" fill="#ffa59d"/>
          <path id="Path_106361" data-name="Path 106361" d="M765.34,496.42Z" transform="translate(-760.085 -493.175)" fill="url(#linear-gradient)"/>
          <path id="Path_106362" data-name="Path 106362" d="M747.966,492.968l-.058.06c-.028.028-.055.055-.08.079s-.058.058-.086.085c-.419.407-.716.591-.935.581a.307.307,0,0,1-.239-.126.993.993,0,0,1-.067-.685l.013-.068c.088.006.133.013.133.013.2-.079.389-.157.565-.237l.541.246a.021.021,0,0,1,.008,0h0l.055.01c.034.007.082.019.144.036h0l0,0h0Z" transform="translate(-742.706 -489.721)" fill="#fff"/>
          <path id="Path_106363" data-name="Path 106363" d="M749.208,492.351c.028-.026.055-.054.084-.082l.084-.085-.057-.01-.055-.025c-.165-.075-.329-.215-.494-.289-.16.072-.333.207-.509.279l-.057.023s-.362,1.515,1,.19Z" transform="translate(-744.263 -488.975)" fill="#ffa59d"/>
          <path id="Path_106364" data-name="Path 106364" d="M768.775,519.823c-.2-.15-.4-.3-.59-.464-.039-.032-.081.034-.043.066q.289.239.59.464C768.772,519.92,768.815,519.854,768.775,519.823Z" transform="translate(-762.652 -514.294)" fill="#3462a5"/>
          <path id="Path_106365" data-name="Path 106365" d="M733.552,510.929c-.135.52-.239,1.047-.342,1.575-.009.049.066.074.075.024.1-.528.207-1.054.342-1.575C733.64,510.9,733.565,510.88,733.552,510.929Z" transform="translate(-730.492 -506.513)" fill="#3462a5"/>
          <path id="Path_106366" data-name="Path 106366" d="M741.544,587.35c-.008-.085-.142-.086-.134,0q.036.384.072.767a2.232,2.232,0,0,1-.185-.348c-.033-.079-.163-.044-.13.036a2.449,2.449,0,0,0,.339.577q.033.352.066.7c.008.085.142.086.134,0Q741.625,588.218,741.544,587.35Z" transform="translate(-737.816 -576.865)" fill="#16162b"/>
          <path id="Path_106367" data-name="Path 106367" d="M764.7,555.13c-.021.232-.039.454-.054.655-.047-.411-.531-.2-.531-.2A.614.614,0,0,1,764.7,555.13Z" transform="translate(-758.952 -547.248)" fill="#3462a5"/>
          <path id="Path_106368" data-name="Path 106368" d="M762.384,520.529c.061.01.112-.062.159-.117a.433.433,0,0,1,.438-.156.607.607,0,0,0,.164.047,1.521,1.521,0,0,1,.168.015,4.484,4.484,0,0,0,1.575-.414c.776-.3,1.139-.655.8-1.275a6.864,6.864,0,0,0-.933-1.354c-.062-.072-.127-.141-.192-.206a1.227,1.227,0,0,1-.905.913c.058.055.118.111.176.169.114.108.226.223.339.341l.156.166.336.294c-.247.148-.679.453-1.415.983a.71.71,0,0,0-.621-.3c-.584.039-.38.869-.242.889Z" transform="translate(-757.225 -512.194)" fill="#ffa59d"/>
          <path id="Path_106369" data-name="Path 106369" d="M790.506,539.318a1.007,1.007,0,0,0-.338.209c-.037.035-.091-.024-.054-.058a1.057,1.057,0,0,1,.355-.221c.047-.017.084.052.037.07Z" transform="translate(-782.891 -532.618)" fill="#c35f6e"/>
          <path id="Path_106370" data-name="Path 106370" d="M752.3,476.76a.712.712,0,0,1-.371-.079.038.038,0,0,0-.055.03c-.048.43.352.314.453.1C752.339,476.787,752.332,476.757,752.3,476.76Z" transform="translate(-747.678 -474.991)" fill="#fff"/>
          <path id="Path_106371" data-name="Path 106371" d="M753.969,472.849c0,.006-.017.009-.039,0a.141.141,0,0,1-.073-.062,0,0,0,0,0,0,0,.147.147,0,0,1-.017-.063.094.094,0,0,1,.014-.06c0-.006.008-.008.011-.006a.005.005,0,0,1,0,0,.251.251,0,0,1,.009.046.209.209,0,0,0,.018.051s0,0,0,.006a.222.222,0,0,0,.049.061c.013.013.023.021.021.028Z" transform="translate(-749.491 -471.286)" fill="#dd6478"/>
        </g>
      </g>
    </g>
  </g>
</svg>
