<svg xmlns="http://www.w3.org/2000/svg" width="47.188" height="47.302" viewBox="0 0 47.188 47.302">
  <g id="_7718867_copy" data-name="7718867 copy" transform="translate(-31.71 -36.31)">
    <g id="Background_Complete" data-name="Background Complete" transform="translate(33.553 36.31)">
      <g id="Group_121193" data-name="Group 121193" transform="translate(0.018 28.644)">
        <path id="Path_106194" data-name="Path 106194" d="M51.37,305.238l.642.3a.6.6,0,0,1,.82-.283.575.575,0,0,1,.346.57.637.637,0,0,1-.293.5.77.77,0,0,1-.906-.1l-.447.942.635.3.162-.343a1.372,1.372,0,0,0,1.465-.788,1.276,1.276,0,0,0-.653-1.726,1.219,1.219,0,0,0-1.771.628Z" transform="translate(-51.13 -304.444)" fill="#e0e0e0"/>
        <rect id="Rectangle_60104" data-name="Rectangle 60104" width="0.713" height="0.666" transform="matrix(0.903, 0.429, -0.429, 0.903, 0.285, 2.966)" fill="#e0e0e0"/>
      </g>
      <g id="Group_121194" data-name="Group 121194" transform="translate(6.49 38.809)">
        <path id="Path_106195" data-name="Path 106195" d="M109.71,400.643l.725.205a.64.64,0,0,1,.808-.441.611.611,0,0,1,.463.535.674.674,0,0,1-.218.573.818.818,0,0,1-.966.051l-.3,1.064.717.2.109-.387a1.454,1.454,0,0,0,1.392-1.083,1.353,1.353,0,0,0-.988-1.69A1.292,1.292,0,0,0,109.71,400.643Z" transform="translate(-109.71 -399.601)" fill="#e0e0e0"/>
        <rect id="Rectangle_60105" data-name="Rectangle 60105" width="0.756" height="0.706" transform="translate(0.432 3.306) rotate(15.79)" fill="#e0e0e0"/>
      </g>
      <g id="Group_121197" data-name="Group 121197" transform="translate(36.891 12.87)">
        <g id="Group_121195" data-name="Group 121195">
          <path id="Path_106196" data-name="Path 106196" d="M394.3,161.094l.694.013a2.462,2.462,0,1,0-.46-.754h0Z" transform="translate(-394.3 -156.982)" fill="#fff"/>
          <path id="Path_106197" data-name="Path 106197" d="M394.3,160.9s0-.015.013-.046.023-.081.042-.141c.04-.129.1-.316.169-.559a.012.012,0,0,1,.015-.007s0,0,.006,0h0l-.02.012a2.483,2.483,0,0,1,.59-2.682,2.485,2.485,0,0,1,4.2,1.6,2.536,2.536,0,0,1-.179,1.137,2.485,2.485,0,0,1-3.156,1.378,2.454,2.454,0,0,1-.99-.68l.009,0-.52-.016-.131-.005a.2.2,0,0,1-.043,0h.182l.513,0a.01.01,0,0,1,.009,0,2.449,2.449,0,0,0,3.472.165,2.437,2.437,0,0,0,.608-.867,2.488,2.488,0,0,0,.174-1.112,2.407,2.407,0,0,0-.372-1.118,2.444,2.444,0,0,0-4.478,1,2.467,2.467,0,0,0,.139,1.185.011.011,0,0,1-.006.015.012.012,0,0,1-.014,0h0l.021,0-.179.547-.048.143c-.011.032-.018.05-.018.05Z" transform="translate(-394.3 -156.783)" fill="#e0e0e0"/>
        </g>
        <g id="Group_121196" data-name="Group 121196" transform="translate(1.714 1.335)">
          <path id="Path_106198" data-name="Path 106198" d="M410.35,170.093h.435a.369.369,0,0,1,.379-.372.352.352,0,0,1,.341.224.392.392,0,0,1-.031.353.473.473,0,0,1-.529.181v.639h.431v-.232a.84.84,0,0,0,.6-.821.763.763,0,0,0-.815-.784.746.746,0,0,0-.815.813Z" transform="translate(-410.349 -169.28)" fill="#e0e0e0"/>
          <rect id="Rectangle_60106" data-name="Rectangle 60106" width="0.437" height="0.408" transform="translate(0.596 2.004)" fill="#e0e0e0"/>
        </g>
      </g>
      <g id="Group_121198" data-name="Group 121198" transform="translate(9.792 0)">
        <path id="Path_106199" data-name="Path 106199" d="M140.62,40.122h2.04a1.733,1.733,0,0,1,1.781-1.743,1.652,1.652,0,0,1,1.6,1.053,1.827,1.827,0,0,1-.145,1.653,2.214,2.214,0,0,1-2.479.847v2.994h2.018V43.837a3.94,3.94,0,0,0,2.83-3.85,3.667,3.667,0,0,0-3.821-3.677,3.5,3.5,0,0,0-3.821,3.812Z" transform="translate(-140.62 -36.31)" fill="#e0e0e0"/>
        <rect id="Rectangle_60107" data-name="Rectangle 60107" width="2.048" height="1.912" transform="translate(2.789 9.392)" fill="#e0e0e0"/>
      </g>
      <g id="Group_121199" data-name="Group 121199" transform="translate(1.816 4.011)">
        <path id="Path_106200" data-name="Path 106200" d="M72.123,98.479l-1.6-.428a1.412,1.412,0,0,1-1.767,1,1.343,1.343,0,0,1-1.036-1.164,1.488,1.488,0,0,1,.461-1.269A1.8,1.8,0,0,1,70.3,96.47l.629-2.355-1.587-.424-.229.856a3.207,3.207,0,0,0-3.034,2.433,2.984,2.984,0,0,0,2.233,3.694,2.85,2.85,0,0,0,3.806-2.2Z" transform="translate(-65.962 -91.571)" fill="#ebebeb"/>
        <rect id="Rectangle_60108" data-name="Rectangle 60108" width="1.666" height="1.556" transform="translate(5.139 1.934) rotate(-165.05)" fill="#ebebeb"/>
      </g>
      <g id="Group_121200" data-name="Group 121200" transform="translate(38.912 26.698)">
        <path id="Path_106201" data-name="Path 106201" d="M413.22,288.47l1.334.144a1.141,1.141,0,0,1,1.287-1.015,1.086,1.086,0,0,1,.971.8,1.2,1.2,0,0,1-.212,1.07,1.456,1.456,0,0,1-1.68.379l-.212,1.957,1.319.142.077-.711a2.591,2.591,0,0,0,2.122-2.317,2.411,2.411,0,0,0-2.239-2.673,2.3,2.3,0,0,0-2.767,2.222Z" transform="translate(-413.22 -286.228)" fill="#ebebeb"/>
        <rect id="Rectangle_60109" data-name="Rectangle 60109" width="1.346" height="1.257" transform="translate(1.433 6.084) rotate(6.15)" fill="#ebebeb"/>
      </g>
      <g id="Group_121201" data-name="Group 121201" transform="translate(0 34.027)">
        <path id="Path_106202" data-name="Path 106202" d="M48.988,357.751l1.4-.151a1.2,1.2,0,0,1,1.094-1.33,1.14,1.14,0,0,1,1.176.606,1.264,1.264,0,0,1,.022,1.146,1.531,1.531,0,0,1-1.641.766l.222,2.057,1.387-.15-.08-.748a2.723,2.723,0,0,0,1.659-2.854,2.534,2.534,0,0,0-2.9-2.243,2.419,2.419,0,0,0-2.343,2.9Z" transform="translate(-48.96 -354.838)" fill="#f5f5f5"/>
        <rect id="Rectangle_60110" data-name="Rectangle 60110" width="1.415" height="1.321" transform="translate(2.354 6.541) rotate(-6.15)" fill="#f5f5f5"/>
      </g>
      <g id="Group_121202" data-name="Group 121202" transform="translate(19.375 2.282)">
        <path id="Path_106203" data-name="Path 106203" d="M230.48,60.742l1.233-.36a1.092,1.092,0,0,1,.768-1.368,1.038,1.038,0,0,1,1.152.355,1.15,1.15,0,0,1,.2,1.024,1.394,1.394,0,0,1-1.349.95l.528,1.81,1.219-.356-.192-.658a2.48,2.48,0,0,0,1.031-2.826,2.309,2.309,0,0,0-2.958-1.548,2.2,2.2,0,0,0-1.637,2.977Z" transform="translate(-230.333 -57.668)" fill="#f5f5f5"/>
        <rect id="Rectangle_60111" data-name="Rectangle 60111" width="1.289" height="1.204" transform="translate(2.817 5.957) rotate(-16.27)" fill="#f5f5f5"/>
      </g>
      <g id="Group_121203" data-name="Group 121203" transform="translate(41.424 20.778)">
        <path id="Path_106204" data-name="Path 106204" d="M436.85,233.294l1-.291a.882.882,0,0,1,.621-1.1.839.839,0,0,1,.93.286.929.929,0,0,1,.164.827,1.125,1.125,0,0,1-1.09.767l.426,1.461.985-.287-.155-.531a2,2,0,0,0,.832-2.282,1.864,1.864,0,0,0-2.389-1.25,1.779,1.779,0,0,0-1.321,2.4Z" transform="translate(-436.732 -230.812)" fill="#f5f5f5"/>
        <rect id="Rectangle_60112" data-name="Rectangle 60112" width="1.042" height="0.972" transform="translate(2.274 4.812) rotate(-16.27)" fill="#f5f5f5"/>
      </g>
    </g>
    <g id="Floor" transform="translate(31.71 83.557)">
      <path id="Path_106205" data-name="Path 106205" d="M78.348,478.618c0,.015-10.441.028-23.318.028s-23.32-.013-23.32-.028,10.439-.028,23.32-.028S78.348,478.6,78.348,478.618Z" transform="translate(-31.71 -478.59)" fill="#263238"/>
    </g>
    <g id="Speech_Bubble" data-name="Speech Bubble" transform="translate(63.436 39.851)">
      <g id="Group_121208" data-name="Group 121208" transform="translate(0 0)">
        <g id="Group_121206" data-name="Group 121206">
          <g id="Group_121204" data-name="Group 121204">
            <circle id="Ellipse_130795" data-name="Ellipse 130795" cx="4.18" cy="4.18" r="4.18" transform="translate(0 8.257) rotate(-81)" fill="#fff"/>
            <path id="Path_106206" data-name="Path 106206" d="M342.488,79.129s0-.022-.006-.067-.008-.112-.013-.2c0-.044-.005-.093-.009-.146s-.017-.111-.027-.174-.02-.131-.032-.2-.036-.147-.054-.228A4,4,0,0,0,341.884,77a4.148,4.148,0,0,0-1.059-1.18l-.179-.134c-.063-.042-.129-.079-.2-.12s-.13-.084-.2-.118l-.216-.1-.11-.052-.115-.042-.234-.085c-.079-.027-.162-.043-.245-.065a1.963,1.963,0,0,0-.252-.057,3.84,3.84,0,0,0-.526-.061c-.09,0-.179-.012-.271-.011l-.275.014c-.046,0-.093,0-.139.009l-.139.021c-.093.015-.187.026-.28.046a4.548,4.548,0,0,0-.554.162,4.322,4.322,0,0,0-.542.238c-.088.048-.172.1-.259.155-.043.027-.088.05-.128.081l-.122.092a4.741,4.741,0,0,0-.471.4,4.663,4.663,0,0,0-.407.482l-.1.128-.083.137-.083.138a.954.954,0,0,0-.077.142l-.141.293-.112.308a4.114,4.114,0,0,0,0,2.62l.112.308.141.293.035.073.042.069.083.138.083.137.1.128a3.8,3.8,0,0,0,.878.882l.122.092c.041.031.085.053.128.081.086.051.171.107.258.155a4.393,4.393,0,0,0,.542.238,4.2,4.2,0,0,0,.554.162c.093.019.187.03.28.046l.139.021c.046.006.093.005.139.009l.275.014c.091,0,.182-.007.271-.011a3.681,3.681,0,0,0,.526-.061,2.209,2.209,0,0,0,.252-.057c.082-.022.166-.04.245-.065l.234-.085.115-.042.11-.052.216-.1c.072-.033.136-.079.2-.118s.132-.078.2-.12l.179-.134a4.148,4.148,0,0,0,1.059-1.18,4,4,0,0,0,.463-1.109,2.1,2.1,0,0,0,.055-.228c.012-.073.022-.14.032-.2s.021-.121.027-.174.006-.1.009-.146q.008-.128.013-.2c0-.045.006-.067.006-.067V79.2c0,.047,0,.113-.007.2,0,.044,0,.093-.006.146s-.015.112-.023.175-.019.131-.03.205a2.113,2.113,0,0,1-.052.23,3.964,3.964,0,0,1-.457,1.12,4.156,4.156,0,0,1-1.062,1.2l-.182.136c-.064.042-.13.081-.2.122s-.131.085-.2.12l-.218.106-.111.053-.116.043-.236.087c-.08.027-.165.044-.248.067a2.253,2.253,0,0,1-.254.059,3.939,3.939,0,0,1-.531.063c-.091,0-.182.013-.275.011L338,83.322c-.047,0-.094,0-.141-.009l-.14-.021c-.094-.015-.189-.026-.283-.046a4.461,4.461,0,0,1-.561-.163,4.28,4.28,0,0,1-.549-.24c-.089-.048-.174-.1-.262-.156-.043-.028-.089-.051-.13-.082l-.124-.093a4.865,4.865,0,0,1-.478-.4,4.648,4.648,0,0,1-.412-.487l-.1-.129-.084-.139-.084-.139-.043-.069-.036-.074-.143-.3c-.038-.1-.076-.207-.114-.312a4.164,4.164,0,0,1,0-2.656c.038-.1.077-.208.114-.312s.1-.2.143-.3a1.152,1.152,0,0,1,.078-.143l.084-.139.084-.139.1-.129a4.777,4.777,0,0,1,.412-.487,4.861,4.861,0,0,1,.478-.4l.124-.093c.041-.031.087-.054.13-.082.088-.052.173-.108.262-.156a4.281,4.281,0,0,1,.549-.24,4.462,4.462,0,0,1,.561-.163c.094-.019.189-.03.283-.046l.14-.021c.047-.006.094-.005.141-.009l.278-.014c.092,0,.184.007.273.011a3.755,3.755,0,0,1,.531.063,2.042,2.042,0,0,1,.254.059c.083.022.167.041.248.067l.236.087.116.043.111.053.218.106a2.272,2.272,0,0,1,.2.12c.066.042.134.08.2.122l.182.136a4.156,4.156,0,0,1,1.062,1.2,3.964,3.964,0,0,1,.457,1.12,2.112,2.112,0,0,1,.052.23c.011.073.02.141.03.205s.019.122.023.175,0,.1.006.146c0,.087.005.152.008.2s0,.067,0,.067Z" transform="translate(-333.523 -74.345)" fill="#263238"/>
          </g>
          <g id="Group_121205" data-name="Group 121205" transform="translate(3.298 2.583)">
            <path id="Path_106207" data-name="Path 106207" d="M359.57,95.124h.794a.675.675,0,0,1,.693-.678.643.643,0,0,1,.623.41.714.714,0,0,1-.057.643.861.861,0,0,1-.965.33v1.165h.785V96.57a1.534,1.534,0,0,0,1.1-1.5,1.393,1.393,0,0,0-1.487-1.431,1.362,1.362,0,0,0-1.487,1.484Z" transform="translate(-359.57 -93.64)" fill="#ff725e"/>
            <rect id="Rectangle_60113" data-name="Rectangle 60113" width="0.797" height="0.745" transform="translate(1.085 3.657)" fill="#ff725e"/>
          </g>
        </g>
        <g id="Group_121207" data-name="Group 121207" transform="translate(2.133 9.03)">
          <circle id="Ellipse_130796" data-name="Ellipse 130796" cx="0.654" cy="0.654" r="0.654" transform="translate(0.029 0.023)" fill="#fff"/>
          <path id="Path_106208" data-name="Path 106208" d="M350.006,154.671c-.005,0,0-.059-.031-.157a.651.651,0,0,0-.239-.347.635.635,0,0,0-.6-.085.63.63,0,0,0,0,1.181.638.638,0,0,0,.6-.085.651.651,0,0,0,.239-.347c.027-.1.025-.157.031-.157s0,.014,0,.042a.541.541,0,0,1-.014.121.653.653,0,0,1-.236.373.674.674,0,0,1-.956-.134.674.674,0,0,1,0-.805.674.674,0,0,1,.956-.134.647.647,0,0,1,.236.373.535.535,0,0,1,.014.121Q350.01,154.671,350.006,154.671Z" transform="translate(-348.67 -153.994)" fill="#263238"/>
        </g>
      </g>
    </g>
    <g id="Character" transform="translate(37.047 48.235)">
      <g id="Group_121225" data-name="Group 121225" transform="translate(0 0)">
        <path id="Path_106209" data-name="Path 106209" d="M362.613,287.587a25.178,25.178,0,0,1,.687,11.387.907.907,0,0,0,.615,1.084.889.889,0,0,0,1.084-.615,27.2,27.2,0,0,0-.687-12.324.882.882,0,0,0-1.7.469Z" transform="translate(-332.565 -271.698)" fill="#263238"/>
        <path id="Path_106210" data-name="Path 106210" d="M203.428,159.347a5.254,5.254,0,0,0-3.526-3.574,5.1,5.1,0,0,0-.844-3.728,4.49,4.49,0,0,0-3.018-2.05,5.964,5.964,0,0,0-3.208.291,4.5,4.5,0,0,0-3.565-2.292,3.559,3.559,0,0,0-3.651,2.087,2.726,2.726,0,0,0-3.318-2.064,5.143,5.143,0,0,0-3.128,2.944l18.863,20.292a4.011,4.011,0,0,0,4.738-1.594,4.591,4.591,0,0,0-.354-5.253,5.663,5.663,0,0,0,1.013-5.058Z" transform="translate(-168.754 -147.944)" fill="#ff725e"/>
        <rect id="Rectangle_60114" data-name="Rectangle 60114" width="1.381" height="9.678" transform="translate(17.679 25.547) rotate(6.15)" fill="#263238"/>
        <rect id="Rectangle_60115" data-name="Rectangle 60115" width="1.381" height="9.678" transform="translate(22.602 35.169) rotate(173.85)" fill="#263238"/>
        <path id="Path_106211" data-name="Path 106211" d="M85.584,166.967a5.546,5.546,0,0,1,3.168-3.421,9.153,9.153,0,0,1,5.073-.367,3.988,3.988,0,0,1,1.941.767,1.655,1.655,0,0,1,.527,1.892,4.888,4.888,0,0,1,7.29,4.175,6.3,6.3,0,0,1,4.346,1.154,4.306,4.306,0,0,1,1.689,4.036,2.8,2.8,0,0,1,2.49,1.407,6.2,6.2,0,0,1,.777,2.877,4.552,4.552,0,0,1-.156,1.838,7.475,7.475,0,0,0-.315.846,4.431,4.431,0,0,0-.019,1.091,5.149,5.149,0,0,1-6.986,4.964,5.355,5.355,0,0,1-6.88.494,9.118,9.118,0,0,1-4.022.574,4.858,4.858,0,0,1-1.966-.691c-.542-.342-.851-1-1.361-1.316s-1.11-.038-1.7-.046a4.41,4.41,0,0,1-1.977-.5,4.7,4.7,0,0,1-2.335-3.008,1.313,1.313,0,0,0-.856-1.167,5.189,5.189,0,0,1-1.339-7.842,7.269,7.269,0,0,1-.059-4.8,5.389,5.389,0,0,1,2.665-2.957Z" transform="translate(-81.736 -161.383)" fill="#ff725e"/>
        <g id="Group_121209" data-name="Group 121209" transform="translate(0 15.784)" opacity="0.3">
          <path id="Path_106212" data-name="Path 106212" d="M115.671,299.824a4.077,4.077,0,0,1-3.618,1.84,5.128,5.128,0,0,1-6.725,3.218,5.355,5.355,0,0,1-6.88.494,9.117,9.117,0,0,1-4.022.574,4.859,4.859,0,0,1-1.966-.691c-.542-.342-.851-1-1.361-1.316s-1.11-.038-1.7-.046a4.41,4.41,0,0,1-1.977-.5,4.7,4.7,0,0,1-2.335-3.008,1.313,1.313,0,0,0-.856-1.167,5.262,5.262,0,0,1-2.483-3.525,5.163,5.163,0,0,0-.017,1.789,5.264,5.264,0,0,0,2.5,3.609,1.889,1.889,0,0,1,.582.427,1.929,1.929,0,0,1,.273.739,4.713,4.713,0,0,0,2.335,3.008,4.4,4.4,0,0,0,1.977.5c.588.007,1.176-.273,1.7.046s.82.974,1.361,1.316a4.858,4.858,0,0,0,1.966.691,9.116,9.116,0,0,0,4.022-.574,5.355,5.355,0,0,0,6.88-.494,5.128,5.128,0,0,0,6.725-3.218,4.079,4.079,0,0,0,3.618-1.84,4.558,4.558,0,0,0,.568-3.3,4.19,4.19,0,0,1-.568,1.429Z" transform="translate(-81.666 -295.7)"/>
        </g>
        <path id="Path_106213" data-name="Path 106213" d="M137.04,289.806s-.016-.019-.042-.057-.061-.1-.114-.167a3.671,3.671,0,0,0-.489-.557,3.789,3.789,0,0,0-.9-.625,3.549,3.549,0,0,0-2.611-.244,3.8,3.8,0,0,0-1.581.9c-.065.059-.109.111-.143.143a.307.307,0,0,1-.052.048.4.4,0,0,1,.044-.056c.031-.034.073-.09.136-.151a3.386,3.386,0,0,1,.577-.473,3.731,3.731,0,0,1,1.005-.465,3.645,3.645,0,0,1,3.55.889,3.435,3.435,0,0,1,.48.573c.051.072.081.134.106.173a.385.385,0,0,1,.033.063Z" transform="translate(-125.828 -273.003)" fill="#263238"/>
        <path id="Path_106214" data-name="Path 106214" d="M200.54,329.958v-.037c0-.028,0-.064.007-.111s.009-.11.014-.181.025-.153.04-.244a4.352,4.352,0,0,1,.177-.654,4.546,4.546,0,0,1,2.06-2.41,3.991,3.991,0,0,1,1.305-.439,4.528,4.528,0,0,1,1.478.02,4.427,4.427,0,0,1,2.475,1.351,3.773,3.773,0,0,1,.979,2.088,3.07,3.07,0,0,1-.218,1.546,2.161,2.161,0,0,1-.284.5.372.372,0,0,1,.018-.033c.015-.023.033-.056.058-.1a3.021,3.021,0,0,0,.387-1.914,3.756,3.756,0,0,0-.977-2.059,4.4,4.4,0,0,0-2.446-1.331,4.448,4.448,0,0,0-1.46-.021,3.948,3.948,0,0,0-1.289.431,4.552,4.552,0,0,0-2.055,2.376,4.628,4.628,0,0,0-.185.647c-.016.091-.031.171-.044.241l-.019.179-.013.11A.18.18,0,0,1,200.54,329.958Z" transform="translate(-187.841 -306.829)" fill="#263238"/>
        <path id="Path_106215" data-name="Path 106215" d="M301.592,354.526a.345.345,0,0,1-.046.026c-.032.014-.077.04-.139.062a2.222,2.222,0,0,1-.543.137,2.453,2.453,0,0,1-.829-.037,2.3,2.3,0,0,1-1.579-1.2,2.426,2.426,0,0,1-.261-.787,2.221,2.221,0,0,1-.016-.559,1.307,1.307,0,0,1,.022-.151.16.16,0,0,1,.013-.051,3.033,3.033,0,0,0,.02.754,2.513,2.513,0,0,0,.267.77,2.292,2.292,0,0,0,1.546,1.17,2.466,2.466,0,0,0,.813.048,2.962,2.962,0,0,0,.732-.186Z" transform="translate(-275.041 -330.174)" fill="#263238"/>
        <path id="Path_106216" data-name="Path 106216" d="M178.35,157.823a1.382,1.382,0,0,1,.016-.138,3.294,3.294,0,0,1,.081-.369,4.541,4.541,0,0,1,.181-.531,5,5,0,0,1,.309-.613,5.049,5.049,0,0,1,.4-.561,4.485,4.485,0,0,1,.383-.409,3.317,3.317,0,0,1,.287-.245.8.8,0,0,1,.114-.079c.006.009-.15.128-.374.351a4.986,4.986,0,0,0-.761.969,5.714,5.714,0,0,0-.31.6,5.062,5.062,0,0,0-.19.521c-.092.3-.125.5-.135.5Z" transform="translate(-168.022 -154.138)" fill="#263238"/>
        <path id="Path_106217" data-name="Path 106217" d="M111.921,196.542c0,.011-.192-.044-.505-.077a3.611,3.611,0,0,0-.552-.015,3.686,3.686,0,0,0-1.31.309,3.669,3.669,0,0,0-.487.261c-.266.17-.41.3-.418.295a.629.629,0,0,1,.1-.1,1.285,1.285,0,0,1,.124-.1c.05-.038.106-.084.173-.127a3.387,3.387,0,0,1,.488-.275,3.508,3.508,0,0,1,1.328-.314,3.437,3.437,0,0,1,.559.027c.079.007.15.025.212.036a1.344,1.344,0,0,1,.158.037.759.759,0,0,1,.131.043Z" transform="translate(-105.767 -191.221)" fill="#263238"/>
        <path id="Path_106218" data-name="Path 106218" d="M99.067,272.707a.356.356,0,0,1-.042.038c-.029.022-.071.061-.128.1a2.944,2.944,0,0,1-.52.3,3.192,3.192,0,0,1-3.65-.726,2.9,2.9,0,0,1-.365-.475c-.038-.059-.062-.109-.08-.142a.2.2,0,0,1-.024-.051s.044.065.123.182a3.411,3.411,0,0,0,.376.46,3.331,3.331,0,0,0,.69.543,3.129,3.129,0,0,0,2.071.411,3.368,3.368,0,0,0,1.368-.518c.118-.078.179-.125.183-.121Z" transform="translate(-92.912 -258.524)" fill="#263238"/>
        <path id="Path_106219" data-name="Path 106219" d="M111.619,327.57c.01,0-.074.19-.161.505a4.548,4.548,0,0,0-.116.562,4.812,4.812,0,0,0-.041.7,4.749,4.749,0,0,0,.072.7,4.308,4.308,0,0,0,.141.555c.1.311.193.492.184.5a.709.709,0,0,1-.069-.125,1.674,1.674,0,0,1-.07-.153c-.025-.061-.056-.128-.081-.207a3.991,3.991,0,0,1-.154-.559,4.422,4.422,0,0,1-.077-.706,4.475,4.475,0,0,1,.046-.708,3.886,3.886,0,0,1,.129-.565c.021-.08.05-.148.072-.21s.044-.113.063-.156a.693.693,0,0,1,.064-.128Z" transform="translate(-108.085 -308.381)" fill="#263238"/>
        <path id="Path_106220" data-name="Path 106220" d="M169.515,344.33s-.017-.018-.046-.056-.07-.093-.122-.168a6.9,6.9,0,0,1-.4-.648,5.624,5.624,0,0,1-.439-1.042,5.27,5.27,0,0,1-.148-.653,4.738,4.738,0,0,1-.05-.717,5.8,5.8,0,0,1,.559-2.437,5.5,5.5,0,0,1,.373-.664c.048-.076.092-.131.119-.17a.368.368,0,0,1,.045-.057.392.392,0,0,1-.036.063c-.025.041-.064.1-.11.175a6.3,6.3,0,0,0-.356.669,5.954,5.954,0,0,0-.539,2.421,4.927,4.927,0,0,0,.049.708,5.369,5.369,0,0,0,.143.646,5.784,5.784,0,0,0,.425,1.038c.148.283.285.5.382.655l.112.173a.292.292,0,0,1,.036.062Z" transform="translate(-159.054 -317.447)" fill="#263238"/>
        <path id="Path_106221" data-name="Path 106221" d="M150.491,341.561a.384.384,0,0,1-.12.044.82.82,0,0,1-.347-.009,1.869,1.869,0,0,1-.479-.189,2.66,2.66,0,0,1-.515-.361,2.727,2.727,0,0,1-.673-.917,2.407,2.407,0,0,1-.118-.326.571.571,0,0,1-.026-.124c.011,0,.053.173.178.433a2.918,2.918,0,0,0,.675.891,2.752,2.752,0,0,0,.5.358,1.971,1.971,0,0,0,.464.2.9.9,0,0,0,.458,0Z" transform="translate(-141.105 -319.197)" fill="#263238"/>
        <path id="Path_106222" data-name="Path 106222" d="M227.466,387.731a.972.972,0,0,1-.1-.05c-.062-.035-.147-.091-.251-.165a3.831,3.831,0,0,1-.72-.679,3.891,3.891,0,0,1-.52-.843c-.051-.115-.089-.212-.111-.279a.466.466,0,0,1-.03-.106c.009,0,.064.143.176.369a4.453,4.453,0,0,0,.528.824,4.4,4.4,0,0,0,.7.683c.2.155.33.238.325.247Z" transform="translate(-210.345 -360.221)" fill="#263238"/>
        <path id="Path_106223" data-name="Path 106223" d="M302.9,374.3a.916.916,0,0,1,.011.113c0,.073.006.178.005.309a4.665,4.665,0,0,1-.1,1.015,3.063,3.063,0,0,1-.392.942,2.714,2.714,0,0,1-.179.252c-.046.057-.073.088-.076.084s.09-.135.221-.357a3.374,3.374,0,0,0,.371-.934,5.661,5.661,0,0,0,.119-1,3.993,3.993,0,0,1,.022-.421Z" transform="translate(-278.61 -350.119)" fill="#263238"/>
        <path id="Path_106224" data-name="Path 106224" d="M351.38,322.6a.411.411,0,0,1,.05.023c.032.018.08.043.138.079a2.533,2.533,0,0,1,.454.371,2.89,2.89,0,0,1,.5.711,3.953,3.953,0,0,1,.2.475,5.25,5.25,0,0,1,.143.533,8.184,8.184,0,0,1,.13,1.924c-.009.247-.02.445-.03.583,0,.063-.009.115-.012.158a.294.294,0,0,1-.007.056.188.188,0,0,1,0-.056c0-.043,0-.1,0-.159,0-.146.007-.343.012-.583a8.883,8.883,0,0,0-.146-1.911,5.407,5.407,0,0,0-.141-.527,4.31,4.31,0,0,0-.191-.47,2.957,2.957,0,0,0-.482-.707,2.838,2.838,0,0,0-.437-.379,1.742,1.742,0,0,1-.176-.121Z" transform="translate(-322.567 -303.942)" fill="#263238"/>
        <path id="Path_106225" data-name="Path 106225" d="M339.69,310.011s.037-.036.11-.094.176-.142.3-.25a6.924,6.924,0,0,0,1.6-2.008c.078-.146.138-.266.176-.35a.769.769,0,0,1,.067-.128.818.818,0,0,1-.047.137c-.033.087-.088.21-.161.359a6.151,6.151,0,0,1-1.61,2.021c-.129.1-.237.186-.314.237a.732.732,0,0,1-.123.077Z" transform="translate(-312.126 -290.169)" fill="#263238"/>
        <path id="Path_106226" data-name="Path 106226" d="M324.791,197.11a.294.294,0,0,1,.023.041c.013.028.034.067.056.121a2.92,2.92,0,0,1,.153.466,3.282,3.282,0,0,1-.784,3.018,2.9,2.9,0,0,1-.361.332c-.045.036-.083.061-.108.078s-.038.026-.041.023a1.309,1.309,0,0,1,.135-.119,3.582,3.582,0,0,0,.345-.342,3.364,3.364,0,0,0,.774-2.983,3.619,3.619,0,0,0-.135-.467,1.785,1.785,0,0,1-.06-.169Z" transform="translate(-297.87 -191.858)" fill="#263238"/>
        <path id="Path_106227" data-name="Path 106227" d="M337.9,206.855c0,.01-.107.007-.273.032a2.019,2.019,0,0,0-1.153.592c-.117.122-.177.209-.186.2a.808.808,0,0,1,.157-.231,1.8,1.8,0,0,1,1.176-.6.845.845,0,0,1,.279.006Z" transform="translate(-309.086 -200.55)" fill="#263238"/>
        <path id="Path_106228" data-name="Path 106228" d="M359.079,263.894s.005-.027.02-.076.042-.12.066-.214a4.912,4.912,0,0,0,.162-.8,5.009,5.009,0,0,0,0-1.215,4.675,4.675,0,0,0-.78-2.1,5.257,5.257,0,0,0-.45-.56,4.732,4.732,0,0,0-.939-.769,4.47,4.47,0,0,0-.734-.366c-.09-.038-.162-.058-.21-.077a.467.467,0,0,1-.073-.029.375.375,0,0,1,.076.018c.049.016.123.032.215.067a4.058,4.058,0,0,1,.747.353,4.6,4.6,0,0,1,.956.767,5.022,5.022,0,0,1,.457.564,4.658,4.658,0,0,1,.786,2.123,4.882,4.882,0,0,1-.01,1.225,4.607,4.607,0,0,1-.181.807c-.028.094-.059.163-.076.211a.321.321,0,0,1-.031.072Z" transform="translate(-326.819 -245.963)" fill="#263238"/>
        <path id="Path_106229" data-name="Path 106229" d="M374.682,251.78a.884.884,0,0,1-.065.265,2.355,2.355,0,0,1-.307.584,2.25,2.25,0,0,1-.459.474.91.91,0,0,1-.233.143,3.5,3.5,0,0,0,.647-.648,3.866,3.866,0,0,0,.417-.817Z" transform="translate(-342.43 -240.688)" fill="#263238"/>
        <path id="Path_106230" data-name="Path 106230" d="M274.344,169.851a.871.871,0,0,1,.043.111,1.134,1.134,0,0,1,.038.135c.013.053.03.113.04.181a2.86,2.86,0,0,1,.048.48,3.09,3.09,0,0,1-.2,1.158,2.988,2.988,0,0,1-.207.436c-.032.061-.068.111-.1.157a1.087,1.087,0,0,1-.082.113.481.481,0,0,1-.078.09c-.009-.006.1-.14.223-.379a3.266,3.266,0,0,0,.193-.434,3.552,3.552,0,0,0,.15-.562,3.652,3.652,0,0,0,.049-.579,3.525,3.525,0,0,0-.035-.474c-.041-.268-.093-.429-.083-.433Z" transform="translate(-253.316 -167.51)" fill="#263238"/>
        <g id="Group_121210" data-name="Group 121210" transform="translate(6.109 17.124)" opacity="0.3">
          <path id="Path_106231" data-name="Path 106231" d="M153.913,312.517c.1-.238.125-.582-.111-.685a.54.54,0,0,0-.488.125c-.464.307-.6.51-1.059.808a1.359,1.359,0,0,1-1.165.281c-.393-.179-.4-.733-.629-1.1a.381.381,0,0,0-.319-.209.4.4,0,0,0-.343.28,2.418,2.418,0,0,0,.023.464,6.011,6.011,0,0,1-.021,1.03,2.4,2.4,0,0,0-.041.281c-.382-.027-.773-.031-1.117-.052a.281.281,0,0,0-.242.065.379.379,0,0,0-.068.2c-.017.124-.029.249-.036.374a9.937,9.937,0,0,1-5.04-.957,4.753,4.753,0,0,1-2.507-4.539s.009-.63-.894-.643c-1-.014-.982,1.094-.982,1.094a6.238,6.238,0,0,0,3.295,5.6,12.855,12.855,0,0,0,6.455,1.428.548.548,0,0,0,.167.143.787.787,0,0,0,.452.056,3.921,3.921,0,0,0,1.186-.31.989.989,0,0,0,.506.22,4.087,4.087,0,0,0,1.377.05c.31-.045.8-.231.894-.53a1.53,1.53,0,0,1,.074-.281l0-.005c.035-.038.069-.077.1-.117.02-.018.041-.036.06-.056a.932.932,0,0,0,.037-1.056c.033-.045.065-.091.094-.138l-.071.074a.736.736,0,0,0-.125-1.047c0-.006.01-.013.014-.02l-.016.017h0a3.291,3.291,0,0,0,.536-.838Z" transform="translate(-138.856 -308.239)"/>
        </g>
        <g id="Group_121213" data-name="Group 121213" transform="translate(6.112 16.602)">
          <path id="Path_106232" data-name="Path 106232" d="M140.766,304a4.753,4.753,0,0,0,2.507,4.539,10.564,10.564,0,0,0,5.45.953q.04.993.081,1.986a13.011,13.011,0,0,1-6.619-1.428,6.237,6.237,0,0,1-3.294-5.6s-.015-1.108.982-1.094c.9.013.894.643.894.643Z" transform="translate(-138.876 -303.359)" fill="#263238"/>
          <g id="Group_121212" data-name="Group 121212" transform="translate(9.426 3.498)">
            <g id="Group_121211" data-name="Group 121211">
              <path id="Path_106233" data-name="Path 106233" d="M244.915,336.2a.54.54,0,0,0-.488.125c-.464.307-.6.51-1.059.808a1.359,1.359,0,0,1-1.165.281c-.393-.179-.4-.733-.629-1.1a.381.381,0,0,0-.319-.209.4.4,0,0,0-.343.28,2.419,2.419,0,0,0,.023.464,6.012,6.012,0,0,1-.021,1.03A2.342,2.342,0,0,0,241,339.16a4.9,4.9,0,0,0,.429,1.237c.056.118-.12.027-.015.1a1.082,1.082,0,0,0,.637.334,4.087,4.087,0,0,0,1.377.05c.31-.045.8-.231.894-.53a1.528,1.528,0,0,1,.074-.281.815.815,0,0,1,.165-.179c.217-.212.267-.886.025-1.068a.747.747,0,0,0-.092-1.1,3.292,3.292,0,0,0,.536-.838c.1-.238.125-.582-.111-.685Z" transform="translate(-239.397 -336.104)" fill="#fff"/>
              <path id="Path_106234" data-name="Path 106234" d="M229.575,355.168c-.077.066-.13-.183-.224-.2a13.024,13.024,0,0,0-1.874-.151.281.281,0,0,0-.242.065.379.379,0,0,0-.068.2,5.375,5.375,0,0,0,.053,1.759,1.037,1.037,0,0,0,.4.739.787.787,0,0,0,.452.056,4.12,4.12,0,0,0,2.352-1.064l-.851-1.4Z" transform="translate(-227.118 -352.813)" fill="#fff"/>
            </g>
            <path id="Path_106235" data-name="Path 106235" d="M241.155,355.374a1.011,1.011,0,0,1-.068-.087,1.261,1.261,0,0,1-.068-.109,1.489,1.489,0,0,1-.079-.151,3.749,3.749,0,0,1-.293-.941,4.04,4.04,0,0,1-.06-.984c0-.063.01-.12.018-.17s.013-.093.021-.127a.393.393,0,0,1,.03-.106c.01,0-.021.155-.03.4a4.63,4.63,0,0,0,.076.972,4.307,4.307,0,0,0,.273.935c.1.23.188.358.179.363Z" transform="translate(-239.14 -350.927)" fill="#263238"/>
            <path id="Path_106236" data-name="Path 106236" d="M271.747,360.951c-.009-.014.129-.112.272-.262s.237-.291.251-.282a.754.754,0,0,1-.21.32.769.769,0,0,1-.312.223Z" transform="translate(-266.979 -357.81)" fill="#263238"/>
            <path id="Path_106237" data-name="Path 106237" d="M270.967,371.171c-.009-.014.129-.112.272-.262s.237-.291.251-.282a.755.755,0,0,1-.21.32.769.769,0,0,1-.312.223Z" transform="translate(-266.282 -366.939)" fill="#263238"/>
            <path id="Path_106238" data-name="Path 106238" d="M270.037,351.651c-.009-.014.129-.112.272-.262s.237-.291.251-.282a.755.755,0,0,1-.21.32.769.769,0,0,1-.312.223Z" transform="translate(-265.452 -349.504)" fill="#263238"/>
          </g>
        </g>
        <g id="Group_121214" data-name="Group 121214" transform="translate(11.902 6.828)">
          <path id="Path_106239" data-name="Path 106239" d="M196.839,254.85c-.033.247-.9.323-1.857.657-.968.315-1.7.779-1.876.6-.08-.085.012-.331.285-.623a3.425,3.425,0,0,1,2.844-.959C196.63,254.593,196.852,254.733,196.839,254.85Z" transform="translate(-193.079 -249.939)" fill="#263238"/>
          <path id="Path_106240" data-name="Path 106240" d="M285.165,212.79c-.187.191-.9-.027-1.758-.054-.859-.052-1.592.1-1.755-.11-.072-.1.047-.294.37-.472a2.829,2.829,0,0,1,1.437-.291,2.775,2.775,0,0,1,1.4.422c.3.207.4.411.313.5Z" transform="translate(-272.172 -211.859)" fill="#263238"/>
        </g>
        <g id="Group_121215" data-name="Group 121215" transform="translate(21.3 11.144)">
          <path id="Path_106241" data-name="Path 106241" d="M284.853,253.891a2.89,2.89,0,1,1-3.588,1.7A2.81,2.81,0,0,1,284.853,253.891Z" transform="translate(-281.056 -253.558)" fill="#fff"/>
          <path id="Path_106242" data-name="Path 106242" d="M286.959,252.464a2.5,2.5,0,1,1-3.444,1.326A2.616,2.616,0,0,1,286.959,252.464Z" transform="translate(-283.112 -252.26)" fill="#263238"/>
        </g>
        <g id="Group_121216" data-name="Group 121216" transform="translate(11.957 12.564)">
          <path id="Path_106243" data-name="Path 106243" d="M198.272,267.869a2.89,2.89,0,1,1-3.948.406,2.81,2.81,0,0,1,3.948-.406Z" transform="translate(-193.594 -267.057)" fill="#fff"/>
          <path id="Path_106244" data-name="Path 106244" d="M202.692,266.265a2.5,2.5,0,1,1-3.689.1A2.615,2.615,0,0,1,202.692,266.265Z" transform="translate(-197.923 -265.558)" fill="#263238"/>
        </g>
        <g id="Group_121218" data-name="Group 121218" transform="translate(19.199 17.324)">
          <g id="Group_121217" data-name="Group 121217" transform="translate(0.023 0.022)" opacity="0.3">
            <path id="Path_106245" data-name="Path 106245" d="M261.88,310.589c-.307.214-.28.512-.275.886a.716.716,0,0,0,.159.448.551.551,0,0,0,.451.231.9.9,0,0,0,.688-.534,3.413,3.413,0,0,0,.27-1.281,2.213,2.213,0,0,0-1.293.251Z" transform="translate(-261.603 -310.325)"/>
          </g>
          <path id="Path_106246" data-name="Path 106246" d="M262.714,311.432a.2.2,0,0,1-.018.04,1.105,1.105,0,0,1-.068.1,1.622,1.622,0,0,1-.329.318.665.665,0,0,1-.3.11.492.492,0,0,1-.354-.1.642.642,0,0,1-.218-.344,1.452,1.452,0,0,1-.031-.432,1.277,1.277,0,0,1,.078-.427.776.776,0,0,1,.251-.319,1.31,1.31,0,0,1,.633-.239,2.941,2.941,0,0,1,.455-.019.084.084,0,1,1,0,.021,3.707,3.707,0,0,0-.45.036,1.32,1.32,0,0,0-.608.241.732.732,0,0,0-.233.3,1.237,1.237,0,0,0-.074.409,1.437,1.437,0,0,0,.028.416.592.592,0,0,0,.2.318.442.442,0,0,0,.317.1.625.625,0,0,0,.284-.1,1.808,1.808,0,0,0,.333-.3c.069-.081.1-.132.1-.129Z" transform="translate(-261.392 -310.117)" fill="#263238"/>
        </g>
        <path id="Path_106247" data-name="Path 106247" d="M189.961,462.552a6.9,6.9,0,0,0-2.744.04,3.466,3.466,0,0,0-1.309.539c-.379.286-.689.583-.653,1.057l6.953.008C192.209,463.35,190.863,462.708,189.961,462.552Z" transform="translate(-174.187 -428.838)" fill="#263238"/>
        <path id="Path_106248" data-name="Path 106248" d="M282.408,462.262a6.9,6.9,0,0,1,2.744.04,3.466,3.466,0,0,1,1.309.539,1.241,1.241,0,0,1,.626,1.087l-6.927-.024C280.16,463.06,281.506,462.418,282.408,462.262Z" transform="translate(-258.956 -428.579)" fill="#263238"/>
        <path id="Path_106249" data-name="Path 106249" d="M166.161,180.2l-.232-.093a3.258,3.258,0,0,0-.654-.178,3.329,3.329,0,0,0-1-.014,3.1,3.1,0,0,0-2.076,1.2,3.321,3.321,0,0,0-.49.874,3.267,3.267,0,0,0-.174.655c-.025.159-.031.248-.036.248a.252.252,0,0,1,0-.065,1.716,1.716,0,0,1,.015-.186,2.975,2.975,0,0,1,.159-.666,3.284,3.284,0,0,1,.486-.891,3.1,3.1,0,0,1,2.109-1.216,3.276,3.276,0,0,1,1.015.026,2.966,2.966,0,0,1,.656.2c.075.03.129.062.168.08a.416.416,0,0,1,.057.032Z" transform="translate(-152.967 -176.434)" fill="#263238"/>
        <g id="Group_121219" data-name="Group 121219" transform="translate(16.968 2.028)" opacity="0.3">
          <path id="Path_106250" data-name="Path 106250" d="M243.338,172.035a2.526,2.526,0,0,0-2.833-2.851q0-1.127-.005-2.254s.579.116.59,1.743a2.323,2.323,0,0,1,2.125,1.174,2.041,2.041,0,0,1,.124,2.189Z" transform="translate(-240.5 -166.93)"/>
        </g>
        <path id="Path_106251" data-name="Path 106251" d="M199.029,214.579s0-.032.005-.092c0-.031.006-.068.01-.111a.933.933,0,0,0,.007-.151,3.029,3.029,0,0,0-.128-.951,2.741,2.741,0,0,0-.1-.3c-.041-.1-.093-.206-.145-.313a3.551,3.551,0,0,0-.192-.315c-.036-.052-.072-.106-.111-.158l-.126-.153a3.194,3.194,0,0,0-.625-.559,2.767,2.767,0,0,0-1.7-.491,3.166,3.166,0,0,0-.827.139l-.189.062c-.061.022-.12.05-.178.075a3.413,3.413,0,0,0-.331.165c-.1.063-.2.122-.29.188s-.176.127-.249.2a3.067,3.067,0,0,0-.615.735.894.894,0,0,0-.074.131c-.019.038-.036.071-.05.1a.5.5,0,0,1-.045.08.67.67,0,0,1,.034-.085l.046-.1a.926.926,0,0,1,.071-.136,3.115,3.115,0,0,1,.858-.958c.09-.067.19-.128.292-.193a3.492,3.492,0,0,1,.334-.169c.06-.025.119-.052.181-.077l.191-.064a3.168,3.168,0,0,1,.84-.144,2.8,2.8,0,0,1,1.735.5,3.2,3.2,0,0,1,.633.57l.127.156c.04.053.075.108.112.161a3.647,3.647,0,0,1,.192.322c.051.109.1.214.144.319a3.111,3.111,0,0,1,.1.306,2.95,2.95,0,0,1,.112.962,1.019,1.019,0,0,1-.013.152c-.006.043-.011.079-.015.111a.53.53,0,0,1-.016.091Z" transform="translate(-181.167 -204.199)" fill="#263238"/>
        <path id="Path_106252" data-name="Path 106252" d="M137.914,237.773a.548.548,0,0,1-.058-.011,1.51,1.51,0,0,1-.161-.044,2.5,2.5,0,0,1-.559-.256,2.767,2.767,0,0,1-.69-.6,2.6,2.6,0,0,1-.58-2.1,2.751,2.751,0,0,1,.285-.866,2.522,2.522,0,0,1,.348-.507,1.433,1.433,0,0,1,.116-.12.265.265,0,0,1,.044-.038s-.052.061-.144.172a2.817,2.817,0,0,0-.6,1.367,2.593,2.593,0,0,0,.569,2.063,2.8,2.8,0,0,0,.671.6,2.757,2.757,0,0,0,.546.269c.136.048.214.069.212.074Z" transform="translate(-130.047 -224.119)" fill="#263238"/>
        <path id="Path_106253" data-name="Path 106253" d="M118.6,238.959a1.117,1.117,0,0,1,.3.035,2.946,2.946,0,0,1,1.321.648,1.175,1.175,0,0,1,.215.22,3.016,3.016,0,0,1-.239-.189,3.674,3.674,0,0,0-.619-.389,3.574,3.574,0,0,0-.686-.252c-.182-.047-.3-.065-.3-.074Z" transform="translate(-114.654 -229.235)" fill="#263238"/>
        <path id="Path_106254" data-name="Path 106254" d="M247.311,222.651c0,.01-.119-.028-.309-.061a2.588,2.588,0,0,0-.75-.02,2.465,2.465,0,0,0-.721.206c-.175.081-.277.148-.282.14s.021-.022.065-.054a1.575,1.575,0,0,1,.2-.121,2.184,2.184,0,0,1,.732-.226,2.284,2.284,0,0,1,.765.037,1.891,1.891,0,0,1,.223.064C247.284,222.635,247.312,222.647,247.311,222.651Z" transform="translate(-227.774 -214.534)" fill="#263238"/>
        <g id="Group_121220" data-name="Group 121220" transform="translate(12.02 6.231)" opacity="0.3">
          <path id="Path_106255" data-name="Path 106255" d="M200.858,207.6a1.828,1.828,0,0,0-1.2.2,3.16,3.16,0,0,0-3-1.512,3.022,3.022,0,0,0-2.464,2.162,3.041,3.041,0,0,1,2.744-1.6,2.964,2.964,0,0,1,2.707,1.56,2.8,2.8,0,0,1,2.275-.207A1.827,1.827,0,0,0,200.858,207.6Z" transform="translate(-194.19 -206.271)"/>
        </g>
        <g id="Group_121221" data-name="Group 121221" transform="translate(3.962 8.868)" opacity="0.3">
          <path id="Path_106256" data-name="Path 106256" d="M121.721,230.96a2.032,2.032,0,0,0-1.581.955,2.009,2.009,0,0,0-1.39-.1,2.878,2.878,0,0,1,1.883.976A1.973,1.973,0,0,1,121.721,230.96Z" transform="translate(-118.75 -230.96)"/>
        </g>
        <g id="Group_121222" data-name="Group 121222" transform="translate(29.433 11.758)" opacity="0.3">
          <path id="Path_106257" data-name="Path 106257" d="M360.39,259.791a3.8,3.8,0,0,0-3.171-1.779l-.03,0a4.829,4.829,0,0,1,2.617,2.3,5.276,5.276,0,0,1,.453,3.115A3.8,3.8,0,0,0,360.39,259.791Z" transform="translate(-357.19 -258.01)"/>
        </g>
        <g id="Group_121224" data-name="Group 121224" transform="translate(28.724 25.608)">
          <g id="Group_121223" data-name="Group 121223">
            <path id="Path_106258" data-name="Path 106258" d="M354.994,391.29a2.381,2.381,0,0,0,.023-.262,2.685,2.685,0,0,0-.042-.765,1.382,1.382,0,0,0-.218-.49,3.518,3.518,0,0,0,.292-1.061.7.7,0,0,0-.045-.406.935.935,0,0,0-.659-.372,4.807,4.807,0,0,0-1.579-.069.339.339,0,0,0-.181.059.255.255,0,0,0-.062.217,9.323,9.323,0,0,1,.02,1.151,1.977,1.977,0,0,0-.719.464l-.007.007a7.513,7.513,0,0,1-.79.614.5.5,0,0,0-.266.345.312.312,0,0,0,.151.291c.327.21,1.058-.319,1.058-.319a3.23,3.23,0,0,1-.322.69c-.328.491-.07.08-.572.828a.592.592,0,0,0-.148.484c.067.218.223.245.438.162a5.971,5.971,0,0,0,1.154-.9c-.087.107-.513.72-.583.832-.1.157-.2.286-.153.418s.235.176.374.167a.523.523,0,0,0,.292-.162,9.641,9.641,0,0,0,.757-.845,8.556,8.556,0,0,0-.388.879c-.023.085-.087.27-.047.349.066.135.26.143.4.088a1.6,1.6,0,0,0,.532-.52,2.84,2.84,0,0,0,.248-.525,1.3,1.3,0,0,1-.062.207,1.587,1.587,0,0,0-.125.38c0,.083-.1.394.037.48.178.114.329-.075.376-.132a4.323,4.323,0,0,0,.613-1.286,5.091,5.091,0,0,0,.2-1Z" transform="translate(-350.739 -387.812)" fill="#fff"/>
            <path id="Path_106259" data-name="Path 106259" d="M354.812,391.141s0,.023-.006.07-.015.116-.027.206a3.986,3.986,0,0,1-.177.779c-.056.164-.118.347-.2.542a3.193,3.193,0,0,1-.326.607.591.591,0,0,1-.287.257.218.218,0,0,1-.2-.053.3.3,0,0,1-.052-.208,1.584,1.584,0,0,1,.027-.213.288.288,0,0,0,.005-.051.25.25,0,0,1,.009-.058c.009-.036.019-.073.031-.108.023-.071.051-.141.081-.21a1.032,1.032,0,0,0,.065-.216l.038.012a2.415,2.415,0,0,1-.322.631,2.194,2.194,0,0,1-.252.278,1,1,0,0,1-.154.119.445.445,0,0,1-.191.063.36.36,0,0,1-.2-.033.221.221,0,0,1-.081-.073.177.177,0,0,1-.029-.108.9.9,0,0,1,.037-.2c.018-.064.036-.131.061-.2.1-.259.232-.506.349-.766l.042.026c-.166.2-.335.406-.52.607a3.345,3.345,0,0,1-.3.292.432.432,0,0,1-.412.108.358.358,0,0,1-.2-.107.239.239,0,0,1-.037-.229.856.856,0,0,1,.1-.2c.038-.062.08-.122.123-.182l.513-.733.038.038c-.287.237-.554.517-.876.745a1.4,1.4,0,0,1-.259.148.491.491,0,0,1-.3.047.238.238,0,0,1-.135-.092.391.391,0,0,1-.065-.144.451.451,0,0,1,.046-.308,7.884,7.884,0,0,0,1-1.689l.043.031a2.878,2.878,0,0,1-.443.256,1.029,1.029,0,0,1-.5.115.364.364,0,0,1-.231-.122.33.33,0,0,1-.08-.247.384.384,0,0,1,.114-.229,1.117,1.117,0,0,1,.191-.154,6.915,6.915,0,0,0,.739-.572,2.022,2.022,0,0,1,.755-.495l-.016.021a6.9,6.9,0,0,0,0-.855c0-.069-.008-.139-.012-.207a.871.871,0,0,1,0-.21.2.2,0,0,1,.052-.1.233.233,0,0,1,.1-.054,1.252,1.252,0,0,1,.2-.03,4.821,4.821,0,0,1,1.484.081,1.155,1.155,0,0,1,.6.28.48.48,0,0,1,.126.291,1.391,1.391,0,0,1-.015.3,3.552,3.552,0,0,1-.288.995l0-.014a1.229,1.229,0,0,1,.167.324,1.648,1.648,0,0,1,.078.308,2.513,2.513,0,0,1,.016.494c0,.132-.014.233-.021.3s-.013.1-.013.1,0-.034.005-.1.014-.168.015-.3a2.529,2.529,0,0,0-.022-.489,1.59,1.59,0,0,0-.08-.3,1.237,1.237,0,0,0-.165-.315.016.016,0,0,1,0-.014,3.532,3.532,0,0,0,.279-.988,1.326,1.326,0,0,0,.014-.292.438.438,0,0,0-.117-.269,1.12,1.12,0,0,0-.585-.266,4.78,4.78,0,0,0-1.471-.075,1.366,1.366,0,0,0-.192.029.151.151,0,0,0-.116.121.773.773,0,0,0,0,.2c0,.068.009.138.012.207a7,7,0,0,1,.005.861.024.024,0,0,1-.016.021,1.991,1.991,0,0,0-.737.485,7.058,7.058,0,0,1-.745.579,1.063,1.063,0,0,0-.183.146.326.326,0,0,0-.1.2.276.276,0,0,0,.068.206.308.308,0,0,0,.2.1.981.981,0,0,0,.467-.111,2.752,2.752,0,0,0,.434-.251h0a.027.027,0,0,1,.038.006.025.025,0,0,1,0,.025,3.586,3.586,0,0,1-.185.452,3.166,3.166,0,0,1-.259.422c-.046.069-.1.136-.145.2l-.141.2-.14.207a1.85,1.85,0,0,0-.132.209.4.4,0,0,0-.042.27.245.245,0,0,0,.16.2.443.443,0,0,0,.268-.044,1.379,1.379,0,0,0,.249-.143c.315-.223.582-.5.874-.741a.028.028,0,0,1,.038,0,.027.027,0,0,1,0,.033v0l-.512.727c-.043.059-.084.12-.122.182a.854.854,0,0,0-.1.185.182.182,0,0,0,.027.178.3.3,0,0,0,.17.09.457.457,0,0,0,.2,0,.485.485,0,0,0,.171-.1,3.209,3.209,0,0,0,.292-.286c.184-.2.354-.4.519-.6a.025.025,0,0,1,.035,0,.026.026,0,0,1,.007.03c-.119.263-.253.51-.35.763a2,2,0,0,0-.06.192.823.823,0,0,0-.036.191.146.146,0,0,0,.085.139.313.313,0,0,0,.177.029.557.557,0,0,0,.32-.169,2.193,2.193,0,0,0,.248-.271,2.384,2.384,0,0,0,.318-.62.019.019,0,0,1,.026-.012.02.02,0,0,1,.013.024,1.154,1.154,0,0,1-.068.223c-.03.068-.058.138-.081.207a.946.946,0,0,0-.03.1.286.286,0,0,0-.007.05.316.316,0,0,1-.006.057,1.608,1.608,0,0,0-.027.208.266.266,0,0,0,.042.183.188.188,0,0,0,.169.044.564.564,0,0,0,.269-.242,3.2,3.2,0,0,0,.327-.6c.083-.193.147-.375.2-.538a4.068,4.068,0,0,0,.187-.773l.032-.205c.007-.046.013-.069.013-.069Z" transform="translate(-350.556 -387.663)" fill="#263238"/>
          </g>
          <path id="Path_106260" data-name="Path 106260" d="M369.328,400.913c-.006.007-.109-.083-.291-.205a2.2,2.2,0,0,0-.78-.325,2.522,2.522,0,0,0-.847,0c-.216.034-.348.071-.35.061a.366.366,0,0,1,.09-.035,2.415,2.415,0,0,1,.254-.065,2.311,2.311,0,0,1,.864-.013,2.068,2.068,0,0,1,.995.514c.045.043.068.067.066.07Z" transform="translate(-365.297 -398.943)" fill="#263238"/>
        </g>
      </g>
    </g>
  </g>
</svg>
