<svg xmlns="http://www.w3.org/2000/svg" xmlns:xlink="http://www.w3.org/1999/xlink" width="375" height="543" viewBox="0 0 375 543">
  <defs>
    <clipPath id="clip-path">
      <rect id="Rectangle_61878" data-name="Rectangle 61878" width="375" height="543" transform="translate(46)" fill="none"/>
    </clipPath>
    <clipPath id="clip-path-2">
      <rect id="Rectangle_61871" data-name="Rectangle 61871" width="543" height="543" fill="none"/>
    </clipPath>
    <clipPath id="clip-path-3">
      <rect id="Rectangle_61835" data-name="Rectangle 61835" width="11.944" height="30.531" fill="none"/>
    </clipPath>
    <clipPath id="clip-path-4">
      <rect id="Rectangle_61836" data-name="Rectangle 61836" width="4.724" height="47.948" fill="none"/>
    </clipPath>
    <clipPath id="clip-path-5">
      <rect id="Rectangle_61837" data-name="Rectangle 61837" width="3.893" height="2.666" fill="none"/>
    </clipPath>
    <clipPath id="clip-path-6">
      <rect id="Rectangle_61838" data-name="Rectangle 61838" width="36.363" height="89.616" fill="none"/>
    </clipPath>
    <clipPath id="clip-path-7">
      <rect id="Rectangle_61839" data-name="Rectangle 61839" width="14.86" height="5.045" fill="none"/>
    </clipPath>
    <clipPath id="clip-path-8">
      <rect id="Rectangle_61840" data-name="Rectangle 61840" width="14.919" height="29.263" fill="none"/>
    </clipPath>
    <clipPath id="clip-path-9">
      <rect id="Rectangle_61841" data-name="Rectangle 61841" width="34.795" height="66.015" fill="none"/>
    </clipPath>
    <clipPath id="clip-path-10">
      <rect id="Rectangle_61844" data-name="Rectangle 61844" width="15.767" height="43.402" fill="none"/>
    </clipPath>
    <clipPath id="clip-path-11">
      <rect id="Rectangle_61842" data-name="Rectangle 61842" width="15.767" height="27.466" fill="none"/>
    </clipPath>
    <clipPath id="clip-path-12">
      <rect id="Rectangle_61843" data-name="Rectangle 61843" width="1.492" height="19.811" fill="none"/>
    </clipPath>
    <clipPath id="clip-path-13">
      <rect id="Rectangle_61845" data-name="Rectangle 61845" width="5.836" height="2.731" fill="none"/>
    </clipPath>
    <clipPath id="clip-path-14">
      <rect id="Rectangle_61846" data-name="Rectangle 61846" width="55.016" height="75.658" fill="none"/>
    </clipPath>
    <clipPath id="clip-path-15">
      <rect id="Rectangle_61847" data-name="Rectangle 61847" width="2.087" height="2.64" fill="none"/>
    </clipPath>
    <clipPath id="clip-path-16">
      <rect id="Rectangle_61848" data-name="Rectangle 61848" width="12.049" height="11.996" fill="none"/>
    </clipPath>
    <clipPath id="clip-path-17">
      <rect id="Rectangle_61849" data-name="Rectangle 61849" width="9.112" height="3.63" fill="none"/>
    </clipPath>
    <clipPath id="clip-path-18">
      <rect id="Rectangle_61850" data-name="Rectangle 61850" width="33.072" height="33.553" fill="none"/>
    </clipPath>
    <clipPath id="clip-path-19">
      <rect id="Rectangle_61851" data-name="Rectangle 61851" width="2.795" height="33.635" fill="none"/>
    </clipPath>
    <clipPath id="clip-path-20">
      <rect id="Rectangle_61852" data-name="Rectangle 61852" width="4.656" height="3.318" fill="none"/>
    </clipPath>
    <clipPath id="clip-path-21">
      <rect id="Rectangle_61853" data-name="Rectangle 61853" width="29.067" height="64.764" fill="none"/>
    </clipPath>
    <clipPath id="clip-path-22">
      <rect id="Rectangle_61856" data-name="Rectangle 61856" width="1.583" height="14.708" fill="none"/>
    </clipPath>
    <clipPath id="clip-path-23">
      <rect id="Rectangle_61857" data-name="Rectangle 61857" width="4.729" height="2.943" fill="none"/>
    </clipPath>
    <clipPath id="clip-path-24">
      <rect id="Rectangle_61858" data-name="Rectangle 61858" width="74.139" height="91.566" fill="none"/>
    </clipPath>
    <clipPath id="clip-path-25">
      <rect id="Rectangle_61859" data-name="Rectangle 61859" width="16.852" height="16.199" fill="none"/>
    </clipPath>
    <clipPath id="clip-path-26">
      <rect id="Rectangle_61862" data-name="Rectangle 61862" width="0.678" height="20.196" fill="none"/>
    </clipPath>
    <clipPath id="clip-path-27">
      <rect id="Rectangle_61863" data-name="Rectangle 61863" width="2.148" height="1.164" fill="none"/>
    </clipPath>
    <clipPath id="clip-path-28">
      <rect id="Rectangle_61864" data-name="Rectangle 61864" width="30.099" height="60.504" fill="none"/>
    </clipPath>
    <clipPath id="clip-path-29">
      <rect id="Rectangle_61865" data-name="Rectangle 61865" width="19.742" height="16.479" fill="none"/>
    </clipPath>
    <clipPath id="clip-path-30">
      <rect id="Rectangle_61866" data-name="Rectangle 61866" width="21.32" height="5.507" fill="none"/>
    </clipPath>
    <clipPath id="clip-path-31">
      <rect id="Rectangle_61867" data-name="Rectangle 61867" width="6.046" height="34.17" fill="none"/>
    </clipPath>
    <clipPath id="clip-path-32">
      <rect id="Rectangle_61868" data-name="Rectangle 61868" width="55.776" height="58.778" fill="none"/>
    </clipPath>
    <clipPath id="clip-path-33">
      <rect id="Rectangle_61869" data-name="Rectangle 61869" width="13.63" height="14.9" fill="none"/>
    </clipPath>
    <clipPath id="clip-path-34">
      <rect id="Rectangle_61870" data-name="Rectangle 61870" width="4.36" height="4.211" fill="none"/>
    </clipPath>
    <clipPath id="clip-path-35">
      <path id="Path_113560" data-name="Path 113560" d="M0,726.683V773.2H542.523V737.786c-72.281-16.259-176.4-21.055-274.175-21.054C127.567,716.734,0,726.683,0,726.683" transform="translate(0 -716.732)" fill="none"/>
    </clipPath>
    <linearGradient id="linear-gradient" x1="-0.575" y1="0.554" x2="-0.573" y2="0.554" gradientUnits="objectBoundingBox">
      <stop offset="0" stop-color="#8dc63f"/>
      <stop offset="0.086" stop-color="#8dc63f"/>
      <stop offset="0.801" stop-color="#33bd71"/>
      <stop offset="1" stop-color="#33bd71"/>
    </linearGradient>
  </defs>
  <g id="Trees" transform="translate(-46)">
    <g id="Group_128242" data-name="Group 128242" clip-path="url(#clip-path)">
      <g id="Group_128231" data-name="Group 128231">
        <g id="Group_128230" data-name="Group 128230" clip-path="url(#clip-path-2)">
          <path id="Path_113494" data-name="Path 113494" d="M179.948,715.147,168,715.51s.772-14.368.772-17.589.123-12.941.123-12.941h9.071s-.116,9.635.117,12.941c.358,5.079,1.862,17.226,1.862,17.226" transform="translate(-54.071 -220.458)" fill="#595045"/>
          <g id="Group_128136" data-name="Group 128136" transform="translate(113.933 464.521)" opacity="0.2" style="mix-blend-mode: multiply;isolation: isolate">
            <g id="Group_128135" data-name="Group 128135">
              <g id="Group_128134" data-name="Group 128134" clip-path="url(#clip-path-3)">
                <path id="Path_113495" data-name="Path 113495" d="M178.087,697.921c-.233-3.306-.117-12.942-.117-12.942h-2.882s-.116,9.636.117,12.942c.357,5.079,1.862,17.226,1.862,17.226l-9.058.276,0,.088,11.945-.364s-1.5-12.146-1.862-17.226" transform="translate(-168.004 -684.979)"/>
              </g>
            </g>
          </g>
          <path id="Path_113496" data-name="Path 113496" d="M350.026,700.658h-8.319s.842-4.961,1.283-23.268c.155-6.44.509-24.68.509-24.68h3.385s.842,19.738.938,22.618a207.661,207.661,0,0,0,2.2,25.33" transform="translate(-109.977 -210.072)" fill="#726658"/>
          <g id="Group_128139" data-name="Group 128139" transform="translate(235.307 442.638)" opacity="0.15" style="mix-blend-mode: multiply;isolation: isolate">
            <g id="Group_128138" data-name="Group 128138">
              <g id="Group_128137" data-name="Group 128137" clip-path="url(#clip-path-4)">
                <path id="Path_113497" data-name="Path 113497" d="M349.5,675.329c-.1-2.879-.938-22.618-.938-22.618h-1.582s.842,19.738.938,22.618c.509,15.371,1.424,25.33,1.424,25.33h2.362a207.68,207.68,0,0,1-2.2-25.33" transform="translate(-346.982 -652.71)"/>
              </g>
            </g>
          </g>
          <g id="Group_128142" data-name="Group 128142" transform="translate(233.36 448.642)" opacity="0.1" style="mix-blend-mode: multiply;isolation: isolate">
            <g id="Group_128141" data-name="Group 128141">
              <g id="Group_128140" data-name="Group 128140" clip-path="url(#clip-path-5)">
                <path id="Path_113498" data-name="Path 113498" d="M344.16,661.93l-.048,1.809s1.239,1.1,3.893,0l-.115-2.176Z" transform="translate(-344.111 -661.563)"/>
              </g>
            </g>
          </g>
          <path id="Path_113499" data-name="Path 113499" d="M357.45,567.887c0,25.742,1.339,48.657-19.684,48.657-19.667,0-19.667-22.915-19.667-48.657s8.805-48.658,19.667-48.658,19.684,22.915,19.684,48.658" transform="translate(-102.379 -167.112)" fill="#57c649"/>
          <g id="Group_128145" data-name="Group 128145" transform="translate(218.726 359.816)" opacity="0.1" style="mix-blend-mode: multiply;isolation: isolate">
            <g id="Group_128144" data-name="Group 128144">
              <g id="Group_128143" data-name="Group 128143" clip-path="url(#clip-path-6)">
                <path id="Path_113500" data-name="Path 113500" d="M358.876,571.541c0-16.652-3.695-32.11-9.241-40.958,3.61,8.964,5.85,21.209,5.85,34.176,0,25.742,1.339,48.657-19.684,48.657-6.142,0-10.366-2.235-13.27-6.094,2.616,7.905,7.506,12.875,16.661,12.875,21.023,0,19.684-22.915,19.684-48.657" transform="translate(-322.531 -530.582)"/>
              </g>
            </g>
          </g>
          <path id="Path_113501" data-name="Path 113501" d="M712.35,698.662a104.655,104.655,0,0,0,4.351,14.852l.141,14.411h5.935l-.085-14.179s2.051-5.86,4.578-15.083h-4.578s-.227,10.274-3.5,11.913c0,0-3.023-3.843-2.345-10.794Z" transform="translate(-229.267 -224.861)" fill="#726658"/>
          <g id="Group_128148" data-name="Group 128148" transform="translate(483.083 473.801)" opacity="0.1" style="mix-blend-mode: multiply;isolation: isolate">
            <g id="Group_128147" data-name="Group 128147">
              <g id="Group_128146" data-name="Group 128146" clip-path="url(#clip-path-7)">
                <path id="Path_113502" data-name="Path 113502" d="M716.842,699.782l-4.493-1.119s.432,1.715.9,3.75a10.275,10.275,0,0,0,3.588,1.206,19.749,19.749,0,0,1,.007-3.837" transform="translate(-712.349 -698.662)"/>
                <path id="Path_113503" data-name="Path 113503" d="M727.315,698.662a35.4,35.4,0,0,1-.414,5.045,11.654,11.654,0,0,0,3.844-.813,41.255,41.255,0,0,0,1.148-4.232Z" transform="translate(-717.032 -698.662)"/>
              </g>
            </g>
          </g>
          <g id="Group_128151" data-name="Group 128151" transform="translate(483.083 473.801)" opacity="0.2" style="mix-blend-mode: multiply;isolation: isolate">
            <g id="Group_128150" data-name="Group 128150">
              <g id="Group_128149" data-name="Group 128149" clip-path="url(#clip-path-8)">
                <path id="Path_113504" data-name="Path 113504" d="M716.291,699.782c-.678,6.951,2.345,10.794,2.345,10.794a.44.44,0,0,0,.551,0c-.8-1.066-2.926-4.839-2.345-10.794l-4.492-1.119s.011.054.031.144Z" transform="translate(-712.35 -698.662)"/>
                <path id="Path_113505" data-name="Path 113505" d="M731.916,698.662h-.551c-2.526,9.223-4.578,15.083-4.578,15.083l.085,14.179h.551l-.085-14.179s2.052-5.86,4.578-15.083" transform="translate(-716.997 -698.662)"/>
              </g>
            </g>
          </g>
          <path id="Path_113506" data-name="Path 113506" d="M734.646,640.12c0,17.136-5.764,31.026-21.023,31.026-13.563,0-21.023-13.89-21.023-31.026s9.412-37.807,21.023-37.807c14.241,0,21.023,20.671,21.023,37.807" transform="translate(-222.91 -193.852)" fill="#8dc63f"/>
          <g id="Group_128154" data-name="Group 128154" transform="translate(476.94 411.279)" opacity="0.1" style="mix-blend-mode: multiply;isolation: isolate">
            <g id="Group_128153" data-name="Group 128153">
              <g id="Group_128152" data-name="Group 128152" clip-path="url(#clip-path-9)">
                <path id="Path_113507" data-name="Path 113507" d="M725.479,606.468c6.207,7.4,9.216,20.364,9.216,31.768,0,17.135-5.764,31.025-21.023,31.025a17.093,17.093,0,0,1-10.382-3.369,17.422,17.422,0,0,0,13.773,6.59c15.259,0,21.023-13.891,21.023-31.025,0-13.316-4.1-28.762-12.607-34.989" transform="translate(-703.291 -606.468)"/>
              </g>
            </g>
          </g>
          <path id="Path_113508" data-name="Path 113508" d="M99.2,690.09,98.578,688a15.554,15.554,0,0,0-7.415,3.363l-.723-19.3H85.015l-1.582,43.4h8.633l-.754-20.141c2.356-3.475,7.888-5.233,7.888-5.233" transform="translate(-26.853 -216.301)" fill="#968a7d"/>
          <g id="Group_128163" data-name="Group 128163" transform="translate(56.58 455.762)" opacity="0.2" style="mix-blend-mode: multiply;isolation: isolate">
            <g id="Group_128162" data-name="Group 128162">
              <g id="Group_128161" data-name="Group 128161" clip-path="url(#clip-path-10)">
                <g id="Group_128157" data-name="Group 128157" transform="translate(0 15.936)" opacity="0.4" style="mix-blend-mode: multiply;isolation: isolate">
                  <g id="Group_128156" data-name="Group 128156">
                    <g id="Group_128155" data-name="Group 128155" clip-path="url(#clip-path-11)">
                      <path id="Path_113509" data-name="Path 113509" d="M99.2,697.654l-.622-2.091c-.2.024-.394.07-.591.1l.422,1.421s-5.532,1.758-7.888,5.233l.755,20.141H83.453l-.02.566h8.633l-.754-20.141c2.356-3.475,7.888-5.233,7.888-5.233" transform="translate(-83.433 -695.562)"/>
                    </g>
                  </g>
                </g>
                <g id="Group_128160" data-name="Group 128160" transform="translate(6.238)" opacity="0.4" style="mix-blend-mode: multiply;isolation: isolate">
                  <g id="Group_128159" data-name="Group 128159">
                    <g id="Group_128158" data-name="Group 128158" clip-path="url(#clip-path-12)">
                      <path id="Path_113510" data-name="Path 113510" d="M93.356,691.873c.214-.171.49-.312.767-.511l-.722-19.3h-.77Z" transform="translate(-92.631 -672.063)"/>
                    </g>
                  </g>
                </g>
              </g>
            </g>
          </g>
          <g id="Group_128166" data-name="Group 128166" transform="translate(57.966 459.039)" opacity="0.1" style="mix-blend-mode: multiply;isolation: isolate">
            <g id="Group_128165" data-name="Group 128165">
              <g id="Group_128164" data-name="Group 128164" clip-path="url(#clip-path-13)">
                <path id="Path_113511" data-name="Path 113511" d="M85.532,676.981,85.477,679a9.771,9.771,0,0,0,5.836.338L91.2,676.9Z" transform="translate(-85.477 -676.895)"/>
              </g>
            </g>
          </g>
          <path id="Path_113512" data-name="Path 113512" d="M107.006,596.948C105.1,620.09,93.572,638.993,77,638.993s-33.4-18.642-33.4-41.862c0-26.292,12.865-41.864,29.439-41.864s36,16.928,33.969,41.681" transform="translate(-14.032 -178.71)" fill="#8dc63f"/>
          <g id="Group_128169" data-name="Group 128169" transform="translate(38.105 384.625)" opacity="0.1" style="mix-blend-mode: multiply;isolation: isolate">
            <g id="Group_128168" data-name="Group 128168">
              <g id="Group_128167" data-name="Group 128167" clip-path="url(#clip-path-14)">
                <path id="Path_113513" data-name="Path 113513" d="M97.417,567.165a39.535,39.535,0,0,1,6.86,26.165c-1.9,23.143-13.436,42.045-30.008,42.045-6.3,0-12.642-2.7-18.079-7.323,6.432,9.046,15.682,14.77,24.86,14.77,16.573,0,28.107-18.9,30.008-42.046a39.167,39.167,0,0,0-13.642-33.612" transform="translate(-56.19 -567.165)"/>
              </g>
            </g>
          </g>
          <g id="Group_128172" data-name="Group 128172" transform="translate(67.841 472.483)" opacity="0.1" style="mix-blend-mode: multiply;isolation: isolate">
            <g id="Group_128171" data-name="Group 128171">
              <g id="Group_128170" data-name="Group 128170" clip-path="url(#clip-path-15)">
                <path id="Path_113514" data-name="Path 113514" d="M100.98,696.719s-.616.219-.857.332-.033,2.361,1.324,2.307l.677-.34Z" transform="translate(-100.038 -696.719)"/>
              </g>
            </g>
          </g>
          <path id="Path_113515" data-name="Path 113515" d="M114.082,693.12a5.916,5.916,0,0,1-6.1,5.708c-3.371,0-7.036-3.063-7.036-6.215s3.665-6.215,7.036-6.215,6.1,3.57,6.1,6.723" transform="translate(-32.488 -220.914)" fill="#8dc63f"/>
          <g id="Group_128175" data-name="Group 128175" transform="translate(69.545 465.917)" opacity="0.1" style="mix-blend-mode: multiply;isolation: isolate">
            <g id="Group_128174" data-name="Group 128174">
              <g id="Group_128173" data-name="Group 128173" clip-path="url(#clip-path-16)">
                <path id="Path_113516" data-name="Path 113516" d="M110.5,687.037a7.05,7.05,0,0,1,1.308,3.914,5.916,5.916,0,0,1-6.1,5.709,6.961,6.961,0,0,1-3.151-.821,7.805,7.805,0,0,0,5.946,3.194,5.916,5.916,0,0,0,6.1-5.709,7.247,7.247,0,0,0-4.1-6.287" transform="translate(-102.55 -687.037)"/>
              </g>
            </g>
          </g>
          <g id="Group_128178" data-name="Group 128178" transform="translate(114.779 466.761)" opacity="0.1" style="mix-blend-mode: multiply;isolation: isolate">
            <g id="Group_128177" data-name="Group 128177">
              <g id="Group_128176" data-name="Group 128176" clip-path="url(#clip-path-17)">
                <path id="Path_113517" data-name="Path 113517" d="M169.272,688.281l-.02,1.788s4.3,3.588,9.091.748l.02-2.388Z" transform="translate(-169.252 -688.281)"/>
              </g>
            </g>
          </g>
          <path id="Path_113518" data-name="Path 113518" d="M185.4,651.877c0,9.925-7.555,19.666-17.293,19.666S148.1,660.955,148.1,651.029s7.616-18.649,17.354-18.649,19.945,9.572,19.945,19.5" transform="translate(-47.665 -203.529)" fill="#5d9e33"/>
          <g id="Group_128181" data-name="Group 128181" transform="translate(104.66 434.462)" opacity="0.1" style="mix-blend-mode: multiply;isolation: isolate">
            <g id="Group_128180" data-name="Group 128180">
              <g id="Group_128179" data-name="Group 128179" clip-path="url(#clip-path-18)">
                <path id="Path_113519" data-name="Path 113519" d="M180.634,640.653a18,18,0,0,1,3.718,10.5c0,9.925-7.555,19.666-17.293,19.666-4.482,0-9.074-2.247-12.728-5.636,3.891,5.2,9.93,9.027,15.779,9.027,9.738,0,17.293-9.742,17.293-19.667,0-5.157-2.757-10.214-6.769-13.887" transform="translate(-154.331 -640.653)"/>
              </g>
            </g>
          </g>
          <path id="Path_113520" data-name="Path 113520" d="M242.259,622.05c.4-1.269,1.249-5.99-1.321-5.963-2.528.026.406,4.891,1.208,5.574-.9-.655-3.892-2.986-4.106-.453-.2,2.411,3.1.987,4.219.842" transform="translate(-76.609 -198.285)" fill="#63bce1"/>
          <path id="Path_113521" data-name="Path 113521" d="M243.848,623.809c1.1-.747,5.374-2.926,6.091-.457.7,2.428-4.8,1.024-5.686.453.887.673,3.981,2.865,1.619,3.8-2.249.891-1.84-2.682-2.024-3.8" transform="translate(-78.481 -200.254)" fill="#63bce1"/>
          <path id="Path_113522" data-name="Path 113522" d="M243.355,625.174a4.088,4.088,0,0,1,1.274-1.973c.634-.476-.125-1.444-.756-.968a5.184,5.184,0,0,0-1.663,2.5c-.221.753.922,1.206,1.145.445" transform="translate(-77.945 -200.222)" fill="#726658"/>
          <path id="Path_113523" data-name="Path 113523" d="M568.235,681.683c-1.236-.49-5.88-1.694-6.045.87-.163,2.524,4.909-.037,5.648-.787-.72.849-3.269,3.658-.76,4.06,2.389.385,1.217-3.016,1.156-4.144" transform="translate(-180.937 -219.167)" fill="#51edb6"/>
          <path id="Path_113524" data-name="Path 113524" d="M570.158,679.5c-.662-1.153-2.514-5.58,0-6.108,2.473-.519.661,4.864.024,5.7.738-.833,3.155-3.756,3.911-1.329.72,2.31-2.812,1.634-3.937,1.734" transform="translate(-183.091 -216.717)" fill="#51edb6"/>
          <path id="Path_113525" data-name="Path 113525" d="M571.4,681.7a4.09,4.09,0,0,1-1.872-1.419c-.427-.668-1.449.017-1.021.681a5.189,5.189,0,0,0,2.365,1.846c.734.277,1.272-.829.529-1.108" transform="translate(-182.939 -218.859)" fill="#726658"/>
          <path id="Path_113526" data-name="Path 113526" d="M542.323,706.516h-5.877l.484-33.427,4.4-.208Z" transform="translate(-172.653 -216.564)" fill="#968a7d"/>
          <g id="Group_128184" data-name="Group 128184" transform="translate(366.875 456.317)" opacity="0.1" style="mix-blend-mode: multiply;isolation: isolate">
            <g id="Group_128183" data-name="Group 128183">
              <g id="Group_128182" data-name="Group 128182" clip-path="url(#clip-path-19)">
                <path id="Path_113527" data-name="Path 113527" d="M542.8,672.881l-1.805.085.987,33.55h1.808Z" transform="translate(-540.991 -672.881)"/>
              </g>
            </g>
          </g>
          <g id="Group_128187" data-name="Group 128187" transform="translate(364.197 459.619)" opacity="0.2" style="mix-blend-mode: multiply;isolation: isolate">
            <g id="Group_128186" data-name="Group 128186">
              <g id="Group_128185" data-name="Group 128185" clip-path="url(#clip-path-20)">
                <path id="Path_113528" data-name="Path 113528" d="M537.119,677.9l-.078,2.289a3.654,3.654,0,0,0,4.656.105l-.064-2.543Z" transform="translate(-537.041 -677.75)"/>
              </g>
            </g>
          </g>
          <path id="Path_113529" data-name="Path 113529" d="M532.4,583.979s-33.4,64.764,0,64.764c36.112,0,0-64.764,0-64.764" transform="translate(-166.574 -187.951)" fill="#6ba33d"/>
          <g id="Group_128190" data-name="Group 128190" transform="translate(352.81 396.028)" opacity="0.1" style="mix-blend-mode: multiply;isolation: isolate">
            <g id="Group_128189" data-name="Group 128189">
              <g id="Group_128188" data-name="Group 128188" clip-path="url(#clip-path-21)">
                <path id="Path_113530" data-name="Path 113530" d="M533.268,583.979s-.334.648-.9,1.8c8.107,16.641,25.323,57.933-3.513,57.933a16.062,16.062,0,0,1-8.609-2.106c2.085,4.375,6.126,7.136,13.017,7.136,36.112,0,0-64.764,0-64.764" transform="translate(-520.251 -583.979)"/>
              </g>
            </g>
          </g>
          <rect id="Rectangle_61854" data-name="Rectangle 61854" width="4.729" height="14.708" transform="translate(424.864 480.457)" fill="#594a42"/>
          <g id="Group_128193" data-name="Group 128193" transform="translate(428.01 480.458)" opacity="0.2" style="mix-blend-mode: multiply;isolation: isolate">
            <g id="Group_128192" data-name="Group 128192">
              <g id="Group_128191" data-name="Group 128191" clip-path="url(#clip-path-22)">
                <rect id="Rectangle_61855" data-name="Rectangle 61855" width="1.583" height="14.708" transform="translate(0 0)"/>
              </g>
            </g>
          </g>
          <g id="Group_128196" data-name="Group 128196" transform="translate(424.864 482.959)" opacity="0.2" style="mix-blend-mode: multiply;isolation: isolate">
            <g id="Group_128195" data-name="Group 128195">
              <g id="Group_128194" data-name="Group 128194" clip-path="url(#clip-path-23)">
                <path id="Path_113531" data-name="Path 113531" d="M626.5,712.337v2.26a6.435,6.435,0,0,0,4.729.113l-.039-2.543Z" transform="translate(-626.5 -712.167)"/>
              </g>
            </g>
          </g>
          <path id="Path_113532" data-name="Path 113532" d="M630.2,642.334h8.137c-6.114-3.891-10.982-10.861-14.767-18.483h7.995c-5.753-3.719-10.01-11.2-13.019-18.649h6.137c-8.8-5.93-12.108-26.225-12.108-26.225s-2.168,19.934-12.111,26.225h6.811c-2.9,7.344-7.258,14.744-13.693,18.649H602.5c-3.779,7.5-8.875,14.413-15.688,18.483h9.426c-5.22,9.421-11.994,17.89-20.732,23.109a140.485,140.485,0,0,0,37.069,5.1c22.945,0,37.07-5.1,37.07-5.1-7.855-5-14.279-13.532-19.442-23.109" transform="translate(-185.223 -186.341)" fill="#006838"/>
          <g id="Group_128199" data-name="Group 128199" transform="translate(390.281 392.636)" opacity="0.1" style="mix-blend-mode: multiply;isolation: isolate">
            <g id="Group_128198" data-name="Group 128198">
              <g id="Group_128197" data-name="Group 128197" clip-path="url(#clip-path-24)">
                <path id="Path_113533" data-name="Path 113533" d="M630.2,642.334h8.137c-6.114-3.891-10.982-10.861-14.767-18.483h7.995c-5.753-3.719-10.01-11.2-13.019-18.649h6.137c-8.8-5.93-12.108-26.225-12.108-26.225,15.936,95.8-13,85.277-30.073,81.256a44.928,44.928,0,0,1-7,5.21,140.485,140.485,0,0,0,37.069,5.1c22.945,0,37.07-5.1,37.07-5.1-7.855-5-14.279-13.532-19.442-23.109" transform="translate(-575.504 -578.977)"/>
              </g>
            </g>
          </g>
          <path id="Path_113534" data-name="Path 113534" d="M141.141,717.73c0-4.6-3.984-8.325-8.9-8.325a9.622,9.622,0,0,0-1.327.092,10.412,10.412,0,0,0-8.955-4.894c-5.679,0-10.282,4.306-10.282,9.62,0,.117,0,.233.009.35a6.889,6.889,0,0,0-5,6.481H140.4a7.842,7.842,0,0,0,.74-3.324" transform="translate(-34.335 -226.773)" fill="#009444"/>
          <g id="Group_128202" data-name="Group 128202" transform="translate(89.954 478.082)" opacity="0.1" style="mix-blend-mode: multiply;isolation: isolate">
            <g id="Group_128201" data-name="Group 128201">
              <g id="Group_128200" data-name="Group 128200" clip-path="url(#clip-path-25)">
                <path id="Path_113535" data-name="Path 113535" d="M140.6,709.525a9.495,9.495,0,0,0-1.327.093,10.26,10.26,0,0,0-6.627-4.642c4.571,2.643,8.426,9.428,4.863,16.2h11.249a7.843,7.843,0,0,0,.74-3.325c0-4.6-3.984-8.325-8.9-8.325" transform="translate(-132.645 -704.976)"/>
              </g>
            </g>
          </g>
          <rect id="Rectangle_61860" data-name="Rectangle 61860" width="2.148" height="20.195" transform="translate(179.342 470.391)" fill="#726351"/>
          <g id="Group_128205" data-name="Group 128205" transform="translate(180.812 470.391)" opacity="0.15" style="mix-blend-mode: multiply;isolation: isolate">
            <g id="Group_128204" data-name="Group 128204">
              <g id="Group_128203" data-name="Group 128203" clip-path="url(#clip-path-26)">
                <rect id="Rectangle_61861" data-name="Rectangle 61861" width="0.678" height="20.195"/>
              </g>
            </g>
          </g>
          <g id="Group_128208" data-name="Group 128208" transform="translate(179.342 474.581)" opacity="0.2" style="mix-blend-mode: multiply;isolation: isolate">
            <g id="Group_128207" data-name="Group 128207">
              <g id="Group_128206" data-name="Group 128206" clip-path="url(#clip-path-27)">
                <path id="Path_113536" data-name="Path 113536" d="M264.457,699.9v.791s.408.564,2.147.113l-.026-.989Z" transform="translate(-264.456 -699.812)"/>
              </g>
            </g>
          </g>
          <path id="Path_113537" data-name="Path 113537" d="M262.954,637.681a40.112,40.112,0,0,0,5.852-.955c-7.2-5.81-9.909-25.695-9.909-25.695v.015c-.056.6-1.9,19.613-9.91,25.68a37.959,37.959,0,0,0,6.356.986c-2.279,11.5-5.891,23.7-11.5,29.847,0,0,5.529,3.976,15.05,3.976,9.637,0,15.049-3.976,15.049-3.976-5.008-5.856-8.585-18.209-10.992-29.878" transform="translate(-78.481 -196.658)" fill="#008059"/>
          <g id="Group_128211" data-name="Group 128211" transform="translate(165.367 414.374)" opacity="0.1" style="mix-blend-mode: multiply;isolation: isolate">
            <g id="Group_128210" data-name="Group 128210">
              <g id="Group_128209" data-name="Group 128209" clip-path="url(#clip-path-28)">
                <path id="Path_113538" data-name="Path 113538" d="M262.954,637.681a40.112,40.112,0,0,0,5.852-.955c-7.2-5.81-9.909-25.695-9.909-25.695v.015c0,.045-.02.205-.047.446,1.264,13.533,9.967,60.664-13.581,54.3a21.552,21.552,0,0,1-1.421,1.766s5.529,3.976,15.05,3.976c9.637,0,15.049-3.976,15.049-3.976-5.008-5.856-8.585-18.209-10.992-29.878" transform="translate(-243.848 -611.032)"/>
              </g>
            </g>
          </g>
          <path id="Path_113539" data-name="Path 113539" d="M299.573,718.328a6.216,6.216,0,0,0,.607-2.679,5.9,5.9,0,0,0-5.77-6.03,5.557,5.557,0,0,0-1.646.252c-1.787-4.715-5.975-8.023-10.854-8.023a11.258,11.258,0,0,0-8.8,4.424,6.948,6.948,0,0,0-2.979-.672,7.411,7.411,0,0,0-6.339,3.786,5.55,5.55,0,0,0-3.119-.972c-3.3,0-5.975,2.94-5.975,6.565a7.018,7.018,0,0,0,.843,3.349Z" transform="translate(-81.973 -225.887)" fill="#74a334"/>
          <g id="Group_128214" data-name="Group 128214" transform="translate(198.464 475.962)" opacity="0.1" style="mix-blend-mode: multiply;isolation: isolate">
            <g id="Group_128213" data-name="Group 128213">
              <g id="Group_128212" data-name="Group 128212" clip-path="url(#clip-path-29)">
                <path id="Path_113540" data-name="Path 113540" d="M306.626,709.62a5.564,5.564,0,0,0-1.646.252c-1.787-4.714-5.975-8.023-10.855-8.023a10.672,10.672,0,0,0-1.472.106c4.5,3.22,8.846,8.558,5.9,16.373h13.237a6.22,6.22,0,0,0,.606-2.679,5.9,5.9,0,0,0-5.769-6.03" transform="translate(-292.653 -701.85)"/>
              </g>
            </g>
          </g>
          <path id="Path_113541" data-name="Path 113541" d="M368.638,715.054s53.445-19.837,100.991.064Z" transform="translate(-118.645 -227.306)" fill="#99d644"/>
          <path id="Path_113542" data-name="Path 113542" d="M455.926,712.262H431.059s1.47-10.6,1.47-15,.424-18.677.424-18.677l20.767-.49s.51,13.6.51,19.082,1.7,15.089,1.7,15.089" transform="translate(-138.734 -218.241)" fill="#726658"/>
          <path id="Path_113543" data-name="Path 113543" d="M452.175,705.019c0,4.026-2.96,7.29-6.612,7.29s-5.086-3.264-5.086-7.29,1.434-7.29,5.086-7.29,6.612,3.264,6.612,7.29" transform="translate(-141.766 -224.561)" fill="#594a42"/>
          <path id="Path_113544" data-name="Path 113544" d="M451.448,708.379a5.327,5.327,0,0,1-5.049,5.566c-2.789,0-3.884-2.492-3.884-5.566s1.1-5.566,3.884-5.566a5.327,5.327,0,0,1,5.049,5.566" transform="translate(-142.422 -226.197)" fill="#402e24"/>
          <g id="Group_128217" data-name="Group 128217" transform="translate(293.952 466.047)" opacity="0.1" style="mix-blend-mode: multiply;isolation: isolate">
            <g id="Group_128216" data-name="Group 128216">
              <g id="Group_128215" data-name="Group 128215" clip-path="url(#clip-path-30)">
                <path id="Path_113545" data-name="Path 113545" d="M433.57,687.553l-.111,3.791s11.648,3.927,21.32-1.413l-.116-2.7Z" transform="translate(-433.459 -687.229)"/>
              </g>
            </g>
          </g>
          <g id="Group_128220" data-name="Group 128220" transform="translate(311.145 459.851)" opacity="0.1" style="mix-blend-mode: multiply;isolation: isolate">
            <g id="Group_128219" data-name="Group 128219">
              <g id="Group_128218" data-name="Group 128218" clip-path="url(#clip-path-31)">
                <path id="Path_113546" data-name="Path 113546" d="M463.163,697.173c0-5.482-.51-19.081-.51-19.081l-3.84.091c.042,1.13.506,13.756.506,18.99,0,5.482,1.7,15.089,1.7,15.089h3.844s-1.7-9.607-1.7-15.089" transform="translate(-458.812 -678.092)"/>
              </g>
            </g>
          </g>
          <path id="Path_113547" data-name="Path 113547" d="M463.422,627.387c0,16.666-8.477,32.89-30.347,32.89-18.48,0-30.347-13.9-30.347-32.89,0-16.666,13.587-33.908,30.347-33.908,24.922,0,30.347,17.241,30.347,33.908" transform="translate(-129.616 -191.009)" fill="#009444"/>
          <g id="Group_128223" data-name="Group 128223" transform="translate(278.03 410.49)" opacity="0.1" style="mix-blend-mode: multiply;isolation: isolate">
            <g id="Group_128222" data-name="Group 128222">
              <g id="Group_128221" data-name="Group 128221" clip-path="url(#clip-path-32)">
                <path id="Path_113548" data-name="Path 113548" d="M457.727,605.3c3.52,6.124,4.638,13.773,4.638,21.31,0,16.666-8.477,32.891-30.347,32.891-9.2,0-16.763-3.449-22.037-9.255,5.132,8.527,14.016,13.832,25.428,13.832,21.87,0,30.347-16.224,30.347-32.891,0-9.565-1.8-19.312-8.029-25.888" transform="translate(-409.98 -605.305)"/>
              </g>
            </g>
          </g>
          <path id="Path_113549" data-name="Path 113549" d="M655.573,723.864c.328-3.966,5.591-6.765,11.755-6.255.564.048,1.119.12,1.658.218,2.422-2.336,6.762-3.69,11.58-3.29,7.122.59,12.587,4.782,12.208,9.365-.008.1-.023.2-.037.3,3.581,1.08,6.029,3.5,5.813,6.109l-42.286-3.5a5.088,5.088,0,0,1-.69-2.943" transform="translate(-210.988 -229.948)" fill="#00a14a"/>
          <g id="Group_128226" data-name="Group 128226" transform="translate(473.946 485.462)" opacity="0.1" style="mix-blend-mode: multiply;isolation: isolate">
            <g id="Group_128225" data-name="Group 128225">
              <g id="Group_128224" data-name="Group 128224" clip-path="url(#clip-path-33)">
                <path id="Path_113550" data-name="Path 113550" d="M706.679,724.65c.014-.1.028-.2.037-.3.3-3.585-2.99-6.921-7.84-8.491,2.656,3.257,6.061,9.058,1.847,13.925l11.769.976c.217-2.606-2.233-5.029-5.813-6.109" transform="translate(-698.876 -715.858)"/>
              </g>
            </g>
          </g>
          <path id="Path_113551" data-name="Path 113551" d="M194.615,720.395a4.89,4.89,0,0,0,.53-2.579c-.076-1.832-.923-3.284-1.893-3.245s-1.7,1.558-1.619,3.389a4.9,4.9,0,0,0,.739,2.528Z" transform="translate(-61.675 -229.981)" fill="#fff"/>
          <path id="Path_113552" data-name="Path 113552" d="M195.692,715.994a2.874,2.874,0,0,0,.207-1.192,3.443,3.443,0,0,0-6.851.282,2.879,2.879,0,0,0,.3,1.17Z" transform="translate(-60.843 -229.096)" fill="#f26522"/>
          <path id="Path_113553" data-name="Path 113553" d="M192.315,713.895a.6.6,0,1,0,.589.578.585.585,0,0,0-.589-.578" transform="translate(-61.722 -229.764)" fill="#fff"/>
          <path id="Path_113554" data-name="Path 113554" d="M196.825,715.119a.526.526,0,1,0,.547.5.526.526,0,0,0-.547-.5" transform="translate(-63.185 -230.158)" fill="#fff"/>
          <path id="Path_113555" data-name="Path 113555" d="M196.092,713.114a.646.646,0,0,0,.607-.527,3.488,3.488,0,0,0-1.113-.55.645.645,0,0,0,.506,1.077" transform="translate(-62.895 -229.166)" fill="#fff"/>
          <path id="Path_113556" data-name="Path 113556" d="M191.469,712.668a.322.322,0,0,0,.309-.335.289.289,0,0,0-.022-.091,3.5,3.5,0,0,0-.555.294.318.318,0,0,0,.267.132" transform="translate(-61.538 -229.232)" fill="#fff"/>
          <path id="Path_113557" data-name="Path 113557" d="M189.338,715.943a.289.289,0,0,0-.24-.27,2.823,2.823,0,0,0-.047.574h.006a.293.293,0,0,0,.281-.3" transform="translate(-60.845 -230.336)" fill="#fff"/>
          <path id="Path_113558" data-name="Path 113558" d="M190.572,717.8a.347.347,0,0,0-.332.36l.693-.029a.346.346,0,0,0-.361-.332" transform="translate(-61.228 -231.02)" fill="#fff"/>
          <g id="Group_128229" data-name="Group 128229" transform="translate(130.698 482.722)" style="mix-blend-mode: multiply;isolation: isolate">
            <g id="Group_128228" data-name="Group 128228">
              <g id="Group_128227" data-name="Group 128227" clip-path="url(#clip-path-34)">
                <path id="Path_113559" data-name="Path 113559" d="M193.529,711.82a3.756,3.756,0,0,0-.8.124,3.277,3.277,0,0,1,3.466,2.98,2.849,2.849,0,0,1-.176,1.1l.862-.035a2.894,2.894,0,0,0,.207-1.192,3.287,3.287,0,0,0-3.554-2.981" transform="translate(-192.726 -711.817)" fill="#e0e0e0"/>
              </g>
            </g>
          </g>
        </g>
      </g>
      <g id="Group_128233" data-name="Group 128233" transform="translate(0 486.055)">
        <g id="Group_128232" data-name="Group 128232" clip-path="url(#clip-path-35)">
          <rect id="Rectangle_61872" data-name="Rectangle 61872" width="252.279" height="525.196" transform="matrix(0.368, -0.93, 0.93, 0.368, -19.333, 48.811)" fill="url(#linear-gradient)"/>
        </g>
      </g>
      <g id="Group_128235" data-name="Group 128235">
        <g id="Group_128234" data-name="Group 128234" clip-path="url(#clip-path-2)">
          <path id="Path_113584" data-name="Path 113584" d="M393.111,783.191c0-.007-.007-.016-.011-.024,0,.008.007.017.011.024" transform="translate(-126.518 -252.059)" fill="#009444"/>
          <path id="Path_113585" data-name="Path 113585" d="M393.01,782.989c-.016-.031-.032-.064-.046-.094.014.033.031.064.046.094" transform="translate(-126.474 -251.971)" fill="#009444"/>
          <path id="Path_113586" data-name="Path 113586" d="M392.472,781.653a6.285,6.285,0,0,0,.325.823,6.315,6.315,0,0,1-.322-.823Z" transform="translate(-126.315 -251.572)" fill="#009444"/>
        </g>
      </g>
    </g>
  </g>
</svg>
